<svg version="1" xmlns="http://www.w3.org/2000/svg" width="1200" height="1200" viewBox="0 0 900.000000 900.000000"><path d="M0 283.5V417h29V292.1l4.8-.1c8.2-.1 11.7 0 13.5.6.9.3 1.7.1 1.7-.4 0-.4 2.2-.6 4.8-.2 2.7.3 6.1.3 7.5-.1 1.5-.4 2.9-.3 3.2.1.3.5 1.6.5 2.8.1 1.2-.5 3.3-.5 4.7-.1 1.4.3 3.6.4 5 0 1.4-.3 4.5-.3 7 .1s4.6.4 4.8 0c.1-.4 2.4-.5 5-.1 2.6.3 5.9.3 7.2 0 1.4-.3 4.5-.3 7 .1s4.6.4 4.8 0c.1-.4 2.4-.5 5.1-.1 2.6.3 6 .3 7.4-.1 1.5-.4 2.9-.3 3.2.1.3.5 1.6.5 2.8.1 1.2-.5 3.3-.5 4.7-.1 1.4.3 3.6.4 5 0 1.4-.3 4.5-.3 7 .1s4.6.3 4.8-.2c.2-.4 1-.5 1.8-.2 1.2.4 1.5 3 1.5 12.7v13.8c0 5.9 0 13-.1 14.3 0 .8-.1 2.3-.1 3.2-.1 1 0 2.9.1 4.3s.1 5.4 0 8.8c-.1 3.5.1 6.6.4 6.9.3.3.1 1.3-.4 2.3-.5 1-.6 3-.2 4.6.4 1.6.5 4.7.2 6.9s-.2 5.5.1 7.3c.4 1.7.3 3.4-.1 3.7-.4.2-.6 1.7-.3 3.2.2 1.6.3 5 .3 7.8-.2 5.7-.2 5.9.1 10 .1 1.6 0 3.4-.1 4-.1.5-.2 3.4-.1 6.2l.1 5.3h29V150h-28.8l-.3 3.7c-.2 2.1-.1 5.4.2 7.3.3 1.9.2 4.2-.3 5.1-.4.9-.4 2.9 0 4.5s.5 4.7.2 6.9-.3 5.4.1 7.2c.4 1.8.4 3.4.1 3.7-.2.3-.4 4.3-.3 8.8.3 10.6.3 9.3.2 16.8v8.2c0 1-.1 4.3-.1 7.4-.1 3.1.1 5.8.4 6.1.3.3.1 1.3-.4 2.3-.5 1-.6 3-.2 4.6.4 1.6.5 4.7.2 6.9s-.2 5.5.1 7.3c.4 1.7.3 3.4-.1 3.7-.4.2-.5 1.6-.2 3l.4 2.5H29V150H0v133.5zM654 283.5V417h27v-38.5c0-32.8.2-38.5 1.4-37.8.8.4 7.1 6.2 14.1 12.8 7 6.6 14.4 13.6 16.4 15.5 2.1 1.9 9.7 9.1 17.1 16 7.3 6.9 14.7 13.8 16.5 15.5 1.7 1.6 6.4 6 10.2 9.7l7.1 6.8h17.6c9.7 0 17.6-.3 17.6-.6 0-.4-1-1.5-2.2-2.6-2.3-1.9-20.4-18.9-31.9-29.8-3.2-3-10.4-9.8-16-15-5.6-5.2-11.8-11.1-13.9-13-5.8-5.5-25.2-23.6-28.2-26.3l-2.7-2.5 4.2-3.6c2.3-2 4.9-4.2 5.7-4.9.8-.7 8.3-6.9 16.5-13.7 8.3-6.8 16.8-13.9 19.1-15.9 2.2-2 5.6-4.7 7.4-6.1 1.8-1.4 4-3.2 4.9-4 .9-.9 5.4-4.7 10.1-8.5 4.7-3.8 8.7-7.2 9-7.5.3-.3 3.1-2.7 6.3-5.3 3.1-2.7 5.7-5.3 5.7-5.8s-7.8-.9-18.2-.9h-18.3l-4.1 3.8c-2.2 2-6.7 5.9-10 8.7-3.2 2.7-7 6-8.4 7.1-4.5 3.9-18.5 15.9-19.6 16.9-.6.5-3.3 2.8-5.9 5-2.6 2.2-5.9 5-7.4 6.3-1.4 1.3-4.3 3.7-6.5 5.5-2.1 1.8-5.7 4.9-8 6.9-2.2 2.1-4.4 3.8-4.8 3.8-.5 0-.8-37.1-.8-82.5V150h-27v133.5zM260.6 252c-4.1 1.3-8.4 5.8-9.6 9.9-.5 2-1 11.1-1 20.3V299h26v-24.9l43.5-.1H363l-.2 23.2c-.3 20.1-.5 23.3-1.8 23-2.7-.7-37.9-.4-39 .3-.5.3-1 .3-1-.2 0-.4-2.4-.7-5.2-.5-2.9.2-6 .3-6.8.3-7.7-.2-10.2-.1-11 .4-.6.4-1 .3-1-.2 0-.4-2.4-.7-5.2-.5-2.9.2-5.7.3-6.3.3-9.8-.2-23.5-.1-25 .3-1.1.2-2.7.5-3.5.5-2.8.2-7.8 5.6-8.9 9.6-1.5 5.6-1.5 74 .1 78.5 2.7 7.8 9.2 10.8 20.1 9.5 3.4-.4 7.8-.8 9.7-1 11.7-1.1 18.1-1.7 23-2 3-.3 7.8-.7 10.5-1 2.8-.2 8.2-.7 12-1 3.9-.3 9.2-.8 12-1.1 2.7-.3 7.5-.7 10.5-1 3-.2 8.1-.6 11.3-.9l5.7-.5v7h27.1l-.3-77.8c-.3-75.1-.4-77.8-2.3-80.9-1.1-1.9-3.8-4.2-6.2-5.3-4.1-1.9-6.2-2-61-1.9-31.3 0-58.1.5-59.7.9zM363 365v24l-2.7.1c-1.6.1-4.6.2-6.8.4s-9.2.6-15.5.9c-22.7 1.2-30.4 1.7-31.2 2.2-.4.3-.8 0-.8-.6s-.5-.8-1.2-.4c-.7.5-3.3.9-5.8 1-2.5.2-9.1.5-14.7.8l-10.3.6v-53h89v24zM459.5 252.1c-3.4 1-7.5 5-9.3 9.1-.8 2-1.2 22-1.2 72.9 0 69.5 0 70.3 2.1 74.6 4 8.2.3 7.8 70.9 7.8 70.6 0 66.9.4 70.9-7.8 1.9-4 2.1-6 2.1-26V361h-13.3c-12 0-13.4.2-13.5 1.7-.1 1-.2 5.8-.2 10.8.1 4.9.1 9.7 0 10.5v9h-91V276h42.4c23.3 0 42.8 0 43.2-.1.5-.1 1.9-.1 3 0 2.3.1 2.2-.8 2.6 20.6 0 1.1-.1 2.4-.2 3-.1.5-.2 2-.1 3.2.1 2.3.3 2.3 13.7 2.3h13.5l-.3-21.8c-.3-21.4-.4-21.9-2.8-25.5-4.6-6.8-3.4-6.6-69.9-6.6-32.8 0-61 .5-62.6 1zM679.7 453.6c-.1.2-2.6.6-5.5.9-6.7.8-17.8 4.5-23.8 8-7.6 4.5-14.7 12.4-19.3 21.8-2.3 4.6-4.3 9.4-4.6 10.6-.2 1.3-.7 3.1-1 4.1-.3 1-.7 3.1-1 4.6-.2 1.6-.6 4.5-1 6.4-.3 2-.7 8.6-.8 14.8l-.2 11.2-3.5.1h-26.7l.1 18.7.1 18.7h15l15 .1.1 79.4c.1 43.7.2 79.8.3 80.1.2 1.1 50 .9 50.6-.2.4-.5.6-36.4.6-79.8 0-73.8.1-78.9 1.7-79.3.9-.2 13.1-.4 27-.3l25.4.1-.4-3.3c-.2-1.8-.1-3.3.3-3.3s.4-1.5 0-3.3c-.3-1.7-.5-4.3-.4-5.7.1-1.4.2-5.7.2-9.5 0-3.9.1-8.2.1-9.7v-2.6h-24.7c-13.7-.1-25.8-.1-27.1-.1-2.3-.1-2.3-.3-2.1-9.4.8-28.9 10.6-37.1 40.9-34.3 2.5.3 6.5 1.2 8.9 2 2.5.9 4.8 1.3 5.2.9.9-1 9.9-28.2 9.9-29.9 0-.7-1-1.6-2.2-2-1.3-.4-2.5-1-2.8-1.3-.5-.7-12.3-4.9-15.5-5.5-1.1-.3-4-.9-6.5-1.4-2.5-.5-5.2-1-6-1.1-3.5-.4-26-.8-26.3-.5zM29.9 459.7c-.1.4-.2 62.3-.3 137.6L29.5 734l55-.4c30.3-.2 55.9-.6 57-.9 1.1-.2 4.2-.8 6.9-1.1 4.7-.7 12.8-2.4 20.8-4.4 5.6-1.4 23.1-8.3 24.8-9.7.8-.7 3.1-2 5-2.9 7.3-3.4 21.1-14.9 28.5-23.8 6.1-7.2 13.6-19.5 16.4-26.8.8-1.9 2-4.9 2.7-6.5 1.2-2.8 4.1-12.7 5-17 2.9-13.2 3-14.2 4-26 1.3-16.8.6-38-1.7-51-.6-3.3-1.3-7.1-1.5-8.5-2.1-11.3-12-37.7-14.6-38.8-.4-.2-.8-.8-.8-1.3 0-4-19.6-26.2-26.9-30.5-1.7-1-3.1-2.2-3.1-2.6 0-.4-.4-.8-1-.8-.5 0-3.9-1.8-7.5-4s-6.5-3.7-6.5-3.4c0 .4-.6.1-1.4-.5-1.7-1.4-13.3-5.7-21.1-7.7-7.1-1.9-8.1-2.1-16-3.4-3.3-.5-7.8-1.2-10-1.6-6-1-113.5-1.7-113.6-.7zm101.2 45.7c8.9 1 21.8 3.6 25.9 5.3.8.4 1.7.7 2 .8 2.3.6 10.8 4.9 14.2 7.3 12.9 9 23.5 26.4 27.8 45.7 2.7 12.2 3.4 45.1 1.2 56.5-3.4 17.2-11.4 33.9-21.1 44.3-6.5 6.9-21.4 16.3-28.9 18.3-7.5 1.9-15.8 3.4-21.7 4-9.8.9-43.7 1.1-45.5.3-1.4-.7-1.6-10.8-1.4-92.1 0-50.2.2-91.3.3-91.3 1.8-.4 43.2.4 47.2.9zM509.3 596.2l.2 137.3 25.6.2 25.5.1V459h-51.5l.2 137.2zM783.1 484.5c-.6 2.7-1.3 6.1-1.5 7.5-.3 1.4-1.2 5.9-2.1 10-.9 4.1-1.9 8.6-2.1 10-.3 1.4-.7 3.2-.9 4-.2.8-.7 2.8-1 4.5-.2 1.6-.7 4.1-1.1 5.5-.3 1.4-.7 3.6-.9 5-.2 1.4-.4 2.7-.5 3-.1.3-.2.8-.1 1.2.1.9-1.1.9-19.1.9H741l-.1 2.7c0 1.5 0 9.9-.1 18.7v16h14.5c8 0 14.9.3 15.2.7.4.3.8 25.5.9 56 .2 30.4.6 56.4 1 57.8.3 1.4.9 4.2 1.1 6.3 1.4 10.6 7.9 23.8 15.2 31.1 4.4 4.5 14.1 10 19.4 11.2 1.3.3 2.9.6 3.4.8 7 1.9 26.6 2.8 34.5 1.4 10.9-1.8 12.7-2.3 19-5 6.6-2.8 10.3-4.8 12.7-6.8l2.2-1.8-2-6.8c-1.1-3.8-2.2-7.6-2.4-8.4-.2-.8-1.3-4.9-2.5-9-1.1-4.1-2.3-8.4-2.5-9.4-.5-2.3-2.5-4.6-2.5-3 0 1.3-9.1 5.8-14.5 7.2-10.7 2.8-20 1.3-25.4-3.9-5.2-4.9-5.4-7.1-5.3-61.9 0-27.8 0-51.9.1-53.5l.1-3.1 28 .1 27.9.1v-37.3l-27.5-.1c-15.2 0-27.8-.3-28.2-.6-.3-.4-.6-12.9-.6-27.9l-.1-27.2-2.5-.2c-3.4-.4-10.3-.5-11.5-.3-.5.1-1.4.2-1.9.1-.4-.1-2.7-.2-5-.1-2.2 0-4.8.1-5.6.1-.8 0-3.8-.2-6.6-.3l-5.2-.3-1.1 5zM369.5 531.8c-.1.1-3.1.7-6.6 1.3-6.8 1.2-9.1 1.6-9.9 2-.3.1-.9.3-1.5.4-2.4.3-9.4 3-14 5.3-11.6 5.8-22.7 15.1-30.3 25.2-4.1 5.5-12.6 21-11.5 21 .3 0 .1.6-.4 1.2-.6.7-1.3 2.4-1.7 3.8-.4 1.4-1.4 5-2.2 8-.9 3-1.7 6.6-2 8-.2 1.4-.7 4.5-1 7-1 6-1 36.3-.1 42 2.3 14.5 4.4 21.9 9.5 33 2 4.5 8 14 10.1 16.2 9.3 9.6 12.3 12.3 17.1 15.5 3 2 6.7 4.5 8.2 5.5 1.5 1 3.1 1.8 3.6 1.8s3.4 1.1 6.3 2.4c6.4 2.9 19 6.2 27.4 7.2 11.1 1.3 33.7.8 42-1 4-.9 17-3.7 18-4 3.8-.9 10.1-3.3 16.8-6.4 9.1-4.2 9-1.4 1.5-24.3l-5-15.6-7.2 2.9c-32 13.1-65.1 10.8-82.4-5.6-2.4-2.3-5.7-6.2-7.3-8.8-3.3-5.1-7.8-16.9-7.9-20.5v-2.2h60.6c33.3 0 60.9-.3 61.3-.6.5-.2 1.2-1.9 1.5-3.7.3-1.8.9-4.4 1.2-5.8.3-1.4.7-4.5 1-7 .3-2.5.7-5.2 1.1-6 1-2.8 1.2-22.5.2-28.5-4.1-25-15.7-44-34.2-55.8-8.5-5.5-21.3-10.8-29.2-12.1-1.6-.3-4.8-.8-7-1.2-3.9-.7-25.4-1.2-26-.6zm25.5 40.4c14.3 5.2 21.5 18 22.6 40.4l.6 10.1-40.4-.1c-35.1-.1-40.3-.3-40.3-1.6-.2-4.6 4-19.4 7.4-26.4 8.4-17.2 21.8-25.2 40.1-24.1 3.6.2 8.1 1 10 1.7z"/></svg>