<?xml version="1.0" encoding="UTF-8" standalone="no"?>
<!-- Created with Inkscape (http://www.inkscape.org/) -->

<svg
   xmlns:dc="http://purl.org/dc/elements/1.1/"
   xmlns:cc="http://creativecommons.org/ns#"
   xmlns:rdf="http://www.w3.org/1999/02/22-rdf-syntax-ns#"
   xmlns:svg="http://www.w3.org/2000/svg"
   xmlns="http://www.w3.org/2000/svg"
   xmlns:sodipodi="http://sodipodi.sourceforge.net/DTD/sodipodi-0.dtd"
   xmlns:inkscape="http://www.inkscape.org/namespaces/inkscape"
   width="347.35199"
   height="109.91506"
   viewBox="0 0 91.903549 29.081694"
   id="svg2"
   version="1.1"
   inkscape:version="0.91+devel+osxmenu r12911"
   sodipodi:docname="ch_logo_white.svg">
  <defs
     id="defs4" />
  <sodipodi:namedview
     id="base"
     pagecolor="#ffffff"
     bordercolor="#666666"
     borderopacity="1.0"
     inkscape:pageopacity="0.0"
     inkscape:pageshadow="2"
     inkscape:zoom="4.1082246"
     inkscape:cx="173.676"
     inkscape:cy="54.957531"
     inkscape:document-units="px"
     inkscape:current-layer="g4149"
     showgrid="false"
     fit-margin-top="0"
     fit-margin-left="0"
     fit-margin-right="0"
     fit-margin-bottom="0"
     units="px" />
  <metadata
     id="metadata7">
    <rdf:RDF>
      <cc:Work
         rdf:about="">
        <dc:format>image/svg+xml</dc:format>
        <dc:type
           rdf:resource="http://purl.org/dc/dcmitype/StillImage" />
        <dc:title></dc:title>
      </cc:Work>
    </rdf:RDF>
  </metadata>
  <g
     inkscape:label="Laag 1"
     inkscape:groupmode="layer"
     id="layer1"
     transform="translate(141.95773,22.189657)">
    <g
       transform="matrix(0.35277777,0,0,-0.35277777,-141.95773,6.8920375)"
       inkscape:label="ink_ext_XXXXXX"
       id="g4149">
      <g
         transform="scale(0.1)"
         id="g4151"
         style="fill:#ffffff">
        <path
           inkscape:connector-curvature="0"
           id="path4153"
           style="fill:#ffffff;fill-opacity:1;fill-rule:nonzero;stroke:none"
           d="m 1167.66,487.207 c -9.24,18.242 -24.89,34.59 -37.5,51.426 -3.01,4.101 -5.12,16.855 4.29,13.437 6.23,-2.304 13.54,-4.004 20.35,-1.504 5.22,1.914 13.44,1.407 13.44,-5.507 l 0,-41.7 c 0,-4.238 0.61,-12.754 -0.58,-16.152" />
        <path
           inkscape:connector-curvature="0"
           id="path4155"
           style="fill:#ffffff;fill-opacity:1;fill-rule:nonzero;stroke:none"
           d="m 1160.53,588.164 -11.33,2.188 0.41,-13.418 -9.43,10.722 -6.63,-11.933 -1.62,12.754 -13.3,-3.829 8.81,11.438 -10.92,6.805 12.23,1.804 -4,12.129 10.91,-6.922 4.11,12.344 4.92,-11.836 11.33,7.324 -5.32,-11.726 13.03,-2.004 -11.72,-6.328 8.52,-9.512" />
        <path
           inkscape:connector-curvature="0"
           id="path4157"
           style="fill:#ffffff;fill-opacity:1;fill-rule:nonzero;stroke:none"
           d="m 1224.39,588.164 -11.32,2.188 0.39,-13.418 -9.42,10.722 -6.62,-11.933 -1.6,12.754 -13.34,-3.829 8.83,11.438 -10.94,6.805 12.23,1.804 -4.01,12.129 10.94,-6.922 4.1,12.344 4.92,-11.836 11.33,7.324 -5.31,-11.726 13.03,-2.004 -11.72,-6.328 8.51,-9.512" />
        <path
           inkscape:connector-curvature="0"
           id="path4159"
           style="fill:#ffffff;fill-opacity:1;fill-rule:nonzero;stroke:none"
           d="m 1212.27,539.336 c -12.66,-16.836 -28.29,-33.184 -37.5,-51.426 -1.22,3.399 -0.61,11.934 -0.61,16.133 l 0,41.699 c 0,6.934 8.22,7.422 13.44,5.528 6.81,-2.52 14.14,-0.801 20.35,1.484 9.43,3.418 7.32,-9.297 4.32,-13.418" />
        <path
           inkscape:connector-curvature="0"
           id="path4161"
           style="fill:#ffffff;fill-opacity:1;fill-rule:nonzero;stroke:none"
           d="m 1232.71,318.086 c -5.31,-9.531 -14.84,-14.746 -21.05,-21.563 -11.54,-12.441 -15.94,-20.253 -17.25,-30.976 -13.82,25.058 -41.5,98.75 36.2,183.769 -11.94,-23.066 -21.16,-43.613 -22.76,-64.082 -0.9,-12.109 2.42,-21.836 8.52,-32.871 8.43,-9.414 19.24,-20.859 16.34,-34.277" />
        <path
           inkscape:connector-curvature="0"
           id="path4163"
           style="fill:#ffffff;fill-opacity:1;fill-rule:nonzero;stroke:none"
           d="m 1148.2,264.043 c -2.61,10.332 -7.03,21.055 -18.36,32.383 -7.52,7.617 -19.74,14.023 -22.73,22.461 -1.91,9.629 9.51,19.843 17.23,31.484 6.71,10.117 10.91,21.934 9.51,35.684 -2.4,21.953 -10.43,39.297 -23.56,61.054 77.8,-64.765 53.44,-158.808 37.91,-183.066" />
        <path
           inkscape:connector-curvature="0"
           id="path4165"
           style="fill:#ffffff;fill-opacity:1;fill-rule:nonzero;stroke:none"
           d="m 1255.66,275.273 c -0.99,-12.929 0.32,-29.668 -10.82,-29.082 -4.9,0.196 -9.82,6.114 -20.04,6.426 -5.91,-0.215 -12.44,-1.406 -18.35,-3.418 -9.13,-3.203 -2.02,26.875 13.14,38.711 2.7,1.992 11.11,7.11 20.62,21.348 4.34,6.406 5.83,6.308 8.15,-2.207 4.71,-12.031 5.39,-18.047 7.3,-31.778" />
        <path
           inkscape:connector-curvature="0"
           id="path4167"
           style="fill:#ffffff;fill-opacity:1;fill-rule:nonzero;stroke:none"
           d="m 1135.16,247.402 c -5.9,1.993 -12.43,3.223 -18.34,3.399 -10.22,-0.293 -15.14,-6.211 -20.06,-6.406 -11.12,-0.606 -9.81,16.132 -10.82,29.062 1.91,13.75 2.61,19.766 7.32,31.797 2.31,8.516 3.81,8.613 8.11,2.187 9.53,-14.218 17.95,-19.336 20.66,-21.347 15.14,-11.817 22.27,-41.895 13.13,-38.692" />
        <path
           inkscape:connector-curvature="0"
           id="path4169"
           style="fill:#ffffff;fill-opacity:1;fill-rule:nonzero;stroke:none"
           d="m 1232.01,215.527 c -6.11,5.391 -14.04,11.114 -19.14,16.934 -3.22,3.613 1.41,8.73 6.19,9.023 6.74,0.489 12.64,-0.293 20.16,-2.402 13.65,-3.809 -2.5,-13.437 -7.21,-23.555" />
        <path
           inkscape:connector-curvature="0"
           id="path4171"
           style="fill:#ffffff;fill-opacity:1;fill-rule:nonzero;stroke:none"
           d="m 1128.75,232.773 c -8.12,-8.125 -12.93,-15.957 -17.73,-17.851 -4.32,9.316 -21.68,21.348 -8.15,22.344 8.34,0.605 11.76,3.515 17.46,4.121 6.82,0.801 14.34,-2.715 8.42,-8.614" />
        <path
           inkscape:connector-curvature="0"
           id="path4173"
           style="fill:#ffffff;fill-opacity:1;fill-rule:nonzero;stroke:none"
           d="m 1206.64,133.887 -35.49,45.508 -35.69,-46.211 c -53.53,48.418 -87.61,114.296 -93.04,199.707 1.8,77.5 32.29,132.539 84.92,176.66 -102.36,61.035 -48.41,191.961 44.02,191.961 88.62,0 149.96,-122 44.62,-191.082 52.71,-43.496 84.9,-100.528 86.7,-178.047 -5.41,-85.41 -42.09,-149.785 -96.04,-198.496 z m 186.04,559.109 -1.95,-0.008 c -22.14,0 -45.06,2.489 -68.13,7.41 -68.73,14.707 -124.69,45.684 -150.45,83.165 l -6.27,0.019 c -26.43,-38.906 -85.82,-71.988 -152.42,-84.687 -22.269,-4.219 -44.437,-6.153 -65.804,-5.879 -31.191,-72.371 -35.429,-167.235 -35.429,-250.75 0,-89.024 45.39,-185.84 131.253,-280 53.63,-58.848 106.83,-99.1996 125.84,-112.891 19.04,13.7305 72.34,54.199 125.83,112.891 85.87,94.179 131.25,190.996 131.25,280 0,89.082 -4.13,180.996 -33.72,250.73" />
        <path
           inkscape:connector-curvature="0"
           id="path4175"
           style="fill:#ffffff;fill-opacity:1;fill-rule:nonzero;stroke:none"
           d="M 1302.54,155.527 C 1245.36,92.793 1188.33,50.5859 1172.21,39.1406 l -2.89,-2.0508 -2.89,2.0508 c -16.08,11.4063 -72.99,53.4766 -130.34,116.3864 -87.574,96.036 -133.863,195.196 -133.863,286.739 0,85.742 4.472,183.398 37.617,257.839 l 1.355,3.047 3.332,-0.078 c 21.407,-0.484 44.309,1.352 67.059,5.645 65.34,12.441 123.2,44.863 147.39,82.578 l 1.49,2.305 17.07,-0.059 1.48,-2.266 c 23.27,-35.781 79.1,-66.855 145.67,-81.093 22.38,-4.786 44.61,-7.207 66.04,-7.207 l 8.47,0.078 1.33,-3.028 c 31.52,-71.773 35.87,-166.297 35.87,-257.761 0,-91.543 -46.29,-190.684 -133.86,-286.739 z m 124.11,561.2 -8.14,17.734 -19.52,-0.645 c -2.71,-0.136 -5.48,-0.156 -8.26,-0.156 -19.37,0 -39.41,2.188 -59.61,6.524 -78.17,16.738 -129.87,56.621 -132.9,83.964 l -58.42,0.215 c -3.43,-29.668 -58.07,-71.093 -133.94,-85.488 -18.157,-3.457 -36.251,-5.215 -53.77,-5.215 -3.516,0 -7.051,0.078 -10.481,0.235 l -19.558,0.8 -8.242,-17.769 c -37.239,-80.207 -42.266,-183.879 -42.266,-274.66 0,-99.317 49.043,-205.625 141.877,-307.442 68.65,-75.3123 136.56,-121.699 139.43,-123.6521 L 1169.32,0 l 16.46,11.1719 c 2.87,1.9531 70.76,48.3398 139.41,123.6521 92.81,101.817 141.89,208.125 141.89,307.442 0,96.738 -4.9,196.972 -40.43,274.461" />
        <path
           inkscape:connector-curvature="0"
           id="path4177"
           style="fill:#ffffff;fill-opacity:1;fill-rule:nonzero;stroke:none"
           d="m 2304.12,473.262 c 0,-7.989 6.19,-12.188 14.2,-12.188 9.61,0 22.21,9.199 22.21,21.797 l 0,9.395 c -29.42,-4.786 -36.41,-9.59 -36.41,-19.004" />
        <path
           inkscape:connector-curvature="0"
           id="path4179"
           style="fill:#ffffff;fill-opacity:1;fill-rule:nonzero;stroke:none"
           d="m 2008.61,357.891 c -8.59,0 -15.19,-5.801 -15.19,-17.012 0,-10.996 7.4,-18.203 16.6,-18.203 10.41,0 15.21,7.597 15.21,15.996 0,12.812 -7.4,19.219 -16.62,19.219" />
        <path
           inkscape:connector-curvature="0"
           id="path4181"
           style="fill:#ffffff;fill-opacity:1;fill-rule:nonzero;stroke:none"
           d="m 2207.11,461.074 c 9.61,0 22.21,9.199 22.21,21.797 l 0,9.395 c -29.4,-4.786 -36.41,-9.59 -36.41,-19.004 0,-7.989 6.21,-12.188 14.2,-12.188" />
        <path
           inkscape:connector-curvature="0"
           id="path4183"
           style="fill:#ffffff;fill-opacity:1;fill-rule:nonzero;stroke:none"
           d="m 2122.42,355.488 c -11.99,0 -19.61,-6.601 -19.61,-19.414 l 39.22,0 c 0,12.813 -7.6,19.414 -19.61,19.414" />
        <path
           inkscape:connector-curvature="0"
           id="path4185"
           style="fill:#ffffff;fill-opacity:1;fill-rule:nonzero;stroke:none"
           d="m 2487.32,445.469 c -5.99,0.605 -11.79,1.191 -18.2,1.191 -6.6,0 -12.4,-0.586 -18.2,-1.191 l 0,58.808 c 0,13.809 -5.59,16.407 -11.99,16.407 -9.2,0 -12.41,-11.211 -12.41,-20 l 0,-42.813 c 0,-7.012 5.39,-8.613 9.59,-8.613 l 0,-3.789 c -7.4,0.605 -14.78,1.191 -22.18,1.191 -8.62,0 -16.02,-0.586 -23.42,-1.191 l 0,3.789 c 5.41,0 8.81,1.601 8.81,12.402 l 0,60.215 c 0,8.008 -4.4,9.199 -9.2,9.199 l 0,3.809 c 10.6,2.207 23.81,5.41 35.19,10 l -0.39,-20.41 0.39,0 c 4.42,12.011 16.41,17.422 26.41,17.422 15.6,0 26.41,-6.817 26.41,-33.418 l 0,-48.809 c 0,-7.207 2.59,-10.41 9.19,-10.41 l 0,-3.789 z m -75.09,-49.981 c 0,-26.797 -21.02,-37.597 -23.01,-37.597 -0.61,0 -1.8,0.996 -1.8,1.601 0,1.797 5.59,11.192 5.59,25.801 0,4.395 -1.19,11.992 -2.4,18.203 l 21.62,0 0,-8.008 z m -34.1,49.981 c -6,0.605 -12,1.191 -17.8,1.191 -5.41,0 -11.4,-0.586 -17.4,-1.191 l 0,15.195 -0.41,-0.195 c -10,-14.61 -19,-17.012 -36.21,-17.012 -17.19,0 -29.4,10.606 -29.4,28.008 0,27.012 26.22,30.019 43.81,32.207 18.4,2.207 19.81,2.812 19.81,9.004 0,10.215 -8.62,14.004 -18.21,14.004 -16.01,0 -23.61,-4.004 -30.82,-18.594 l -3.79,0 0.81,27.207 c 10.8,3.789 22.4,6.602 35.99,6.602 23.22,0 43.22,-6.016 43.22,-34.825 l 0,-48.203 c 0,-6.797 4.01,-9.609 10.4,-9.609 l 0,-3.789 z m -49.71,-172.012 c -13.01,0 -23.81,3.203 -32.21,6.816 -0.39,9.2 -0.8,18.399 -1.19,27.598 l 3.79,0 c 5.41,-14.394 17.62,-21.601 32.01,-21.601 7.6,0 16.8,4.199 16.8,13.398 0,9.004 -13.4,9.805 -26.8,13.008 -13.4,3.203 -26.8,8.789 -26.8,26.601 0,24.414 21.39,32.618 46.19,32.618 8.42,0 16.82,-1.407 24.42,-3.809 0.8,-9.199 1.19,-18.008 1.8,-26.816 l -3.79,0 c -4.81,12.402 -16.02,16.621 -28.81,16.621 -6.6,0 -15,-2.618 -15,-9.414 0,-9.59 13.4,-10.391 26.8,-13.809 13.39,-3.398 26.79,-9.395 26.79,-29.395 0,-25.605 -26.79,-31.816 -44,-31.816 z m -46.58,2.012 c -6,0.605 -11.8,1.191 -18.21,1.191 -6.6,0 -12.4,-0.586 -18.2,-1.191 l 0,58.808 c 0,13.809 -5.61,16.407 -12.01,16.407 -9.2,0 -12.4,-11.211 -12.4,-20 l 0,-42.813 c 0,-7.012 5.41,-8.613 9.61,-8.613 l 0,-3.789 c -7.41,0.605 -14.81,1.191 -22.21,1.191 -8.6,0 -16,-0.586 -23.4,-1.191 l 0,3.789 c 5.39,0 8.79,1.601 8.79,12.402 l 0,60.215 c 0,8.008 -4.4,9.199 -9.2,9.199 l 0,3.809 c 10.6,2.207 23.81,5.41 35.21,10 l -0.41,-20.41 0.41,0 c 4.4,12.011 16.41,17.422 26.41,17.422 15.61,0 26.41,-6.817 26.41,-33.418 l 0,-48.809 c 0,-7.207 2.59,-10.41 9.2,-10.41 l 0,-3.789 z M 2165.7,471.465 c 0,27.012 26.21,30.019 43.81,32.207 18.42,2.207 19.81,2.812 19.81,9.004 0,10.215 -8.6,14.004 -18.21,14.004 -15.99,0 -23.59,-4.004 -30.8,-18.594 l -3.81,0 0.8,27.207 c 10.81,3.789 22.41,6.602 36.02,6.602 23.2,0 43.2,-6.016 43.2,-34.825 l 0,-48.203 c 0,-6.797 4.01,-9.609 10.41,-9.609 l 0,-3.789 c -5.99,0.605 -12.01,1.191 -17.81,1.191 -5.39,0 -11.41,-0.586 -17.4,-1.191 l 0,15.195 -0.39,-0.195 c -10,-14.61 -19.01,-17.012 -36.21,-17.012 -17.21,0 -29.42,10.606 -29.42,28.008 z m 4.73,-150.586 -68.42,0 c 0,-22.402 18.42,-29.805 32.21,-29.805 10.21,0 24.22,5.391 33.81,12.188 l -3.4,-19.004 c -10.39,-8.399 -24.81,-10.801 -37.4,-10.801 -29.61,0 -53.62,15.606 -53.62,50.02 0,27.402 20.2,48.418 49.42,48.418 28.2,0 47.4,-17.012 47.4,-43.614 l 0,-7.402 z m -120.39,20.801 c 0,-25 -21.62,-34.2 -43.22,-34.2 -12.8,0 -17.6,1.797 -20.8,3.184 -4.81,-1.387 -6,-4.394 -6,-6.387 0,-3.808 2.79,-6.406 19,-6.406 l 25,0 c 24.01,0 37.41,-8.808 37.41,-25.215 0,-22.597 -27,-34.59 -55,-34.59 -20.41,0 -36.02,7.989 -36.02,19.59 0,2.403 0.61,4.61 1.41,7.012 l 24.39,6.387 c -1,-2.383 -1,-4.785 -1,-7.989 0,-5.214 4.61,-12.207 18.4,-12.207 13.21,0 23.01,5.196 23.01,13.008 0,8.789 -7.4,10.801 -26.19,10.801 -9,0 -15.02,-0.41 -21.21,-0.41 -23.01,0 -31.6,9.199 -31.6,22.402 0,3.809 1.38,9.219 5.58,11.211 l 15.22,7.207 c -7.81,6.192 -11,15.996 -11,23.399 0,22.402 18.21,33.418 43.01,33.418 11.19,0 25.2,-4.415 34,-4.415 5.2,0 13.01,0.997 19.59,2.208 l -4.39,-14.61 -12.79,-0.801 c 1.99,-3.593 3.2,-8.398 3.2,-12.597 z m -100.61,17.011 -25.41,-79.023 c -10.6,-33.203 -22.4,-41.602 -35.21,-41.602 -4.2,0 -8.4,1.387 -11.8,3.985 l -1.19,28.418 3.79,0 c 0.6,-5.215 3.4,-10 9.41,-10 9.79,0 16.8,7.597 16.8,13.789 0,2.012 -1.8,6.015 -5.61,15.215 l -28.39,70.215 c -1.61,3.789 -3.4,5.195 -8.01,6.406 l 0,3.789 c 7.6,-0.606 15.41,-1.192 23.4,-1.192 7.81,0 15.82,0.586 23.61,1.192 l 0,-3.789 c -3.4,-0.41 -9.2,0 -9.2,-4.805 0,-1.601 1.19,-6.016 3.2,-11.601 l 14.4,-42.208 0.41,0 9.2,34.805 c 1.99,7.793 4,14.199 4,16.406 0,5 -3.2,7.188 -9,7.403 l 0,3.789 c 5.8,-0.606 11.4,-1.192 17.21,-1.192 5.58,0 11.38,0.586 16.79,1.192 l 0,-3.789 c -5.6,-0.41 -6.6,-1.817 -8.4,-7.403 z m -90,-83.222 c -5.99,0.605 -11.79,1.191 -18.2,1.191 -4.2,0 -9.39,-0.586 -16,-1.191 l 0.59,19.004 -0.39,0 c -2.4,-12.403 -11.82,-21.016 -26.21,-21.016 -15.8,0 -27.81,6.406 -27.81,31.406 l 0,46.621 c 0,7.598 -4.59,10 -9.2,9.59 l 0,3.809 c 12.01,1.406 24,4.805 37.42,10 -0.8,-5 -1.02,-8.594 -1.02,-12.207 l 0,-55.801 c 0.61,-7.207 3.01,-12.207 10.22,-12.207 8.2,0 14.2,5.996 14.2,18.008 l 0,38.808 c 0,7.598 -4.61,10 -8.81,9.59 l 0,3.809 c 11.6,1.406 23.61,4.805 37.01,10 -0.8,-5 -1,-8.594 -1,-12.207 l 0,-73.008 c 0,-7.207 2.6,-10.41 9.2,-10.41 l 0,-3.789 z m -101.3,173.789 0,-3.789 c -7.41,0.605 -14.81,1.191 -22.21,1.191 -8.6,0 -16,-0.586 -23.81,-1.191 l 0,3.789 c 5.8,0 9.2,1.601 9.2,12.402 l 0,99.629 c 0,14.609 -3.2,15.195 -9.2,16.602 l 0,3.808 c 12.21,1.387 24.61,5.391 37.01,10.996 0,-5.195 -0.6,-10.8 -0.6,-16.601 l 0,-48.614 0.41,0 c 2.18,4.805 5.8,8.399 10,10.801 4.39,2.403 9.61,3.614 14.61,3.614 15.8,0 26.6,-6.817 26.6,-33.418 l 0,-48.809 c 0,-7.207 2.59,-10.41 9.2,-10.41 l 0,-3.789 c -6,0.605 -11.8,1.191 -18.21,1.191 -6.6,0 -12.4,-0.586 -18.2,-1.191 l 0,58.808 c 0,13.809 -5.61,16.407 -12.01,16.407 -10.39,0 -12.4,-10 -12.4,-18.809 l 0,-44.004 c 0,-7.012 5.41,-8.613 9.61,-8.613 z m -12.09,-48.36 c -6.8,-0.214 -9.2,-2.812 -9.2,-8.418 l 0,-104.804 c 0,-5.606 2.4,-8.203 9.2,-8.418 l 0,-3.789 c -8.79,0.605 -16.61,1.191 -24.01,1.191 -7.4,0 -15.19,-0.586 -24,-1.191 l 0,3.789 c 6.81,0.215 9.2,2.812 9.2,8.418 l 0,45.996 -48.4,0 0,-45.996 c 0,-5.606 2.4,-8.203 9.2,-8.418 l 0,-3.789 c -8.81,0.605 -16.6,1.191 -24.01,1.191 -7.4,0 -15.19,-0.586 -24,-1.191 l 0,3.789 c 6.8,0.215 9.2,2.812 9.2,8.418 l 0,104.804 c 0,5.606 -2.4,8.204 -9.2,8.418 l 0,3.79 c 8.81,-0.586 16.6,-1.192 24,-1.192 7.41,0 15.2,0.606 24.01,1.192 l 0,-3.79 c -6.8,-0.214 -9.2,-2.812 -9.2,-8.418 l 0,-39.589 48.4,0 0,39.589 c 0,5.606 -2.39,8.204 -9.2,8.418 l 0,3.79 c 8.81,-0.586 16.6,-1.192 24,-1.192 7.4,0 15.22,0.606 24.01,1.192 l 0,-3.79 z m -156.12,108.575 c 0,34.804 24.4,68.418 71.21,68.418 16.41,0 28.62,-3.203 33.21,-5 0,-13.594 0.19,-26.602 1.21,-39.61 l -3.81,0 c -3.2,16.602 -16.21,25.41 -33.01,25.41 -22.81,0 -40.41,-17.812 -40.41,-47.812 0,-22.598 18.81,-48.203 45.22,-48.203 11.19,0 27.2,5.195 38,14.199 l -2.2,-21.406 c -12.41,-9.395 -30.2,-13.203 -41.8,-13.203 -43.22,0 -67.62,33.203 -67.62,67.207 z m -20.01,18.418 -21.6,0 0,7.988 c 0,26.816 21.02,37.617 23.01,37.617 0.6,0 1.8,-0.996 1.8,-1.601 0,-1.797 -5.61,-11.211 -5.61,-25.801 0,-4.414 1.21,-12.012 2.4,-18.203 z m 253.41,6.992 c 10.61,2.207 23.81,5.41 35.2,10 l -0.39,-20.41 0.39,0 c 4.41,12.011 16.4,17.422 26.4,17.422 1.21,0 4.2,-0.411 7.01,-1.016 l 1.2,-29.805 -2.19,0 c -3.21,6.602 -7.01,9.61 -14.42,9.61 -11.99,0 -16.79,-12.813 -16.79,-23.204 l 0,-40.41 c 0,-5.195 7.4,-7.402 11.79,-7.812 l 0,-3.789 c -8,0.605 -15.99,1.191 -24.39,1.191 -8.61,0 -16.02,-0.586 -23.42,-1.191 l 0,3.789 c 5.41,0 8.81,1.601 8.81,12.402 l 0,60.215 c 0,8.008 -4.39,9.199 -9.2,9.199 l 0,3.809 z m 75.8,-85.625 c 3.4,0 9.2,1.406 9.2,8.808 l 0,63.809 c 0,8.008 -4.39,9.199 -9.2,9.199 l 0,3.809 c 13.2,1.601 28.4,5.801 36.41,10 l 0,-85.82 c 0,-9.004 5,-9.805 9.2,-9.805 l 0,-3.789 c -7.6,0.605 -15.2,1.191 -22.6,1.191 -7.62,0 -15.02,-0.586 -23.01,-1.191 l 0,3.789 z m 20.8,131.445 c 10.2,0 15.61,-6.816 15.61,-16.406 0,-8.613 -5.61,-15.606 -14.61,-15.606 -9.59,0 -16.19,6.192 -16.19,15.801 0,9.004 5.39,16.211 15.19,16.211 z m 81.19,-38.808 c 8.42,0 16.82,-1.407 24.42,-3.809 0.8,-9.199 1.19,-18.008 1.79,-26.816 l -3.78,0 c -4.81,12.402 -16.02,16.621 -28.81,16.621 -6.6,0 -15,-2.618 -15,-9.414 0,-9.59 13.4,-10.391 26.79,-13.809 13.4,-3.398 26.8,-9.395 26.8,-29.395 0,-25.605 -26.8,-31.816 -44,-31.816 -13.01,0 -23.81,3.203 -32.21,6.816 -0.39,9.2 -0.8,18.399 -1.19,27.598 l 3.79,0 c 5.41,-14.394 17.61,-21.601 32.01,-21.601 7.6,0 16.8,4.199 16.8,13.398 0,9.004 -13.4,9.805 -26.8,13.008 -13.4,3.203 -26.8,8.789 -26.8,26.601 0,24.414 21.39,32.618 46.19,32.618 z m 40.8,-2.012 10.8,0 0,13.398 c 7.41,3.008 16.22,9.414 22.02,15.801 l 5.19,0 0,-29.199 21.8,0 0,-15.195 -21.8,0 0,-48.809 c 0,-10.41 4.59,-14.805 12.21,-14.805 4.78,0 8.79,1.797 11.99,4.395 l -2.19,-17.403 c -6.01,-3.007 -13,-4.609 -20.82,-4.609 -24.2,0 -28.4,15.41 -28.4,30.215 l 0,51.016 -10.8,0 0,15.195 z m 68.21,-90.625 c 3.4,0 9.2,1.406 9.2,8.808 l 0,63.809 c 0,8.008 -4.4,9.199 -9.2,9.199 l 0,3.809 c 13.2,1.601 28.4,5.801 36.4,10 l 0,-85.82 c 0,-9.004 5,-9.805 9.2,-9.805 l 0,-3.789 c -7.59,0.605 -15.19,1.191 -22.59,1.191 -7.62,0 -15.02,-0.586 -23.01,-1.191 l 0,3.789 z m 20.8,131.445 c 10.19,0 15.6,-6.816 15.6,-16.406 0,-8.613 -5.6,-15.606 -14.61,-15.606 -9.59,0 -16.19,6.192 -16.19,15.801 0,9.004 5.39,16.211 15.2,16.211 z m 474.22,21.719 0,19.258 c -9.16,0.605 -16.45,8.742 -16.51,18.808 l -1127.13,0 c 13.22,-62.207 15.58,-131.054 15.58,-198.222 0,-82.559 -32.87,-169.61 -95.69,-254.883 l 1207.5,0 c 1.15,8.847 7.89,15.683 16.25,16.23 l 0,19.258 c -9.2,0.606 -16.51,8.809 -16.51,18.926 0,10.117 7.31,18.32 16.51,18.906 l 0,19.277 c -9.2,0.606 -16.51,8.79 -16.51,18.907 0,10.117 7.31,18.32 16.51,18.926 l 0,19.257 c -9.2,0.606 -16.51,8.809 -16.51,18.926 0,10.117 7.31,18.301 16.51,18.906 l 0,19.278 c -9.07,0.586 -16.25,8.554 -16.47,18.476 0.22,9.922 7.4,17.891 16.47,18.477 l 0,19.258 c -9.2,0.605 -16.51,8.808 -16.51,18.925 0,10.118 7.31,18.301 16.51,18.907 l 0,19.257 c -9.2,0.606 -16.51,8.809 -16.51,18.926 0,10.117 7.31,18.321 16.51,18.926 l 0,19.258 c -9.2,0.605 -16.51,8.789 -16.51,18.906 0,10.137 7.31,18.32 16.51,18.926" />
        <path
           inkscape:connector-curvature="0"
           id="path4187"
           style="fill:#ffffff;fill-opacity:1;fill-rule:nonzero;stroke:none"
           d="m 643.816,555.566 c -9.812,0 -11.941,-10.234 -11.941,-15.566 l 23.035,0 c 0,5.547 -1.805,15.566 -11.094,15.566" />
        <path
           inkscape:connector-curvature="0"
           id="path4189"
           style="fill:#ffffff;fill-opacity:1;fill-rule:nonzero;stroke:none"
           d="m 513.164,413.164 c 0,-4.258 2.344,-9.062 7.781,-9.062 5.547,0 10.45,5.117 12.16,6.621 l 0,13.75 c -4.687,-0.098 -19.941,-0.098 -19.941,-11.309" />
        <path
           inkscape:connector-curvature="0"
           id="path4191"
           style="fill:#ffffff;fill-opacity:1;fill-rule:nonzero;stroke:none"
           d="m 356.934,404.102 c 9.492,0 12.382,8.632 12.382,20.898 0,10.469 -2.89,20.059 -12.48,20.059 -9.609,0 -12.481,-9.18 -12.481,-19.727 0,-12.168 2.774,-21.23 12.579,-21.23" />
        <path
           inkscape:connector-curvature="0"
           id="path4193"
           style="fill:#ffffff;fill-opacity:1;fill-rule:nonzero;stroke:none"
           d="m 588.105,515.156 c 5.547,0 10.235,4.688 12.801,6.289 l 0,30.078 c -3.406,1.817 -6.824,3.516 -12.156,3.516 -9.18,0 -10.027,-10.449 -10.027,-20.801 0,-8.945 0.75,-19.082 9.382,-19.082" />
        <path
           inkscape:connector-curvature="0"
           id="path4195"
           style="fill:#ffffff;fill-opacity:1;fill-rule:nonzero;stroke:none"
           d="m 525.52,306.211 c -7.727,0 -8.125,-8.32 -8.418,-11.094 l 15.543,0 c 0,4.063 -0.301,11.094 -7.125,11.094" />
        <path
           inkscape:connector-curvature="0"
           id="path4197"
           style="fill:#ffffff;fill-opacity:1;fill-rule:nonzero;stroke:none"
           d="m 798.723,289.98 c 0,-9.023 1.98,-14.667 7.918,-14.667 5.047,0 7.429,2.48 8.418,3.378 l 0,23.36 c -1.289,0.996 -3.371,2.969 -7.825,2.969 -5.933,0 -8.511,-5.547 -8.511,-15.04" />
        <path
           inkscape:connector-curvature="0"
           id="path4199"
           style="fill:#ffffff;fill-opacity:1;fill-rule:nonzero;stroke:none"
           d="m 437.93,306.211 c -7.727,0 -8.125,-8.32 -8.418,-11.094 l 15.547,0 c 0,4.063 -0.301,11.094 -7.129,11.094" />
        <path
           inkscape:connector-curvature="0"
           id="path4201"
           style="fill:#ffffff;fill-opacity:1;fill-rule:nonzero;stroke:none"
           d="m 684.004,413.164 c 0,-4.258 2.344,-9.062 7.793,-9.062 5.547,0 10.449,5.117 12.148,6.621 l 0,13.75 c -4.687,-0.098 -19.941,-0.098 -19.941,-11.309" />
        <path
           inkscape:connector-curvature="0"
           id="path4203"
           style="fill:#ffffff;fill-opacity:1;fill-rule:nonzero;stroke:none"
           d="m 657.363,289.98 c 0,-9.023 1.985,-14.667 7.918,-14.667 5.063,0 7.434,2.48 8.418,3.378 l 0,23.36 c -1.289,0.996 -3.355,2.969 -7.82,2.969 -5.938,0 -8.516,-5.547 -8.516,-15.04" />
        <path
           inkscape:connector-curvature="0"
           id="path4205"
           style="fill:#ffffff;fill-opacity:1;fill-rule:nonzero;stroke:none"
           d="m 341.121,306.211 c -7.723,0 -8.125,-8.32 -8.418,-11.094 l 15.551,0 c 0,4.063 -0.305,11.094 -7.133,11.094" />
        <path
           inkscape:connector-curvature="0"
           id="path4207"
           style="fill:#ffffff;fill-opacity:1;fill-rule:nonzero;stroke:none"
           d="m 245.242,288.984 c 0,-11.191 1.875,-15.937 8.321,-15.937 4.457,0 6.132,2.168 7.328,3.457 l 0,27.031 c -0.891,0.508 -2.578,1.992 -6.743,1.992 -7.418,0 -8.906,-5.547 -8.906,-16.543" />
        <path
           inkscape:connector-curvature="0"
           id="path4209"
           style="fill:#ffffff;fill-opacity:1;fill-rule:nonzero;stroke:none"
           d="m 827.441,261.758 c 0,-10.801 -5.351,-17.93 -19.113,-17.93 -7.723,0 -20.496,3.164 -20.496,5.254 0,0.684 0.098,1.074 0.391,1.973 l 1.882,6.035 c 0.2,0.703 0.598,0.996 1.086,0.996 1.192,0 7.239,-3.867 16.043,-3.867 6.938,0 8.125,2.871 8.125,8.418 0,3.476 -0.3,5.84 -0.3,6.543 -1.485,-0.996 -5.246,-3.77 -11.985,-3.77 -11.082,0 -16.929,9.317 -16.929,24.16 0,15.957 6.929,25.86 18.718,25.86 7.032,0 9.903,-3.086 11.785,-4.668 0.293,0.898 2.075,4.668 3.457,4.668 0.305,0 0.696,-0.098 1,-0.196 l 7.723,-2.89 c 0.391,-0.196 0.891,-0.489 0.891,-0.879 0,-1.289 -2.778,-4.863 -2.778,-12.676 l 0,-14.766 c 0,-6.523 0.5,-16.718 0.5,-22.265 z m -53.691,4.453 c 0,-1.094 -0.203,-1.387 -1.387,-1.387 l -9.804,0 c -1.192,0 -1.387,0.293 -1.387,1.387 l 0,30.488 c 0,3.77 -0.496,8.321 -5.547,8.321 -4.16,0 -7.434,-2.872 -8.711,-4.063 l 0,-34.746 c 0,-1.094 -0.203,-1.387 -1.387,-1.387 l -9.804,0 c -1.192,0 -1.387,0.293 -1.387,1.387 l 0,29.902 c 0,13.965 -1.887,13.164 -1.887,15.45 0,0.488 0.403,0.898 1.098,1.093 l 7.516,2.461 c 0.597,0.215 1.093,0.313 1.488,0.313 1.289,0 2.078,-2.188 3.172,-6.836 2.871,2.578 7.324,6.836 15.144,6.836 5.449,0 12.883,-2.481 12.883,-14.473 l 0,-34.746 z m -63.086,53.965 c -4.559,0 -8.223,3.672 -8.223,8.222 0,4.551 3.664,8.125 8.223,8.125 4.453,0 8.113,-3.574 8.113,-8.125 0,-4.55 -3.66,-8.222 -8.113,-8.222 z m 6.34,-53.965 c 0,-1.094 -0.195,-1.387 -1.391,-1.387 l -9.8,0 c -1.196,0 -1.387,0.293 -1.387,1.387 l 0,38.32 -7.629,0 c -1.184,0 -1.387,0.293 -1.387,1.387 l 0,6.426 c 0,1.094 0.203,1.386 1.387,1.386 l 18.816,0 c 1.196,0 1.391,-0.292 1.391,-1.386 l 0,-46.133 z M 676.008,412.52 c 0,18.027 21.336,18.359 27.937,18.574 l 0,3.828 c 0,6.191 -1.914,9.609 -9.492,9.609 -7.148,0 -12.051,-3.418 -13.008,-3.418 -0.324,0 -0.644,0.215 -0.742,0.528 l -1.387,3.73 c -0.214,0.547 -0.332,0.859 -0.332,1.387 0,1.816 9.825,4.922 16.641,4.922 12.266,0 16.426,-5.977 16.426,-14.942 l 0,-20.898 c 0,-6.719 0.332,-7.676 1.289,-10.664 0.422,-1.289 1.914,-3.321 1.914,-3.946 0,-0.429 -0.527,-0.644 -0.957,-0.859 l -4.16,-2.558 c -0.43,-0.215 -0.645,-0.333 -0.86,-0.333 -1.601,0 -3.515,5.665 -4.043,7.149 -1.289,-1.172 -6.504,-7.149 -15.363,-7.149 -8.426,0 -13.863,5.547 -13.863,15.04 z m 10.078,-150.762 c 0,-10.801 -5.356,-17.93 -19.113,-17.93 -7.727,0 -20.496,3.164 -20.496,5.254 0,0.684 0.093,1.074 0.386,1.973 l 1.887,6.035 c 0.195,0.703 0.598,0.996 1.086,0.996 1.187,0 7.234,-3.867 16.043,-3.867 6.934,0 8.125,2.871 8.125,8.418 0,3.476 -0.305,5.84 -0.305,6.543 -1.48,-0.996 -5.242,-3.77 -11.98,-3.77 -11.082,0 -16.934,9.317 -16.934,24.16 0,15.957 6.934,25.86 18.723,25.86 7.027,0 9.898,-3.086 11.785,-4.668 0.293,0.898 2.07,4.668 3.457,4.668 0.305,0 0.691,-0.098 0.996,-0.196 l 7.727,-2.89 c 0.386,-0.196 0.886,-0.489 0.886,-0.879 0,-1.289 -2.773,-4.863 -2.773,-12.676 l 0,-14.766 c 0,-6.523 0.5,-16.718 0.5,-22.265 z m -57.238,161.23 c 0,17.813 8.535,28.692 21.648,28.692 7.141,0 15.363,-5.02 15.363,-6.621 0,-0.313 -0.214,-0.528 -0.324,-0.86 l -2.449,-4.472 c -0.215,-0.313 -0.32,-0.645 -0.645,-0.645 -0.429,0 -5.007,5.449 -11.308,5.449 -10.449,0 -13.535,-7.793 -13.535,-19.961 0,-9.687 1.914,-19.941 12.265,-19.941 6.922,0 12.473,4.375 13.106,4.375 0.332,0 0.429,-0.313 0.644,-0.645 l 1.817,-4.472 c 0.105,-0.313 0.312,-0.528 0.312,-0.86 0,-1.172 -8.957,-5.547 -16.847,-5.547 -12.684,0 -20.047,9.922 -20.047,25.508 z m -3.875,-102.812 c -4.563,0 -8.227,3.672 -8.227,8.222 0,4.551 3.664,8.125 8.227,8.125 4.453,0 8.113,-3.574 8.113,-8.125 0,-4.55 -3.66,-8.222 -8.113,-8.222 z m 6.336,-53.965 c 0,-1.094 -0.196,-1.387 -1.387,-1.387 l -9.805,0 c -1.191,0 -1.387,0.293 -1.387,1.387 l 0,38.32 -7.625,0 c -1.183,0 -1.386,0.293 -1.386,1.387 l 0,6.426 c 0,1.094 0.203,1.386 1.386,1.386 l 18.817,0 c 1.191,0 1.387,-0.292 1.387,-1.386 l 0,-46.133 z m -26.602,134.043 0,43.32 -8.32,0 c -0.86,0 -1.289,0.41 -1.289,1.27 l 0,4.062 c 0,0.84 0.429,1.27 1.289,1.27 l 15.039,0 c 1.172,0 1.387,-0.645 1.387,-1.602 l 0,-48.32 c 0,-0.84 -0.43,-1.27 -1.29,-1.27 l -5.546,0 c -0.84,0 -1.27,0.43 -1.27,1.27 z m -5.984,-134.043 c 0,-1.094 -0.207,-1.387 -1.387,-1.387 l -9.809,0 c -1.187,0 -1.382,0.293 -1.382,1.387 l 0,30.488 c 0,3.77 -0.5,8.321 -5.547,8.321 -4.16,0 -7.434,-2.872 -8.711,-4.063 l 0,-34.746 c 0,-1.094 -0.207,-1.387 -1.391,-1.387 l -9.805,0 c -1.187,0 -1.382,0.293 -1.382,1.387 l 0,29.902 c 0,13.965 -1.887,13.164 -1.887,15.45 0,0.488 0.398,0.898 1.094,1.093 l 7.519,2.461 c 0.598,0.215 1.094,0.313 1.485,0.313 1.289,0 2.082,-2.188 3.171,-6.836 2.872,2.578 7.329,6.836 15.149,6.836 5.449,0 12.883,-2.481 12.883,-14.473 l 0,-34.746 z m -44.59,178.633 0,4.062 c 0,0.742 0,1.27 0.75,1.27 l 8,0 0,14.609 c 0,0.645 0.418,1.074 1.172,1.289 l 5.652,1.602 c 0.313,0 0.527,0.097 0.742,0.097 0.535,0 0.535,-0.527 0.535,-1.171 l 0,-16.426 15.793,0 c 0.633,0 1.172,-0.098 1.172,-0.742 0,-0.215 -0.117,-0.43 -0.117,-0.743 l -1.387,-4.16 c -0.215,-0.547 -0.742,-0.957 -1.386,-0.957 l -14.075,0 0,-30.293 c 0,-4.277 0,-8.652 6.399,-8.652 5.019,0 9.277,2.891 10.234,2.891 0.43,0 0.75,-0.332 0.75,-0.645 l 1.176,-3.945 c 0.105,-0.43 0.215,-0.742 0.215,-1.075 0,-1.386 -8,-4.375 -13.762,-4.375 -4.59,0 -8.418,1.719 -10.019,3.75 -3.094,3.301 -3.094,8.106 -3.094,12.051 l 0,30.293 -8,0 c -0.75,0 -0.75,0.742 -0.75,1.27 z m -6.067,64.648 c -0.859,0 -1.281,0.43 -1.281,1.289 l 0,35.625 c 0,4.59 -1.18,8.633 -6.93,8.633 -6.933,0 -11.417,-4.16 -14.074,-6.504 l 0,-37.754 c 0,-0.859 -0.429,-1.289 -1.289,-1.289 l -5.547,0 c -0.847,0 -1.277,0.43 -1.277,1.289 l 0,36.797 c 0,3.516 0,4.688 -0.422,6.289 -0.859,3.203 -1.711,3.946 -1.711,4.473 0,0.215 0.11,0.43 0.539,0.762 l 4.793,2.656 c 0.207,0.117 0.539,0.43 0.852,0.43 1.926,0 3.203,-6.407 3.308,-7.247 3.52,2.774 9.067,7.247 17.168,7.247 11.848,0 12.7,-8.321 12.7,-15.997 l 0,-35.41 c 0,-0.859 -0.43,-1.289 -1.282,-1.289 l -5.547,0 z m -4.336,-223.574 -26.628,0 c 0,-5.547 1.582,-12.383 10.886,-12.383 7.129,0 11.192,3.262 12.578,3.262 0.497,0 0.887,-0.391 1.082,-0.781 l 2.485,-5.957 c 0.191,-0.293 0.293,-0.684 0.293,-1.075 0,-2.578 -9.906,-5.839 -17.727,-5.839 -13.066,0 -22.179,7.421 -22.179,25.644 0,15.742 8.418,26.641 21.691,26.641 16.824,0 19.805,-15.059 19.805,-27.051 0,-1.875 -0.403,-2.461 -2.286,-2.461 z m -43.3,26.23 -3.067,-8.32 c -0.097,-0.293 -0.39,-0.879 -0.793,-0.879 -0.593,0 -2.371,1.094 -4.656,1.094 -3.066,0 -6.23,-3.379 -7.519,-4.766 l 0,-33.066 c 0,-1.094 -0.207,-1.387 -1.387,-1.387 l -9.805,0 c -1.191,0 -1.387,0.293 -1.387,1.387 l 0,29.902 c 0,10.899 -2.578,12.676 -2.578,14.961 0,0.391 0.403,0.684 0.891,0.879 l 7.527,3.067 c 0.403,0.097 0.891,0.41 1.289,0.41 1.192,0 3.164,-4.453 3.66,-7.832 1.887,2.285 5.547,7.832 12.29,7.832 2.871,0 5.742,-0.996 5.742,-2.285 0,-0.391 -0.102,-0.801 -0.207,-0.997 z m -35.313,88.106 c 0,-0.84 -0.429,-1.27 -1.277,-1.27 l -5.547,0 c -0.852,0 -1.281,0.43 -1.281,1.27 l 0,35.625 c 0,4.59 -1.172,8.652 -6.934,8.652 -4.797,0 -8.535,-2.988 -10.344,-4.492 l 0,-39.785 c 0,-0.84 -0.425,-1.27 -1.277,-1.27 l -5.547,0 c -0.859,0 -1.277,0.43 -1.277,1.27 l 0,36.601 c 0,2.442 -0.11,5 -0.649,7.461 -0.535,2.442 -1.375,3.086 -1.375,3.614 0,0.215 0.098,0.429 0.528,0.761 l 4.59,2.559 c 0.214,0.098 0.632,0.43 0.957,0.43 1.601,0 2.773,-5.547 2.871,-6.309 2.773,2.559 9.394,6.309 13.867,6.309 6.933,0 9.922,-2.149 11.308,-6.407 3.204,2.344 8.965,6.407 14.083,6.407 11.835,0 12.695,-8.321 12.695,-16.016 l 0,-35.41 c 0,-0.84 -0.43,-1.27 -1.289,-1.27 l -5.547,0 c -0.84,0 -1.27,0.43 -1.27,1.27 l 0,35.625 c 0,4.59 -1.172,8.652 -6.836,8.652 -5.117,0 -8.32,-2.89 -10.449,-4.375 l 0,-39.902 z m -8.972,-114.336 -26.633,0 c 0,-5.547 1.582,-12.383 10.886,-12.383 7.129,0 11.196,3.262 12.582,3.262 0.497,0 0.887,-0.391 1.09,-0.781 l 2.473,-5.957 c 0.195,-0.293 0.293,-0.684 0.293,-1.075 0,-2.578 -9.902,-5.839 -17.727,-5.839 -13.062,0 -22.175,7.421 -22.175,25.644 0,15.742 8.418,26.641 21.687,26.641 16.828,0 19.809,-15.059 19.809,-27.051 0,-1.875 -0.403,-2.461 -2.285,-2.461 z M 413.379,443.77 c -3.731,0 -7.461,-5.547 -10.02,-8.301 l 0,-35.215 c 0,-0.84 -0.429,-1.27 -1.289,-1.27 l -5.547,0 c -0.847,0 -1.269,0.43 -1.269,1.27 l 0,36.601 c 0,1.915 -0.332,5.43 -1.816,8.106 -0.86,1.484 -1.172,2.344 -1.172,2.656 0.097,0.645 0.527,0.957 0.742,1.074 l 3.945,2.442 c 0.43,0.332 0.86,0.547 1.074,0.547 1.914,0 3.731,-6.621 4.161,-8.965 2.761,2.988 6.601,8.965 12.792,8.965 2.454,0 5.223,-0.86 5.223,-1.817 0,-0.215 -0.215,-0.547 -0.32,-0.859 l -2.344,-5.43 c -0.105,-0.215 -0.215,-0.761 -0.644,-0.761 -0.528,0 -1.485,0.957 -3.516,0.957 z m -2.305,-132.911 -16.14,-45.644 c -0.403,-1.094 -0.5,-1.289 -1.887,-1.289 l -8.125,0 c -1.387,0 -1.484,0.195 -1.875,1.289 l -15.75,45.644 c -0.102,0.215 -0.395,0.996 -0.488,1.7 0,0.781 0.691,0.879 2.175,1.074 l 8.211,0.898 c 0.305,0 1.391,0.098 1.594,0.098 0.789,0 1.082,-0.996 1.387,-1.973 l 6.035,-22.285 c 1.094,-3.965 2.578,-10.703 3.176,-14.355 l 0.191,0 c 0.598,3.554 2.18,10.488 3.371,14.355 l 6.731,22.285 c 0.3,1.074 0.593,1.973 1.383,1.973 0.207,0 1.292,-0.098 1.593,-0.098 l 6.731,-0.898 c 1.48,-0.195 2.176,-0.293 2.176,-1.074 -0.098,-0.704 -0.391,-1.485 -0.489,-1.7 z m -51.738,-24.941 -26.633,0 c 0,-5.547 1.582,-12.383 10.891,-12.383 7.129,0 11.191,3.262 12.578,3.262 0.5,0 0.891,-0.391 1.086,-0.781 l 2.476,-5.957 c 0.2,-0.293 0.293,-0.684 0.293,-1.075 0,-2.578 -9.898,-5.839 -17.722,-5.839 -13.067,0 -22.176,7.421 -22.176,25.644 0,15.742 8.418,26.641 21.687,26.641 16.829,0 19.805,-15.059 19.805,-27.051 0,-1.875 -0.398,-2.461 -2.285,-2.461 z m -44.563,114.336 c 0,-0.84 -0.418,-1.27 -1.277,-1.27 l -5.547,0 c -0.859,0 -1.277,0.43 -1.277,1.27 l 0,43.32 -7.473,0 c -0.742,0 -0.742,0.742 -0.742,1.27 l 0,4.062 c 0,0.742 0,1.27 0.742,1.27 l 7.473,0 0,8.32 c 0,8.008 1.598,17.715 14.82,17.715 4.914,0 11.731,-2.148 11.731,-3.75 0,-0.313 -0.313,-0.742 -0.528,-1.484 l -1.496,-3.516 c -0.215,-0.332 -0.418,-0.645 -0.75,-0.645 -1.804,0 -4.797,2.247 -9.277,2.247 -5.969,0 -6.399,-4.493 -6.399,-10.665 l 0,-8.222 15.364,0 c 0.644,0 1.172,-0.098 1.172,-0.742 0,-0.215 -0.11,-0.43 -0.11,-0.743 l -1.386,-4.16 c -0.211,-0.547 -0.75,-0.957 -1.383,-0.957 l -13.657,0 0,-43.32 z m -15.554,-80.078 c -4.563,0 -8.223,3.672 -8.223,8.222 0,4.551 3.66,8.125 8.223,8.125 4.453,0 8.117,-3.574 8.117,-8.125 0,-4.55 -3.664,-8.222 -8.117,-8.222 z m 6.34,-53.965 c 0,-1.094 -0.2,-1.387 -1.387,-1.387 l -9.809,0 c -1.187,0 -1.383,0.293 -1.383,1.387 l 0,38.32 -7.628,0 c -1.18,0 -1.387,0.293 -1.387,1.387 l 0,6.426 c 0,1.094 0.207,1.386 1.387,1.386 l 18.82,0 c 1.187,0 1.387,-0.292 1.387,-1.386 l 0,-46.133 z m -22.59,132.773 -5.547,0 c -0.859,0 -1.277,0.43 -1.277,1.27 l 0,35.625 c 0,4.59 -1.184,8.652 -6.934,8.652 -6.938,0 -11.418,-4.16 -14.074,-6.504 l 0,-37.773 c 0,-0.84 -0.43,-1.27 -1.289,-1.27 l -5.547,0 c -0.852,0 -1.281,0.43 -1.281,1.27 l 0,36.797 c 0,3.535 0,4.707 -0.418,6.308 -0.86,3.184 -1.707,3.946 -1.707,4.473 0,0.215 0.105,0.43 0.535,0.742 l 4.797,2.676 c 0.203,0.098 0.535,0.43 0.847,0.43 1.922,0 3.203,-6.407 3.313,-7.266 3.511,2.774 9.058,7.266 17.168,7.266 11.843,0 12.691,-8.321 12.691,-16.016 l 0,-35.41 c 0,-0.84 -0.43,-1.27 -1.277,-1.27 z m -8.614,-132.382 -7.531,-3.067 c -0.386,-0.097 -0.886,-0.39 -1.277,-0.39 -0.899,0 -2.383,3.457 -2.871,5.937 -1.59,-1.484 -5.946,-5.937 -13.074,-5.937 -11.289,0 -16.938,9.101 -16.938,24.16 0,18.711 6.731,28.125 19.016,28.125 5.34,0 7.629,-1.895 9.211,-2.969 l 0,20.293 c 0,1.484 0.691,1.484 1.882,1.777 l 8.313,1.68 c 0.301,0 1.187,0.312 1.387,0.312 0.797,0 0.996,-0.41 0.996,-2.089 l 0,-54.063 c 0,-9.609 1.773,-10.898 1.773,-12.871 0,-0.41 -0.387,-0.703 -0.887,-0.898 z m -43.664,199.785 c 0,-0.86 -0.425,-1.27 -1.277,-1.27 l -9.707,0 0,-59.199 9.707,0 c 0.852,0 1.277,-0.43 1.277,-1.289 l 0,-4.375 c 0,-0.84 -0.425,-1.27 -1.277,-1.27 l -28.164,0 c -0.852,0 -1.27,0.43 -1.27,1.27 l 0,4.375 c 0,0.859 0.418,1.289 1.27,1.289 l 9.707,0 0,59.199 -9.707,0 c -0.852,0 -1.27,0.41 -1.27,1.27 l 0,4.375 c 0,0.859 0.418,1.289 1.27,1.289 l 28.164,0 c 0.852,0 1.277,-0.43 1.277,-1.289 l 0,-4.375 z m -11.011,-200.469 -7.532,-2.48 c -0.593,-0.196 -1.085,-0.293 -1.484,-0.293 -1.289,0 -2.078,1.875 -3.164,5.839 -2.676,-2.382 -7.324,-5.839 -15.156,-5.839 -5.449,0 -12.871,2.46 -12.871,14.453 l 0,34.062 c 0,1.387 0.691,1.485 1.875,1.778 l 8.32,1.679 c 0.305,0 1.289,0.313 1.582,0.313 0.605,0 0.801,-0.41 0.801,-2.09 l 0,-31.485 c 0,-3.769 0.488,-8.32 5.547,-8.32 4.16,0 7.422,2.168 8.711,3.067 l 0,35.058 c 0,1.387 0.695,1.485 1.882,1.778 l 8.325,1.679 c 0.293,0 1.277,0.313 1.675,0.313 0.5,0 0.696,-0.41 0.696,-2.09 l 0,-30.899 c 0,-13.964 1.883,-13.164 1.883,-15.449 0,-0.488 -0.399,-0.879 -1.09,-1.074 z m -63.489,-2.773 c -12.773,0 -12.773,10 -12.773,19.101 l 0,22.285 -7.031,0 c -1.192,0 -1.387,0.293 -1.387,1.387 l 0,6.426 c 0,1.094 0.195,1.386 1.387,1.386 l 7.031,0 0,12.481 c 0,1.289 0.195,1.582 1.582,1.797 l 8.711,1.172 c 0.305,0 0.703,0.117 1.289,0.117 0.898,0 0.996,-0.508 0.996,-1.699 l 0,-13.868 11.289,0 c 0.891,0 1.68,0 1.68,-1.074 0,-0.195 0,-0.41 -0.098,-0.801 l -1.289,-5.839 c -0.293,-1.387 -0.598,-1.485 -1.777,-1.485 l -9.805,0 0,-23.965 c 0,-3.164 0,-6.035 3.359,-6.035 3.965,0 6.446,1.875 7.833,1.875 0.39,0 0.683,-0.195 0.781,-0.586 l 1.992,-8.125 c 0.098,-0.507 0.195,-0.507 0.195,-0.8 0,-1.875 -7.226,-3.75 -13.965,-3.75 z m -49.433,0 c -10.0978,0 -20.6916,4.355 -20.6916,5.937 0,0.293 0.3008,0.977 0.4961,1.582 l 2.2773,6.543 c 0.1954,0.586 0.6915,0.977 1.0821,0.977 0.6054,0 7.9297,-4.356 16.4451,-4.356 5.547,0 8.906,2.969 8.906,9.121 0,8.809 -10.097,9.707 -20.1949,15.84 -5.2539,3.164 -8.6133,7.129 -8.6133,15.352 0,14.257 10.293,20.195 21.7772,20.195 9.414,0 19.121,-4.356 19.121,-6.035 0,-0.293 -0.097,-0.703 -0.5,-1.485 l -3.269,-6.543 c -0.293,-0.585 -0.684,-0.996 -1.082,-0.996 -0.598,0 -6.742,4.375 -13.867,4.375 -4.563,0 -9.3091,-1.797 -9.3091,-7.734 0,-7.52 11.5821,-8.906 20.2931,-15.352 5.059,-3.769 8.523,-9.003 8.523,-16.543 0,-12.578 -8.914,-20.878 -21.394,-20.878 z m 145.879,318.554 5.234,1.289 c 0.418,0.098 1.055,0.313 1.387,0.313 0.527,0 0.742,-0.957 0.84,-1.914 l 9.074,-51.934 c 0.32,-1.933 0.633,-8.437 0.848,-11.308 l 0.214,0 c 0.325,4.16 0.536,7.988 1.289,11.933 l 10.235,51.211 c 0.097,0.625 0.215,1.27 0.957,1.27 l 6.719,0 c 0.742,0 0.957,-0.645 1.074,-1.27 l 8.847,-52.695 c 0.43,-2.676 1.067,-6.719 1.067,-10.449 l 0.215,0 c 0.215,3.515 0.215,7.675 0.75,10.546 l 9.707,52.696 c 0.207,0.957 0.312,1.914 0.84,1.914 0.332,0 0.964,-0.215 1.504,-0.313 l 5.117,-1.289 c 0.742,-0.195 1.172,-0.312 1.172,-0.84 0,-0.332 -0.11,-0.859 -0.215,-1.289 l -14.61,-69.531 c -0.105,-0.547 -0.214,-1.289 -1.074,-1.289 l -7.988,0 c -0.75,0 -0.969,0.43 -1.074,1.289 l -8.953,58.984 -0.215,0 -11.094,-58.984 c -0.109,-0.547 -0.324,-1.289 -0.957,-1.289 l -7.688,0 c -0.957,0 -1.062,0.645 -1.062,1.289 L 251.68,579.57 c -0.11,0.43 -0.215,0.957 -0.215,1.289 0,0.645 0.859,0.743 1.172,0.84 z m 75.754,-22.285 c 0,0.859 0.425,1.289 1.277,1.289 l 15.039,0 c 1.172,0 1.387,-0.644 1.387,-1.601 l 0,-48.321 c 0,-0.859 -0.43,-1.289 -1.281,-1.289 l -5.543,0 c -0.852,0 -1.282,0.43 -1.282,1.289 l 0,43.301 -8.32,0 c -0.852,0 -1.277,0.43 -1.277,1.289 l 0,4.043 z m 13.113,26.563 c 3.633,0 6.516,-2.989 6.516,-6.504 0,-3.516 -2.883,-6.504 -6.516,-6.504 -3.621,0 -6.504,2.871 -6.504,6.504 0,3.613 2.883,6.504 6.504,6.504 z m 36.555,-161.075 c 0,-14.941 -6.301,-27.422 -21.868,-27.422 -14.394,0 -20.586,11.641 -20.586,26.895 0,14.707 6.192,27.305 21.653,27.305 14.617,0 20.801,-11.739 20.801,-26.778 z m -15.735,89.512 1.492,3.301 c 0.325,0.742 0.637,0.957 0.957,0.957 0.969,0 6.516,-3.731 13.762,-3.731 4.59,0 8.535,2.559 8.535,7.676 0,11.094 -23.679,8.633 -23.679,24.746 0,8.633 6.714,14.825 16.101,14.825 3.633,0 9.817,-1.7 12.586,-3.204 0.852,-0.429 1.184,-0.839 1.184,-1.386 0,-0.313 -0.332,-0.645 -0.43,-1.055 l -1.387,-2.891 c -0.429,-0.839 -0.644,-1.269 -1.289,-1.269 -0.742,0 -5.215,2.871 -10.761,2.871 -4.278,0 -7.903,-2.129 -7.903,-7.031 0,-11.739 23.684,-8.438 23.684,-25.078 0,-10.02 -7.891,-15.137 -17.071,-15.137 -5.117,0 -16.21,2.988 -16.21,5.117 0,0.527 0.214,0.859 0.429,1.289 z m 48.438,69.531 c 0,0.743 0.312,1.172 0.742,1.289 l 5.332,1.27 c 0.859,0.215 0.535,0.117 1.289,0.215 0.742,0 0.742,-0.86 0.742,-1.387 l 0,-48.105 21.231,24.101 c 0.312,0.332 0.632,0.86 1.172,0.86 0.418,0 0.847,-0.43 1.269,-0.645 l 3.738,-2.559 c 0.207,-0.214 0.637,-0.312 0.637,-0.742 0,-0.527 -0.43,-0.957 -0.742,-1.289 l -18.027,-19.941 18.769,-23.77 c 0.215,-0.332 0.754,-0.762 0.754,-1.289 0,-0.43 -0.434,-0.527 -0.637,-0.742 l -3.738,-2.559 c -0.422,-0.214 -0.852,-0.644 -1.281,-0.644 -0.528,0 -0.957,0.527 -1.172,0.859 l -21.758,26.875 -0.215,0 0,-24.961 c 0,-0.859 -0.429,-1.289 -1.277,-1.289 l -5.547,0 c -0.852,0 -1.281,0.43 -1.281,1.289 l 0,73.164 z m 49.394,-24.531 c 0,0.742 0.324,1.172 0.75,1.289 l 5.332,1.27 c 0.852,0.215 0.539,0.117 1.282,0.215 0.742,0 0.742,-0.86 0.742,-1.387 l 0,-37.012 c 0,-4.59 1.816,-8.633 8.75,-8.633 3.301,0 10.136,3.516 12.16,5.43 l 0,38.828 c 0,0.742 0.32,1.172 0.75,1.289 l 5.332,1.27 c 0.851,0.215 0.527,0.117 1.269,0.215 0.75,0 0.75,-0.86 0.75,-1.387 l 0,-37.969 c 0,-2.461 0.11,-4.805 1.172,-7.031 0.649,-1.289 2.035,-3.418 2.035,-4.063 0,-0.429 -0.539,-0.644 -0.968,-0.859 l -4.16,-2.559 c -0.418,-0.215 -0.633,-0.312 -0.848,-0.312 -1.594,0 -2.774,3.847 -3.945,6.289 -2.993,-2.442 -8.743,-6.289 -14.829,-6.289 -14.402,0 -15.574,8.32 -15.574,15.996 l 0,35.41 z m 63.457,-114.883 c -7.148,0 -12.05,-3.418 -13.008,-3.418 -0.332,0 -0.644,0.215 -0.75,0.528 l -1.386,3.73 c -0.215,0.547 -0.324,0.859 -0.324,1.387 0,1.816 9.816,4.922 16.64,4.922 12.266,0 16.426,-5.977 16.426,-14.942 l 0,-20.898 c 0,-6.719 0.32,-7.676 1.277,-10.664 0.434,-1.289 1.926,-3.321 1.926,-3.946 0,-0.429 -0.535,-0.644 -0.957,-0.859 l -4.16,-2.558 c -0.43,-0.215 -0.645,-0.333 -0.859,-0.333 -1.602,0 -3.516,5.665 -4.051,7.149 -1.282,-1.172 -6.504,-7.149 -15.364,-7.149 -8.418,0 -13.867,5.547 -13.867,15.04 0,18.027 21.336,18.359 27.949,18.574 l 0,3.828 c 0,6.191 -1.914,9.609 -9.492,9.609 z m 64.18,117.657 c 6.602,0 10.234,-1.817 13.113,-3.633 l 0,25.39 c 0,0.743 0.324,1.172 0.754,1.289 l 5.215,1.27 c 0.859,0.215 0.535,0.117 1.289,0.215 0.852,0 0.852,-0.86 0.852,-1.387 l 0,-58.984 c 0,-4.805 0,-7.989 1.172,-10.664 0.535,-1.27 1.921,-3.301 1.921,-3.946 0,-0.429 -0.539,-0.644 -0.957,-0.859 l -4.16,-2.559 c -0.429,-0.215 -0.644,-0.312 -0.859,-0.312 -1.492,0 -3.418,4.59 -3.836,6.289 -2.57,-1.817 -7.785,-6.289 -15.676,-6.289 -11.426,0 -16.641,12.793 -16.641,26.015 0,15.372 5.43,28.165 17.813,28.165 z m 26.934,-93.243 c 0,-3.515 -2.872,-6.504 -6.504,-6.504 -3.633,0 -6.504,2.891 -6.504,6.504 0,3.633 2.871,6.504 6.504,6.504 3.632,0 6.504,-2.988 6.504,-6.504 z m 29.519,93.243 c 17.805,0 19.406,-17.286 19.406,-26.446 0,-1.504 0,-2.344 -1.172,-2.344 l -30.605,0 c 0,-6.503 2.559,-18.242 14.719,-18.242 6.929,0 12.476,4.375 13.113,4.375 0.32,0 0.43,-0.332 0.645,-0.644 l 1.816,-4.473 c 0.098,-0.332 0.312,-0.547 0.312,-0.859 0,-1.172 -8.957,-5.547 -16.855,-5.547 -14.18,0.097 -22.5,10.879 -22.5,27.09 0,15.683 7.891,27.09 21.121,27.09 z M 861.543,442.266 c 0,63.789 2.5,133.886 16.75,198.222 l -862.043,0 C 16.1914,630.508 9.04297,622.441 0,621.711 l 0,-19.32 C 9.08203,601.66 16.2695,593.535 16.2695,583.496 16.2695,573.477 9.08203,565.352 0,564.609 L 0,545.293 C 9.08203,544.57 16.2695,536.445 16.2695,526.406 16.2695,516.387 9.08203,508.242 0,507.52 L 0,488.203 C 9.08203,487.461 16.2695,479.336 16.2695,469.316 16.2695,459.277 9.08203,451.152 0,450.41 L 0,431.113 C 8.94531,430.391 16.0156,422.48 16.2305,412.656 16.0156,402.832 8.94531,394.922 0,394.199 L 0,374.883 C 9.08203,374.141 16.2695,366.016 16.2695,355.996 16.2695,345.957 9.08203,337.832 0,337.109 L 0,317.793 C 9.08203,317.051 16.2695,308.926 16.2695,298.887 16.2695,288.867 9.08203,280.742 0,280 L 0,260.684 C 9.08203,259.941 16.2695,251.816 16.2695,241.797 16.2695,231.758 9.08203,223.633 0,222.91 l 0,-19.316 c 8.25,-0.664 14.8633,-7.461 16.0156,-16.211 l 941.2034,0 c -62.817,85.254 -95.676,172.305 -95.676,254.883" />
      </g>
    </g>
  </g>
</svg>
