<?xml version="1.0" encoding="UTF-8" standalone="no"?>
<!-- Created with Inkscape (http://www.inkscape.org/) -->

<svg
   xmlns:dc="http://purl.org/dc/elements/1.1/"
   xmlns:cc="http://creativecommons.org/ns#"
   xmlns:rdf="http://www.w3.org/1999/02/22-rdf-syntax-ns#"
   xmlns:svg="http://www.w3.org/2000/svg"
   xmlns="http://www.w3.org/2000/svg"
   xmlns:sodipodi="http://sodipodi.sourceforge.net/DTD/sodipodi-0.dtd"
   xmlns:inkscape="http://www.inkscape.org/namespaces/inkscape"
   width="64"
   height="64"
   viewBox="0 0 16.933333 16.933333"
   id="svg5252"
   version="1.1"
   inkscape:version="0.91+devel+osxmenu r12911"
   sodipodi:docname="email.svg">
  <defs
     id="defs5254" />
  <sodipodi:namedview
     id="base"
     pagecolor="#ffffff"
     bordercolor="#666666"
     borderopacity="1.0"
     inkscape:pageopacity="0.0"
     inkscape:pageshadow="2"
     inkscape:zoom="10.53125"
     inkscape:cx="32"
     inkscape:cy="32"
     inkscape:document-units="px"
     inkscape:current-layer="layer1"
     showgrid="true"
     units="px"
     inkscape:object-paths="true"
     inkscape:snap-intersection-paths="true"
     inkscape:object-nodes="true"
     inkscape:snap-midpoints="false"
     inkscape:snap-smooth-nodes="true">
    <inkscape:grid
       type="xygrid"
       id="grid5814" />
  </sodipodi:namedview>
  <metadata
     id="metadata5257">
    <rdf:RDF>
      <cc:Work
         rdf:about="">
        <dc:format>image/svg+xml</dc:format>
        <dc:type
           rdf:resource="http://purl.org/dc/dcmitype/StillImage" />
        <dc:title></dc:title>
      </cc:Work>
    </rdf:RDF>
  </metadata>
  <g
     inkscape:label="Laag 1"
     inkscape:groupmode="layer"
     id="layer1"
     transform="translate(0,-280.06667)">
    <path
       inkscape:connector-curvature="0"
       id="path5834"
       d="m 0.94073825,282.7125 c -0.26271273,0 -0.49891489,0.13268 -0.66926686,0.34624 L 7.326564,289.2238 c 0.7042444,0.61528 1.5750299,0.61528 2.2792738,0 l 7.0560112,-6.16564 c -0.170333,-0.2133 -0.406682,-0.34566 -0.669266,-0.34566 l -15.05184475,0 z M -2e-6,284.2464 l 0,8.94512 c 0,0.15958 0.02601408,0.31146 0.07257665,0.44971 L 5.4354372,288.99468 -2e-6,284.2464 Z m 16.933325,5.6e-4 -5.434521,4.74774 5.362403,4.64598 c 0.04642,-0.13806 0.07213,-0.28979 0.07213,-0.44916 l 0,-8.94457 z m -10.6807095,5.46122 -5.3573505,4.64199 c 0.0153913,9.3e-4 0.0298937,0.004 0.0454753,0.004 l 15.0518447,0 c 0.01574,0 0.03039,-0.004 0.04593,-0.004 l -5.35735,-4.64141 -0.531922,0.46448 c -1.0142985,0.88617 -2.3504097,0.88617 -3.3647086,0 l -0.5319222,-0.46506 z"
       style="opacity:1;fill:#fff;fill-opacity:1;stroke:none;stroke-width:0.13229166;stroke-linecap:butt;stroke-linejoin:bevel;stroke-miterlimit:4;stroke-dasharray:none;stroke-dashoffset:0;stroke-opacity:0.87843137" />
  </g>
</svg>
