<?xml version="1.0" encoding="UTF-8" standalone="no"?>
<!-- Created with Inkscape (http://www.inkscape.org/) -->

<svg
   xmlns:dc="http://purl.org/dc/elements/1.1/"
   xmlns:cc="http://creativecommons.org/ns#"
   xmlns:rdf="http://www.w3.org/1999/02/22-rdf-syntax-ns#"
   xmlns:svg="http://www.w3.org/2000/svg"
   xmlns="http://www.w3.org/2000/svg"
   xmlns:sodipodi="http://sodipodi.sourceforge.net/DTD/sodipodi-0.dtd"
   xmlns:inkscape="http://www.inkscape.org/namespaces/inkscape"
   width="64"
   height="64"
   viewBox="0 0 16.933333 16.933334"
   id="svg5050"
   version="1.1"
   inkscape:version="0.91+devel+osxmenu r12911"
   sodipodi:docname="facebook.svg">
  <defs
     id="defs5052" />
  <sodipodi:namedview
     id="base"
     pagecolor="#ffffff"
     bordercolor="#666666"
     borderopacity="1.0"
     inkscape:pageopacity="0.0"
     inkscape:pageshadow="2"
     inkscape:zoom="5.265625"
     inkscape:cx="32"
     inkscape:cy="64"
     inkscape:document-units="px"
     inkscape:current-layer="layer1"
     showgrid="false"
     units="px" />
  <metadata
     id="metadata5055">
    <rdf:RDF>
      <cc:Work
         rdf:about="">
        <dc:format>image/svg+xml</dc:format>
        <dc:type
           rdf:resource="http://purl.org/dc/dcmitype/StillImage" />
        <dc:title></dc:title>
      </cc:Work>
    </rdf:RDF>
  </metadata>
  <g
     inkscape:label="Laag 1"
     inkscape:groupmode="layer"
     id="layer1"
     transform="translate(0,-280.06665)">
    <path
       style="opacity:1;fill:#fff;fill-opacity:1;stroke:none;stroke-width:4;stroke-linecap:butt;stroke-linejoin:bevel;stroke-miterlimit:4;stroke-dasharray:none;stroke-dashoffset:0;stroke-opacity:1"
       d="M 4 0 C 1.7839999 0 0 1.7839999 0 4 L 0 60 C -5.9211895e-16 62.216 1.7839999 64 4 64 L 33.152344 64 L 33.152344 38.863281 L 24.693359 38.863281 L 24.693359 29.068359 L 33.152344 29.068359 L 33.152344 21.84375 C 33.152344 13.459775 38.269688 8.8945312 45.75 8.8945312 C 49.335706 8.8945312 52.411494 9.1598638 53.306641 9.2792969 L 53.306641 18.041016 L 48.125 18.044922 C 44.058013 18.044922 43.265625 19.977993 43.265625 22.814453 L 43.265625 29.068359 L 52.966797 29.068359 L 51.703125 38.863281 L 43.265625 38.863281 L 43.265625 64 L 60 64 C 62.216 64 64 62.216 64 60 L 64 4 C 64 1.7839999 62.216 0 60 0 L 4 0 z "
       transform="matrix(0.26458334,0,0,0.26458334,0,280.06665)"
       id="rect4148" />
  </g>
</svg>
