<?xml version="1.0" encoding="UTF-8" standalone="no"?>
<!-- Created with Inkscape (http://www.inkscape.org/) -->

<svg
   xmlns:dc="http://purl.org/dc/elements/1.1/"
   xmlns:cc="http://creativecommons.org/ns#"
   xmlns:rdf="http://www.w3.org/1999/02/22-rdf-syntax-ns#"
   xmlns:svg="http://www.w3.org/2000/svg"
   xmlns="http://www.w3.org/2000/svg"
   xmlns:sodipodi="http://sodipodi.sourceforge.net/DTD/sodipodi-0.dtd"
   xmlns:inkscape="http://www.inkscape.org/namespaces/inkscape"
   width="64"
   height="128"
   viewBox="0 0 16.933333 33.866668"
   id="svg5050"
   version="1.1"
   inkscape:version="0.91+devel+osxmenu r12911"
   sodipodi:docname="facebook.svg">
  <defs
     id="defs5052" />
  <sodipodi:namedview
     id="base"
     pagecolor="#ffffff"
     bordercolor="#666666"
     borderopacity="1.0"
     inkscape:pageopacity="0.0"
     inkscape:pageshadow="2"
     inkscape:zoom="2.5625"
     inkscape:cx="-0.34474144"
     inkscape:cy="78.829268"
     inkscape:document-units="px"
     inkscape:current-layer="layer1"
     showgrid="false"
     units="px" />
  <metadata
     id="metadata5055">
    <rdf:RDF>
      <cc:Work
         rdf:about="">
        <dc:format>image/svg+xml</dc:format>
        <dc:type
           rdf:resource="http://purl.org/dc/dcmitype/StillImage" />
        <dc:title />
      </cc:Work>
    </rdf:RDF>
  </metadata>
  <g
     inkscape:label="Laag 1"
     inkscape:groupmode="layer"
     id="layer1"
     transform="translate(0,-263.13332)">
    <path
       d="m 11.827933,289.17279 0.334152,-2.59193 -2.5666423,0 0,-1.65473 c 0,-0.75048 0.209296,-1.26187 1.2853533,-1.26187 l 1.371374,-6.4e-4 0,-2.31828 c -0.236841,-0.0316 -1.05077,-0.10205 -1.999488,-0.10205 -1.9791683,0 -3.3331572,1.20814 -3.3331572,3.4264 l 0,1.91121 -2.238361,0 0,2.59193 2.238361,0 0,6.65051 2.6759179,0 0,-6.65051 2.2324903,0"
       style="fill:#6495ed;fill-opacity:1;fill-rule:nonzero;stroke:none;stroke-width:0.03527778"
       id="path5038"
       inkscape:connector-curvature="0" />
    <path
       inkscape:connector-curvature="0"
       id="path7292"
       style="fill:#eda564;fill-opacity:1;fill-rule:nonzero;stroke:none;stroke-width:0.03527778"
       d="m 11.827933,272.23949 0.334152,-2.59193 -2.5666423,0 0,-1.65473 c 0,-0.75048 0.209296,-1.26187 1.2853533,-1.26187 l 1.371374,-6.4e-4 0,-2.31828 c -0.236841,-0.0316 -1.05077,-0.10205 -1.999488,-0.10205 -1.9791683,0 -3.3331572,1.20814 -3.3331572,3.4264 l 0,1.91121 -2.238361,0 0,2.59193 2.238361,0 0,6.65051 2.6759179,0 0,-6.65051 2.2324903,0" />
  </g>
</svg>
