<?xml version="1.0" encoding="UTF-8" standalone="no"?>
<!-- Created with Inkscape (http://www.inkscape.org/) -->

<svg
   xmlns:dc="http://purl.org/dc/elements/1.1/"
   xmlns:cc="http://creativecommons.org/ns#"
   xmlns:rdf="http://www.w3.org/1999/02/22-rdf-syntax-ns#"
   xmlns:svg="http://www.w3.org/2000/svg"
   xmlns="http://www.w3.org/2000/svg"
   xmlns:sodipodi="http://sodipodi.sourceforge.net/DTD/sodipodi-0.dtd"
   xmlns:inkscape="http://www.inkscape.org/namespaces/inkscape"
   width="120"
   height="32"
   viewBox="0 0 31.749999 8.466667"
   id="svg2"
   version="1.1"
   inkscape:version="0.91+devel+osxmenu r12911"
   sodipodi:docname="hackdelft_logo_full.svg">
  <defs
     id="defs4" />
  <sodipodi:namedview
     id="base"
     pagecolor="#ffffff"
     bordercolor="#666666"
     borderopacity="1.0"
     inkscape:pageopacity="0.0"
     inkscape:pageshadow="2"
     inkscape:zoom="1"
     inkscape:cx="60"
     inkscape:cy="16.000104"
     inkscape:document-units="px"
     inkscape:current-layer="layer1"
     showgrid="false"
     units="px"
     showguides="false"
     showborder="true"
     fit-margin-top="0"
     fit-margin-left="0"
     fit-margin-right="0"
     fit-margin-bottom="0">
    <inkscape:grid
       type="xygrid"
       id="grid4163"
       originx="3.1829816e-06"
       originy="-1.8520316" />
  </sodipodi:namedview>
  <metadata
     id="metadata7">
    <rdf:RDF>
      <cc:Work
         rdf:about="">
        <dc:format>image/svg+xml</dc:format>
        <dc:type
           rdf:resource="http://purl.org/dc/dcmitype/StillImage" />
        <dc:title></dc:title>
      </cc:Work>
    </rdf:RDF>
  </metadata>
  <g
     inkscape:label="Laag 1"
     inkscape:groupmode="layer"
     id="layer1"
     transform="translate(3.1829818e-6,-286.68129)">
    <g
       style="font-style:normal;font-weight:normal;font-size:2.11666679px;line-height:125%;font-family:sans-serif;letter-spacing:0px;word-spacing:0px;fill:#6495ed;fill-opacity:1;stroke:none;stroke-width:0.10703924px;stroke-linecap:butt;stroke-linejoin:miter;stroke-opacity:1"
       id="text104757"
       transform="matrix(2.4113959,0,0,2.5337891,-14.488737,-434.49519)">
      <path
         d="m 7.3631105,286.18792 -0.3153833,0 0,-0.64135 -0.7196667,0 0,0.64135 -0.3196167,0 0,-1.5621 0.3196167,0 0,0.60325 0.7154333,0 0,-0.60325 0.3196167,0 0,1.5621 z"
         style="font-style:normal;font-variant:normal;font-weight:normal;font-stretch:normal;font-family:REVOLUTION;-inkscape-font-specification:REVOLUTION;fill:#6495ed;fill-opacity:1;stroke-width:0.10703924px"
         id="path104783"
         inkscape:connector-curvature="0" />
      <path
         d="m 8.9626822,286.19003 -0.3534833,0 -0.1143,-0.2413 -0.5376334,0 -0.1143,0.2413 -0.3513667,0 0.7366001,-1.56633 0.7344833,1.56633 z m -0.61595,-0.56091 -0.1185333,-0.254 -0.12065,0.254 0.2391833,0 z"
         style="font-style:normal;font-variant:normal;font-weight:normal;font-stretch:normal;font-family:REVOLUTION;-inkscape-font-specification:REVOLUTION;fill:#6495ed;fill-opacity:1;stroke-width:0.10703924px"
         id="path104785"
         inkscape:connector-curvature="0" />
      <path
         d="m 10.085309,286.18792 -0.2751663,0 q -0.00423,0 -0.01905,-0.002 -0.014817,-0.002 -0.0254,-0.004 -0.0381,-0.006 -0.074083,-0.0127 -0.035983,-0.006 -0.078317,-0.0233 -0.1418167,-0.0529 -0.2413001,-0.13546 -0.099483,-0.0847 -0.1629833,-0.18415 -0.0635,-0.0995 -0.093133,-0.20744 -0.027517,-0.10795 -0.027517,-0.21166 0,-0.0212 0.00423,-0.0741 0.00423,-0.055 0.014817,-0.10371 0.014817,-0.0593 0.04445,-0.12912 0.03175,-0.0698 0.078317,-0.13547 0.046567,-0.0677 0.10795,-0.127 0.061383,-0.0614 0.1375833,-0.10583 0.10795,-0.0635 0.2074334,-0.0826 0.00423,0 0.01905,-0.004 0.016933,-0.004 0.035983,-0.008 0.021167,-0.006 0.040217,-0.008 0.021167,-0.004 0.033867,-0.004 l 0.27305,0 0,0.3175 -0.2582333,0 q -0.00423,0 -0.0254,0.006 -0.021167,0.004 -0.033867,0.006 -0.0381,0.004 -0.084667,0.0275 -0.04445,0.0212 -0.0889,0.055 -0.04445,0.0339 -0.08255,0.0762 -0.035983,0.0423 -0.055033,0.0868 -0.00423,0.0106 -0.0127,0.0254 -0.00635,0.0127 -0.010583,0.0254 -0.016933,0.0487 -0.021167,0.0826 -0.00423,0.0317 -0.00423,0.072 0,0.0572 0.014817,0.12065 0.014817,0.0614 0.048683,0.11853 0.033867,0.0571 0.086783,0.10795 0.055033,0.0487 0.13335,0.0825 0.00847,0.004 0.027517,0.0106 0.01905,0.006 0.0381,0.0127 0.021167,0.004 0.040217,0.008 0.01905,0.004 0.03175,0.004 l 0.2561163,0 0,0.3175 z"
         style="font-style:normal;font-variant:normal;font-weight:normal;font-stretch:normal;font-family:REVOLUTION;-inkscape-font-specification:REVOLUTION;fill:#6495ed;fill-opacity:1;stroke-width:0.10703924px"
         id="path104787"
         inkscape:connector-curvature="0" />
      <path
         d="m 11.494547,284.62582 -0.706967,0.78316 0.70485,0.77894 -0.429683,0 -0.48895,-0.53975 0,0.53975 -0.319617,0 0,-1.5621 0.319617,0 0,0.54398 0.491066,-0.54398 0.429684,0 z"
         style="font-style:normal;font-variant:normal;font-weight:normal;font-stretch:normal;font-family:REVOLUTION;-inkscape-font-specification:REVOLUTION;fill:#6495ed;fill-opacity:1;stroke-width:0.10703924px"
         id="path104789"
         inkscape:connector-curvature="0" />
    </g>
    <g
       style="font-style:normal;font-weight:normal;font-size:2.11666679px;line-height:125%;font-family:sans-serif;letter-spacing:0px;word-spacing:0px;fill:#6495ed;fill-opacity:1;stroke:none;stroke-width:0.10717499px;stroke-linecap:butt;stroke-linejoin:miter;stroke-opacity:1"
       id="text104767"
       transform="matrix(2.402895,0,0,2.5363151,1.4373415,-441.92343)">
      <path
         d="m 7.3207772,288.05694 q 0,0.10584 -0.033867,0.21802 -0.03175,0.11218 -0.099483,0.21378 -0.067733,0.1016 -0.1735667,0.18415 -0.1037167,0.0826 -0.2497667,0.12912 -0.010583,0.002 -0.033867,0.006 -0.021167,0.006 -0.046567,0.0106 -0.0254,0.006 -0.0508,0.0106 -0.0254,0.004 -0.0381,0.004 l -0.5863167,0 0,-1.56422 0.5863167,0 q 0.01905,0 0.052917,0.008 0.033867,0.006 0.067733,0.0148 0.033867,0.008 0.061383,0.0169 0.027517,0.008 0.035983,0.0106 0.048683,0.0169 0.1037166,0.0487 0.05715,0.0296 0.1100667,0.072 0.055033,0.0423 0.1016,0.0974 0.048683,0.0529 0.08255,0.1143 0.00847,0.0148 0.016933,0.0317 0.010583,0.0169 0.01905,0.036 0.0381,0.091 0.055033,0.16722 0.01905,0.0762 0.01905,0.16933 z m -0.3196167,-0.0127 q 0,-0.0571 -0.01905,-0.11853 -0.016933,-0.0635 -0.055033,-0.12277 -0.035983,-0.0593 -0.093133,-0.10795 -0.05715,-0.0487 -0.13335,-0.0783 -0.00847,-0.002 -0.0254,-0.006 -0.014817,-0.006 -0.033867,-0.0106 -0.01905,-0.004 -0.0381,-0.008 -0.016933,-0.004 -0.029633,-0.004 l -0.2455333,0 0,0.92922 0.2497666,0 q 0.01905,0 0.046567,-0.006 0.027517,-0.006 0.040217,-0.0106 0.09525,-0.0275 0.15875,-0.0762 0.0635,-0.0508 0.1037167,-0.11219 0.040217,-0.0635 0.05715,-0.13123 0.016933,-0.0677 0.016933,-0.13547 z"
         style="font-style:normal;font-variant:normal;font-weight:normal;font-stretch:normal;font-family:REVOLUTION;-inkscape-font-specification:REVOLUTION;fill:#6495ed;fill-opacity:1;stroke-width:0.10717499px"
         id="path104772"
         inkscape:connector-curvature="0" />
      <path
         d="m 8.5954736,288.83376 -1.1070167,0 0,-1.5621 1.1070167,0 0,0.31538 -0.7874,0 0,0.30692 0.3915833,0 0,0.3175 -0.3915833,0 0,0.3048 0.7874,0 0,0.3175 z"
         style="font-style:normal;font-variant:normal;font-weight:normal;font-stretch:normal;font-family:REVOLUTION;-inkscape-font-specification:REVOLUTION;fill:#6495ed;fill-opacity:1;stroke-width:0.10717499px"
         id="path104774"
         inkscape:connector-curvature="0" />
      <path
         d="m 9.8729151,288.83376 -1.1070167,0 0,-1.5621 0.3196167,0 0,1.2446 0.7874,0 0,0.3175 z"
         style="font-style:normal;font-variant:normal;font-weight:normal;font-stretch:normal;font-family:REVOLUTION;-inkscape-font-specification:REVOLUTION;fill:#6495ed;fill-opacity:1;stroke-width:0.10717499px"
         id="path104776"
         inkscape:connector-curvature="0" />
      <path
         d="m 11.150356,287.58704 -0.7874,0 0,0.30692 0.391584,0 0,0.3175 -0.391584,0 0,0.6223 -0.319616,0 0,-1.5621 1.107016,0 0,0.31538 z"
         style="font-style:normal;font-variant:normal;font-weight:normal;font-stretch:normal;font-family:REVOLUTION;-inkscape-font-specification:REVOLUTION;fill:#6495ed;fill-opacity:1;stroke-width:0.10717499px"
         id="path104778"
         inkscape:connector-curvature="0" />
      <path
         d="m 12.615057,287.58704 -0.505883,0 0,1.24672 -0.319617,0 0,-1.2446 -0.510117,0 0,-0.3175 1.335617,0 0,0.31538 z"
         style="font-style:normal;font-variant:normal;font-weight:normal;font-stretch:normal;font-family:REVOLUTION;-inkscape-font-specification:REVOLUTION;fill:#6495ed;fill-opacity:1;stroke-width:0.10717499px"
         id="path104780"
         inkscape:connector-curvature="0" />
    </g>
    <g
       style="font-style:normal;font-weight:normal;font-size:2.11666679px;line-height:125%;font-family:sans-serif;letter-spacing:0px;word-spacing:0px;fill:#eda564;fill-opacity:1;stroke:none;stroke-width:0.10252252px;stroke-linecap:butt;stroke-linejoin:miter;stroke-opacity:1"
       id="text104791"
       transform="matrix(2.7879392,0,0,2.388928,-15.709517,-398.85233)">
      <path
         d="m 5.6554829,290.02505 0.1605415,0 0.064768,-0.23702 -0.1598525,0 0.02136,-0.0799 0.1598525,0 0.081993,-0.30868 0.1026639,0 -0.083371,0.30868 0.1522732,0 0.084749,-0.30868 0.1012859,0 -0.083371,0.30868 0.1598525,0 -0.02136,0.0799 -0.1598525,0 -0.065457,0.23702 0.1605415,0 -0.02136,0.0799 -0.1584744,0 -0.084749,0.30661 -0.1012858,0 0.083371,-0.30661 -0.1536513,0 -0.081993,0.30661 -0.1026638,0 0.083371,-0.30661 -0.1598524,0 0.02067,-0.0799 z m 0.4134115,0 0.065457,-0.23702 -0.1522732,0 -0.06339,0.23702 0.1502062,0 z"
         style="font-style:normal;font-variant:normal;font-weight:normal;font-stretch:normal;font-size:1.41111112px;font-family:REVOLUTION;-inkscape-font-specification:REVOLUTION;fill:#eda564;fill-opacity:1;stroke-width:0.10252252px"
         id="path104796"
         inkscape:connector-curvature="0" />
      <path
         d="m 7.3671497,289.67358 -0.3372556,0 0,0.83114 -0.2130778,0 0,-0.82973 -0.3400777,0 0,-0.21167 0.8904111,0 0,0.21026 z"
         style="font-style:normal;font-variant:normal;font-weight:normal;font-stretch:normal;font-size:1.41111112px;font-family:REVOLUTION;-inkscape-font-specification:REVOLUTION;fill:#eda564;fill-opacity:1;stroke-width:0.10252252px"
         id="path104798"
         inkscape:connector-curvature="0" />
      <path
         d="m 8.2151394,290.50614 -0.2314223,0 -0.1792111,-0.39935 -0.1114778,0 0,0.39793 -0.2130777,0 0,-1.04281 0.3795889,0 q 0.00847,0 0.021167,0.003 0.014111,0.001 0.028222,0.006 0.015522,0.003 0.028222,0.007 0.0127,0.003 0.019755,0.006 0.032456,0.0141 0.062089,0.0325 0.031045,0.0183 0.060678,0.0508 0.033867,0.0367 0.052211,0.0762 0.019756,0.0395 0.026811,0.0776 0.00706,0.0324 0.00706,0.0649 0,0.0691 -0.033867,0.14252 -0.032456,0.0734 -0.1157111,0.12982 l 0.1989667,0.44874 z m -0.2610556,-0.72108 q 0,-0.0282 -0.015522,-0.0579 -0.014111,-0.0296 -0.053622,-0.0466 -0.00706,-0.003 -0.018345,-0.004 -0.00988,-0.003 -0.0127,-0.003 l -0.1608667,0 0,0.22296 0.1608667,0 q 0.00282,0 0.0127,-0.003 0.011289,-0.003 0.018345,-0.006 0.039511,-0.0155 0.053622,-0.0452 0.015522,-0.0296 0.015522,-0.0579 z"
         style="font-style:normal;font-variant:normal;font-weight:normal;font-stretch:normal;font-size:1.41111112px;font-family:REVOLUTION;-inkscape-font-specification:REVOLUTION;fill:#eda564;fill-opacity:1;stroke-width:0.10252252px"
         id="path104800"
         inkscape:connector-curvature="0" />
      <path
         d="m 9.066833,290.50472 -0.7380111,0 0,-1.0414 0.7380111,0 0,0.21026 -0.5249333,0 0,0.20461 0.2610556,0 0,0.21167 -0.2610556,0 0,0.2032 0.5249333,0 0,0.21166 z"
         style="font-style:normal;font-variant:normal;font-weight:normal;font-stretch:normal;font-size:1.41111112px;font-family:REVOLUTION;-inkscape-font-specification:REVOLUTION;fill:#eda564;fill-opacity:1;stroke-width:0.10252252px"
         id="path104802"
         inkscape:connector-curvature="0" />
      <path
         d="m 10.065216,290.50472 -0.2116665,0 -0.4600222,-0.66604 0,0.66604 -0.2130778,0 0,-1.0414 0.2116667,0 0.4600222,0.66605 0,-0.66605 0.2130776,0 0,1.0414 z"
         style="font-style:normal;font-variant:normal;font-weight:normal;font-stretch:normal;font-size:1.41111112px;font-family:REVOLUTION;-inkscape-font-specification:REVOLUTION;fill:#eda564;fill-opacity:1;stroke-width:0.10252252px"
         id="path104804"
         inkscape:connector-curvature="0" />
      <path
         d="m 11.050282,289.98685 q 0,0.0705 -0.02258,0.14534 -0.02117,0.0748 -0.06632,0.14252 -0.04516,0.0677 -0.115711,0.12277 -0.06914,0.055 -0.166511,0.0861 -0.0071,10e-4 -0.02258,0.004 -0.01411,0.004 -0.03105,0.007 -0.01693,0.004 -0.03387,0.007 -0.01693,0.003 -0.0254,0.003 l -0.390878,0 0,-1.04281 0.390878,0 q 0.0127,0 0.03528,0.006 0.02258,0.004 0.04516,0.01 0.02258,0.006 0.04092,0.0113 0.01835,0.006 0.02399,0.007 0.03246,0.0113 0.06915,0.0325 0.0381,0.0198 0.07338,0.048 0.03669,0.0282 0.06773,0.0649 0.03246,0.0353 0.05503,0.0762 0.0056,0.01 0.01129,0.0212 0.0071,0.0113 0.0127,0.024 0.0254,0.0607 0.03669,0.11148 0.0127,0.0508 0.0127,0.11289 z m -0.213078,-0.008 q 0,-0.0381 -0.0127,-0.079 -0.01129,-0.0423 -0.03669,-0.0818 -0.02399,-0.0395 -0.06209,-0.072 -0.0381,-0.0325 -0.0889,-0.0522 -0.0056,-10e-4 -0.01693,-0.004 -0.0099,-0.004 -0.02258,-0.007 -0.0127,-0.003 -0.0254,-0.006 -0.01129,-0.003 -0.01975,-0.003 l -0.163689,0 0,0.61948 0.166511,0 q 0.0127,0 0.03104,-0.004 0.01835,-0.004 0.02681,-0.007 0.0635,-0.0183 0.105834,-0.0508 0.04233,-0.0339 0.06914,-0.0748 0.02681,-0.0423 0.0381,-0.0875 0.01129,-0.0451 0.01129,-0.0903 z"
         style="font-style:normal;font-variant:normal;font-weight:normal;font-stretch:normal;font-size:1.41111112px;font-family:REVOLUTION;-inkscape-font-specification:REVOLUTION;fill:#eda564;fill-opacity:1;stroke-width:0.10252252px"
         id="path104806"
         inkscape:connector-curvature="0" />
      <path
         d="m 12.06518,290.50472 -0.210256,0 0,-0.42756 -0.479778,0 0,0.42756 -0.213077,0 0,-1.0414 0.213077,0 0,0.40217 0.476956,0 0,-0.40217 0.213078,0 0,1.0414 z"
         style="font-style:normal;font-variant:normal;font-weight:normal;font-stretch:normal;font-size:1.41111112px;font-family:REVOLUTION;-inkscape-font-specification:REVOLUTION;fill:#eda564;fill-opacity:1;stroke-width:0.10252252px"
         id="path104808"
         inkscape:connector-curvature="0" />
      <path
         d="m 13.131561,290.50614 -0.235656,0 -0.0762,-0.16087 -0.358422,0 -0.0762,0.16087 -0.234244,0 0.491066,-1.04423 0.489656,1.04423 z m -0.410634,-0.37395 -0.07902,-0.16933 -0.08043,0.16933 0.159455,0 z"
         style="font-style:normal;font-variant:normal;font-weight:normal;font-stretch:normal;font-size:1.41111112px;font-family:REVOLUTION;-inkscape-font-specification:REVOLUTION;fill:#eda564;fill-opacity:1;stroke-width:0.10252252px"
         id="path104810"
         inkscape:connector-curvature="0" />
      <path
         d="m 13.879979,290.50472 -0.183445,0 q -0.0028,0 -0.0127,-0.001 -0.0099,-10e-4 -0.01693,-0.003 -0.0254,-0.004 -0.04939,-0.008 -0.02399,-0.004 -0.05221,-0.0155 -0.09455,-0.0353 -0.160867,-0.0903 -0.06632,-0.0564 -0.108655,-0.12277 -0.04233,-0.0663 -0.06209,-0.13828 -0.01835,-0.072 -0.01835,-0.14112 0,-0.0141 0.0028,-0.0494 0.0028,-0.0367 0.0099,-0.0691 0.0099,-0.0395 0.02963,-0.0861 0.02117,-0.0466 0.05221,-0.0903 0.03104,-0.0451 0.07197,-0.0847 0.04092,-0.0409 0.09172,-0.0706 0.07197,-0.0423 0.138288,-0.055 0.0028,0 0.0127,-0.003 0.01129,-0.003 0.02399,-0.006 0.01411,-0.004 0.02681,-0.006 0.01411,-0.003 0.02258,-0.003 l 0.182034,0 0,0.21167 -0.172156,0 q -0.0028,0 -0.01693,0.004 -0.01411,0.003 -0.02258,0.004 -0.0254,0.003 -0.05645,0.0183 -0.02963,0.0141 -0.05927,0.0367 -0.02963,0.0226 -0.05503,0.0508 -0.02399,0.0282 -0.03669,0.0579 -0.0028,0.007 -0.0085,0.0169 -0.0042,0.008 -0.0071,0.0169 -0.01129,0.0325 -0.01411,0.055 -0.0028,0.0212 -0.0028,0.048 0,0.0381 0.0099,0.0804 0.0099,0.0409 0.03246,0.079 0.02258,0.0381 0.05786,0.072 0.03669,0.0324 0.0889,0.055 0.0056,0.003 0.01834,0.007 0.0127,0.004 0.0254,0.008 0.01411,0.003 0.02681,0.006 0.0127,0.003 0.02117,0.003 l 0.170745,0 0,0.21166 z"
         style="font-style:normal;font-variant:normal;font-weight:normal;font-stretch:normal;font-size:1.41111112px;font-family:REVOLUTION;-inkscape-font-specification:REVOLUTION;fill:#eda564;fill-opacity:1;stroke-width:0.10252252px"
         id="path104812"
         inkscape:connector-curvature="0" />
      <path
         d="m 14.81947,289.46332 -0.471311,0.52212 0.4699,0.51928 -0.286456,0 -0.325966,-0.35983 0,0.35983 -0.213078,0 0,-1.0414 0.213078,0 0,0.36266 0.327377,-0.36266 0.286456,0 z"
         style="font-style:normal;font-variant:normal;font-weight:normal;font-stretch:normal;font-size:1.41111112px;font-family:REVOLUTION;-inkscape-font-specification:REVOLUTION;fill:#eda564;fill-opacity:1;stroke-width:0.10252252px"
         id="path104814"
         inkscape:connector-curvature="0" />
      <path
         d="m 15.145459,290.50472 -0.213078,0 0,-1.0414 0.213078,0 0,1.0414 z"
         style="font-style:normal;font-variant:normal;font-weight:normal;font-stretch:normal;font-size:1.41111112px;font-family:REVOLUTION;-inkscape-font-specification:REVOLUTION;fill:#eda564;fill-opacity:1;stroke-width:0.10252252px"
         id="path104816"
         inkscape:connector-curvature="0" />
      <path
         d="m 16.142365,290.50472 -0.211667,0 -0.460022,-0.66604 0,0.66604 -0.213078,0 0,-1.0414 0.211667,0 0.460022,0.66605 0,-0.66605 0.213078,0 0,1.0414 z"
         style="font-style:normal;font-variant:normal;font-weight:normal;font-stretch:normal;font-size:1.41111112px;font-family:REVOLUTION;-inkscape-font-specification:REVOLUTION;fill:#eda564;fill-opacity:1;stroke-width:0.10252252px"
         id="path104818"
         inkscape:connector-curvature="0" />
      <path
         d="m 17.023008,290.50472 -0.289277,0 q -0.0028,0 -0.0127,-0.001 -0.0099,-10e-4 -0.01693,-0.003 -0.0254,-0.004 -0.04939,-0.008 -0.02399,-0.004 -0.05221,-0.0155 -0.09313,-0.0339 -0.159455,-0.0903 -0.06632,-0.0564 -0.110067,-0.12277 -0.04233,-0.0677 -0.06209,-0.1397 -0.01975,-0.0734 -0.01834,-0.13828 0.0014,-0.11854 0.04233,-0.20603 0.04233,-0.0889 0.1016,-0.14957 0.06068,-0.0621 0.127,-0.0988 0.06773,-0.0367 0.121356,-0.0508 0.01129,-0.003 0.0254,-0.006 0.01552,-0.004 0.02822,-0.007 0.0099,-10e-4 0.02681,-0.003 0.01693,-0.003 0.01976,-0.003 l 0.06632,0 0,0.21167 -0.06491,0 q -0.0254,0.003 -0.0381,0.007 -0.01129,0.004 -0.01693,0.004 -0.0254,0.006 -0.05362,0.0197 -0.02681,0.0141 -0.05221,0.0339 -0.0254,0.0198 -0.04798,0.0452 -0.02117,0.024 -0.03387,0.0508 -0.0028,0.003 -0.0056,0.008 -0.0014,0.004 -0.0042,0.01 -0.01552,0.0423 -0.02258,0.0677 -0.0056,0.024 -0.0056,0.0621 0,0.0395 0.0099,0.0818 0.01129,0.0423 0.03387,0.0818 0.02258,0.0381 0.05927,0.072 0.03669,0.0324 0.09031,0.0536 0.0042,0.001 0.01411,0.006 0.01129,0.003 0.02399,0.007 0.0127,0.003 0.02399,0.006 0.0127,0.003 0.01975,0.003 l 0.06914,0 0,-0.20179 -0.119945,0 0,-0.21167 0.333022,0 0,0.62512 z"
         style="font-style:normal;font-variant:normal;font-weight:normal;font-stretch:normal;font-size:1.41111112px;font-family:REVOLUTION;-inkscape-font-specification:REVOLUTION;fill:#eda564;fill-opacity:1;stroke-width:0.10252252px"
         id="path104820"
         inkscape:connector-curvature="0" />
    </g>
  </g>
</svg>
