<?xml version="1.0" encoding="UTF-8" standalone="no"?>
<!-- Created with Inkscape (http://www.inkscape.org/) -->

<svg
   xmlns:dc="http://purl.org/dc/elements/1.1/"
   xmlns:cc="http://creativecommons.org/ns#"
   xmlns:rdf="http://www.w3.org/1999/02/22-rdf-syntax-ns#"
   xmlns:svg="http://www.w3.org/2000/svg"
   xmlns="http://www.w3.org/2000/svg"
   xmlns:sodipodi="http://sodipodi.sourceforge.net/DTD/sodipodi-0.dtd"
   xmlns:inkscape="http://www.inkscape.org/namespaces/inkscape"
   width="120"
   height="15"
   viewBox="0 0 31.749999 3.9687499"
   id="svg2"
   version="1.1"
   inkscape:version="0.91+devel+osxmenu r12911"
   sodipodi:docname="hackdelft_logo.svg">
  <defs
     id="defs4" />
  <sodipodi:namedview
     id="base"
     pagecolor="#ffffff"
     bordercolor="#666666"
     borderopacity="1.0"
     inkscape:pageopacity="0.0"
     inkscape:pageshadow="2"
     inkscape:zoom="1"
     inkscape:cx="59.999989"
     inkscape:cy="-1.0000593"
     inkscape:document-units="px"
     inkscape:current-layer="layer1"
     showgrid="false"
     units="px"
     showguides="false"
     showborder="true"
     fit-margin-top="0"
     fit-margin-left="0"
     fit-margin-right="0"
     fit-margin-bottom="0">
    <inkscape:grid
       type="xygrid"
       id="grid4163"
       originx="2.5529937e-07"
       originy="-6.3499912" />
  </sodipodi:namedview>
  <metadata
     id="metadata7">
    <rdf:RDF>
      <cc:Work
         rdf:about="">
        <dc:format>image/svg+xml</dc:format>
        <dc:type
           rdf:resource="http://purl.org/dc/dcmitype/StillImage" />
        <dc:title></dc:title>
      </cc:Work>
    </rdf:RDF>
  </metadata>
  <g
     inkscape:label="Laag 1"
     inkscape:groupmode="layer"
     id="layer1"
     transform="translate(2.5529958e-7,-286.68125)">
    <g
       style="font-style:normal;font-weight:normal;font-size:2.11666679px;line-height:125%;font-family:sans-serif;letter-spacing:0px;word-spacing:0px;fill:#6495ed;fill-opacity:1;stroke:none;stroke-width:0.10703924px;stroke-linecap:butt;stroke-linejoin:miter;stroke-opacity:1"
       id="text104757"
       transform="matrix(2.4113959,0,0,2.5337891,-14.488737,-434.49519)">
      <path
         d="m 7.3631105,286.18792 -0.3153833,0 0,-0.64135 -0.7196667,0 0,0.64135 -0.3196167,0 0,-1.5621 0.3196167,0 0,0.60325 0.7154333,0 0,-0.60325 0.3196167,0 0,1.5621 z"
         style="font-style:normal;font-variant:normal;font-weight:normal;font-stretch:normal;font-family:REVOLUTION;-inkscape-font-specification:REVOLUTION;fill:#6495ed;fill-opacity:1;stroke-width:0.10703924px"
         id="path104783"
         inkscape:connector-curvature="0" />
      <path
         d="m 8.9626822,286.19003 -0.3534833,0 -0.1143,-0.2413 -0.5376334,0 -0.1143,0.2413 -0.3513667,0 0.7366001,-1.56633 0.7344833,1.56633 z m -0.61595,-0.56091 -0.1185333,-0.254 -0.12065,0.254 0.2391833,0 z"
         style="font-style:normal;font-variant:normal;font-weight:normal;font-stretch:normal;font-family:REVOLUTION;-inkscape-font-specification:REVOLUTION;fill:#6495ed;fill-opacity:1;stroke-width:0.10703924px"
         id="path104785"
         inkscape:connector-curvature="0" />
      <path
         d="m 10.085309,286.18792 -0.2751663,0 q -0.00423,0 -0.01905,-0.002 -0.014817,-0.002 -0.0254,-0.004 -0.0381,-0.006 -0.074083,-0.0127 -0.035983,-0.006 -0.078317,-0.0233 -0.1418167,-0.0529 -0.2413001,-0.13546 -0.099483,-0.0847 -0.1629833,-0.18415 -0.0635,-0.0995 -0.093133,-0.20744 -0.027517,-0.10795 -0.027517,-0.21166 0,-0.0212 0.00423,-0.0741 0.00423,-0.055 0.014817,-0.10371 0.014817,-0.0593 0.04445,-0.12912 0.03175,-0.0698 0.078317,-0.13547 0.046567,-0.0677 0.10795,-0.127 0.061383,-0.0614 0.1375833,-0.10583 0.10795,-0.0635 0.2074334,-0.0826 0.00423,0 0.01905,-0.004 0.016933,-0.004 0.035983,-0.008 0.021167,-0.006 0.040217,-0.008 0.021167,-0.004 0.033867,-0.004 l 0.27305,0 0,0.3175 -0.2582333,0 q -0.00423,0 -0.0254,0.006 -0.021167,0.004 -0.033867,0.006 -0.0381,0.004 -0.084667,0.0275 -0.04445,0.0212 -0.0889,0.055 -0.04445,0.0339 -0.08255,0.0762 -0.035983,0.0423 -0.055033,0.0868 -0.00423,0.0106 -0.0127,0.0254 -0.00635,0.0127 -0.010583,0.0254 -0.016933,0.0487 -0.021167,0.0826 -0.00423,0.0317 -0.00423,0.072 0,0.0572 0.014817,0.12065 0.014817,0.0614 0.048683,0.11853 0.033867,0.0571 0.086783,0.10795 0.055033,0.0487 0.13335,0.0825 0.00847,0.004 0.027517,0.0106 0.01905,0.006 0.0381,0.0127 0.021167,0.004 0.040217,0.008 0.01905,0.004 0.03175,0.004 l 0.2561163,0 0,0.3175 z"
         style="font-style:normal;font-variant:normal;font-weight:normal;font-stretch:normal;font-family:REVOLUTION;-inkscape-font-specification:REVOLUTION;fill:#6495ed;fill-opacity:1;stroke-width:0.10703924px"
         id="path104787"
         inkscape:connector-curvature="0" />
      <path
         d="m 11.494547,284.62582 -0.706967,0.78316 0.70485,0.77894 -0.429683,0 -0.48895,-0.53975 0,0.53975 -0.319617,0 0,-1.5621 0.319617,0 0,0.54398 0.491066,-0.54398 0.429684,0 z"
         style="font-style:normal;font-variant:normal;font-weight:normal;font-stretch:normal;font-family:REVOLUTION;-inkscape-font-specification:REVOLUTION;fill:#6495ed;fill-opacity:1;stroke-width:0.10703924px"
         id="path104789"
         inkscape:connector-curvature="0" />
    </g>
    <g
       style="font-style:normal;font-weight:normal;font-size:2.11666679px;line-height:125%;font-family:sans-serif;letter-spacing:0px;word-spacing:0px;fill:#6495ed;fill-opacity:1;stroke:none;stroke-width:0.10717499px;stroke-linecap:butt;stroke-linejoin:miter;stroke-opacity:1"
       id="text104767"
       transform="matrix(2.402895,0,0,2.5363151,1.4373415,-441.92343)">
      <path
         d="m 7.3207772,288.05694 q 0,0.10584 -0.033867,0.21802 -0.03175,0.11218 -0.099483,0.21378 -0.067733,0.1016 -0.1735667,0.18415 -0.1037167,0.0826 -0.2497667,0.12912 -0.010583,0.002 -0.033867,0.006 -0.021167,0.006 -0.046567,0.0106 -0.0254,0.006 -0.0508,0.0106 -0.0254,0.004 -0.0381,0.004 l -0.5863167,0 0,-1.56422 0.5863167,0 q 0.01905,0 0.052917,0.008 0.033867,0.006 0.067733,0.0148 0.033867,0.008 0.061383,0.0169 0.027517,0.008 0.035983,0.0106 0.048683,0.0169 0.1037166,0.0487 0.05715,0.0296 0.1100667,0.072 0.055033,0.0423 0.1016,0.0974 0.048683,0.0529 0.08255,0.1143 0.00847,0.0148 0.016933,0.0317 0.010583,0.0169 0.01905,0.036 0.0381,0.091 0.055033,0.16722 0.01905,0.0762 0.01905,0.16933 z m -0.3196167,-0.0127 q 0,-0.0571 -0.01905,-0.11853 -0.016933,-0.0635 -0.055033,-0.12277 -0.035983,-0.0593 -0.093133,-0.10795 -0.05715,-0.0487 -0.13335,-0.0783 -0.00847,-0.002 -0.0254,-0.006 -0.014817,-0.006 -0.033867,-0.0106 -0.01905,-0.004 -0.0381,-0.008 -0.016933,-0.004 -0.029633,-0.004 l -0.2455333,0 0,0.92922 0.2497666,0 q 0.01905,0 0.046567,-0.006 0.027517,-0.006 0.040217,-0.0106 0.09525,-0.0275 0.15875,-0.0762 0.0635,-0.0508 0.1037167,-0.11219 0.040217,-0.0635 0.05715,-0.13123 0.016933,-0.0677 0.016933,-0.13547 z"
         style="font-style:normal;font-variant:normal;font-weight:normal;font-stretch:normal;font-family:REVOLUTION;-inkscape-font-specification:REVOLUTION;fill:#6495ed;fill-opacity:1;stroke-width:0.10717499px"
         id="path104772"
         inkscape:connector-curvature="0" />
      <path
         d="m 8.5954736,288.83376 -1.1070167,0 0,-1.5621 1.1070167,0 0,0.31538 -0.7874,0 0,0.30692 0.3915833,0 0,0.3175 -0.3915833,0 0,0.3048 0.7874,0 0,0.3175 z"
         style="font-style:normal;font-variant:normal;font-weight:normal;font-stretch:normal;font-family:REVOLUTION;-inkscape-font-specification:REVOLUTION;fill:#6495ed;fill-opacity:1;stroke-width:0.10717499px"
         id="path104774"
         inkscape:connector-curvature="0" />
      <path
         d="m 9.8729151,288.83376 -1.1070167,0 0,-1.5621 0.3196167,0 0,1.2446 0.7874,0 0,0.3175 z"
         style="font-style:normal;font-variant:normal;font-weight:normal;font-stretch:normal;font-family:REVOLUTION;-inkscape-font-specification:REVOLUTION;fill:#6495ed;fill-opacity:1;stroke-width:0.10717499px"
         id="path104776"
         inkscape:connector-curvature="0" />
      <path
         d="m 11.150356,287.58704 -0.7874,0 0,0.30692 0.391584,0 0,0.3175 -0.391584,0 0,0.6223 -0.319616,0 0,-1.5621 1.107016,0 0,0.31538 z"
         style="font-style:normal;font-variant:normal;font-weight:normal;font-stretch:normal;font-family:REVOLUTION;-inkscape-font-specification:REVOLUTION;fill:#6495ed;fill-opacity:1;stroke-width:0.10717499px"
         id="path104778"
         inkscape:connector-curvature="0" />
      <path
         d="m 12.615057,287.58704 -0.505883,0 0,1.24672 -0.319617,0 0,-1.2446 -0.510117,0 0,-0.3175 1.335617,0 0,0.31538 z"
         style="font-style:normal;font-variant:normal;font-weight:normal;font-stretch:normal;font-family:REVOLUTION;-inkscape-font-specification:REVOLUTION;fill:#6495ed;fill-opacity:1;stroke-width:0.10717499px"
         id="path104780"
         inkscape:connector-curvature="0" />
    </g>
  </g>
</svg>
