<?xml version="1.0" encoding="UTF-8" standalone="no"?>
<!-- Created with Inkscape (http://www.inkscape.org/) -->

<svg
   xmlns:dc="http://purl.org/dc/elements/1.1/"
   xmlns:cc="http://creativecommons.org/ns#"
   xmlns:rdf="http://www.w3.org/1999/02/22-rdf-syntax-ns#"
   xmlns:svg="http://www.w3.org/2000/svg"
   xmlns="http://www.w3.org/2000/svg"
   xmlns:sodipodi="http://sodipodi.sourceforge.net/DTD/sodipodi-0.dtd"
   xmlns:inkscape="http://www.inkscape.org/namespaces/inkscape"
   width="64"
   height="128"
   viewBox="0 0 16.933333 33.866668"
   id="svg5050"
   version="1.1"
   inkscape:version="0.91+devel+osxmenu r12911"
   sodipodi:docname="linkedin.svg">
  <defs
     id="defs5052" />
  <sodipodi:namedview
     id="base"
     pagecolor="#ffffff"
     bordercolor="#666666"
     borderopacity="1.0"
     inkscape:pageopacity="0.0"
     inkscape:pageshadow="2"
     inkscape:zoom="5.265625"
     inkscape:cx="32"
     inkscape:cy="64"
     inkscape:document-units="px"
     inkscape:current-layer="layer1"
     showgrid="false"
     units="px" />
  <metadata
     id="metadata5055">
    <rdf:RDF>
      <cc:Work
         rdf:about="">
        <dc:format>image/svg+xml</dc:format>
        <dc:type
           rdf:resource="http://purl.org/dc/dcmitype/StillImage" />
        <dc:title />
      </cc:Work>
    </rdf:RDF>
  </metadata>
  <g
     inkscape:label="Laag 1"
     inkscape:groupmode="layer"
     id="layer1"
     transform="translate(0,-263.13332)">
    <g
       id="g5250"
       style="fill:#6495ed;fill-opacity:1">
      <path
         d="m 2.8973383,286.60348 2.3891987,0 0,7.6753 -2.3891987,0 0,-7.6753 z m 1.1953849,-3.81563 c 0.7637431,0 1.3832322,0.62018 1.3832322,1.38281 0,0.76353 -0.6194891,1.38348 -1.3832322,1.38348 -0.766441,0 -1.3845799,-0.61995 -1.3845799,-1.38348 0,-0.76263 0.6181389,-1.38281 1.3845799,-1.38281"
         style="fill:#6495ed;fill-opacity:1;fill-rule:nonzero;stroke:none;stroke-width:0.03527778"
         id="path4305"
         inkscape:connector-curvature="0" />
      <path
         d="m 6.7843626,286.60348 2.288086,0 0,1.0489 0.032357,0 c 0.3181707,-0.60377 1.0974174,-1.23967 2.2586494,-1.23967 2.415038,0 2.861735,1.58885 2.861735,3.65609 l 0,4.20998 -2.384705,0 0,-3.73159 c 0,-0.89093 -0.01752,-2.036 -1.24055,-2.036 -1.2423465,0 -1.4315416,0.96957 -1.4315416,1.97016 l 0,3.79743 -2.3840302,0 0,-7.6753"
         style="fill:#6495ed;fill-opacity:1;fill-rule:nonzero;stroke:none;stroke-width:0.03527778"
         id="path4307"
         inkscape:connector-curvature="0" />
    </g>
    <g
       id="g5254"
       style="fill:#eda564;fill-opacity:1">
      <path
         inkscape:connector-curvature="0"
         id="path5042"
         style="fill:#eda564;fill-opacity:1;fill-rule:nonzero;stroke:none;stroke-width:0.03527778"
         d="m 2.8973383,269.67015 2.3891987,0 0,7.6753 -2.3891987,0 0,-7.6753 z m 1.1953849,-3.81563 c 0.7637431,0 1.3832322,0.62017 1.3832322,1.3828 0,0.76353 -0.6194891,1.38348 -1.3832322,1.38348 -0.766441,0 -1.3845799,-0.61995 -1.3845799,-1.38348 0,-0.76263 0.6181389,-1.3828 1.3845799,-1.3828" />
      <path
         inkscape:connector-curvature="0"
         id="path5044"
         style="fill:#eda564;fill-opacity:1;fill-rule:nonzero;stroke:none;stroke-width:0.03527778"
         d="m 6.7843626,269.67015 2.288086,0 0,1.0489 0.032357,0 c 0.3181707,-0.60377 1.0974174,-1.23967 2.2586494,-1.23967 2.415038,0 2.861735,1.58885 2.861735,3.65609 l 0,4.20998 -2.384705,0 0,-3.73159 c 0,-0.89094 -0.01752,-2.03601 -1.24055,-2.03601 -1.2423465,0 -1.4315416,0.96958 -1.4315416,1.97017 l 0,3.79743 -2.3840302,0 0,-7.6753" />
    </g>
  </g>
</svg>
