<?xml version="1.0" encoding="UTF-8" standalone="no"?>
<!-- Created with Inkscape (http://www.inkscape.org/) -->

<svg
   xmlns:dc="http://purl.org/dc/elements/1.1/"
   xmlns:cc="http://creativecommons.org/ns#"
   xmlns:rdf="http://www.w3.org/1999/02/22-rdf-syntax-ns#"
   xmlns:svg="http://www.w3.org/2000/svg"
   xmlns="http://www.w3.org/2000/svg"
   xmlns:sodipodi="http://sodipodi.sourceforge.net/DTD/sodipodi-0.dtd"
   xmlns:inkscape="http://www.inkscape.org/namespaces/inkscape"
   width="128"
   height="256"
   viewBox="0 0 33.866666 67.733335"
   id="svg2"
   version="1.1"
   inkscape:version="0.91+devel+osxmenu r12911"
   sodipodi:docname="mannetje.svg">
  <defs
     id="defs4" />
  <sodipodi:namedview
     id="base"
     pagecolor="#ffffff"
     bordercolor="#666666"
     borderopacity="1.0"
     inkscape:pageopacity="0.0"
     inkscape:pageshadow="2"
     inkscape:zoom="0.65820313"
     inkscape:cx="112.35989"
     inkscape:cy="29.786153"
     inkscape:document-units="px"
     inkscape:current-layer="layer1"
     showgrid="false"
     units="px" />
  <metadata
     id="metadata7">
    <rdf:RDF>
      <cc:Work
         rdf:about="">
        <dc:format>image/svg+xml</dc:format>
        <dc:type
           rdf:resource="http://purl.org/dc/dcmitype/StillImage" />
        <dc:title></dc:title>
      </cc:Work>
    </rdf:RDF>
  </metadata>
  <g
     inkscape:label="Laag 1"
     inkscape:groupmode="layer"
     id="layer1"
     transform="translate(0,-229.26665)">
    <g
       id="g4229"
       transform="matrix(5.2237384,0,0,5.2237384,-9.1979533,-1207.6139)"
       style="stroke-width:0.19143379">
      <path
         style="fill:#ebf1fd;fill-opacity:1;stroke-width:0.19143379"
         d="m 7.5264902,278.38292 c -0.05683,0.17038 -0.1972613,0.29287 -0.5222203,0.45552 -0.08437,0.0422 -0.178879,0.0982 -0.210009,0.12441 -0.08043,0.0677 -0.135959,0.19501 -0.149833,0.34359 -0.01154,0.12363 -0.0094,0.13216 0.06098,0.24624 0.09895,0.16031 0.108752,0.20705 0.125172,0.59686 0.0078,0.18597 0.02986,0.42352 0.04894,0.5279 0.02977,0.16283 0.0314,0.20947 0.01151,0.32846 -0.04489,0.26851 -0.06387,0.35197 -0.09747,0.42851 -0.03754,0.0855 -0.19728,0.23909 -0.341684,0.32847 -0.07748,0.048 -0.09657,0.0713 -0.11057,0.13525 -0.02963,0.13539 -0.03733,0.64636 -0.01181,0.78375 0.02906,0.15639 7.42e-4,0.27116 -0.126354,0.51214 -0.08676,0.16451 -0.166198,0.35276 -0.199177,0.47202 -0.01028,0.0372 -0.04888,0.14588 -0.08576,0.24152 -0.06439,0.16697 -0.09028,0.26828 -0.160474,0.62795 -0.01763,0.0903 -0.04821,0.23032 -0.06795,0.31109 -0.02885,0.11802 -0.03272,0.17521 -0.01971,0.29125 0.0089,0.0794 0.01178,0.2287 0.0064,0.33176 -0.01077,0.20586 0.03099,0.54941 0.09321,0.76686 0.01987,0.0694 0.06905,0.1748 0.109292,0.23413 0.04024,0.0593 0.114483,0.16926 0.164984,0.2443 0.0505,0.075 0.103282,0.18122 0.117292,0.23596 0.01401,0.0548 0.1261126,0.20955 0.1074582,0.60633 -0.020014,0.42571 -0.5517811,0.42911 -0.8563987,0.45516 -0.2463879,0.0211 -0.9620984,0.002 -1.3955997,0.0179 -0.1505131,0.005 -0.8264335,0.0408 -0.9795797,-0.27653 -0.024526,-0.0508 -0.03366,-0.11052 -0.03043,-0.70277 0.0054,-0.98683 -0.04472,-1.67828 -0.156777,-2.16382 -0.0435,-0.1885 -0.141185,-0.5322 -0.284405,-1.0007 -0.04254,-0.13916 -0.108988,-0.38924 -0.147664,-0.55574 -0.03868,-0.1665 -0.07984,-0.32652 -0.09148,-0.35562 -0.01164,-0.0291 -0.02513,-0.16157 -0.02997,-0.29441 -0.0099,-0.2716 0.01133,-0.36191 0.138583,-0.58946 0.06607,-0.11815 0.544531,-0.65055 0.662971,-0.73772 0.03542,-0.0261 0.06215,-0.0668 0.06967,-0.10626 0.01825,-0.0957 0.211882,-0.48507 0.313605,-0.63058 0.0491,-0.0702 0.10221,-0.17146 0.118028,-0.22494 0.03298,-0.11151 0.199519,-0.43181 0.276592,-0.53198 0.02862,-0.0372 0.06979,-0.1024 0.09149,-0.14491 0.0217,-0.0425 0.151808,-0.19813 0.289128,-0.34584 0.259264,-0.27888 0.274379,-0.30131 0.417976,-0.62023 0.08239,-0.18299 0.08796,-0.20651 0.1052303,-0.44439 l 0.01823,-0.25118 -0.2665563,-0.55066 c -0.39831,-0.82285 -0.482397,-1.03153 -0.482397,-1.19721 0,-0.12978 0.03733,-0.24516 0.169032,-0.52241 0.0864,-0.18189 0.117122,-0.2242 0.296965,-0.40909 0.2219573,-0.22817 0.2587883,-0.24692 0.5628113,-0.28641 0.239881,-0.0312 1.200423,-0.0241 1.357401,0.01 0.07438,0.0162 0.176612,0.0377 0.227174,0.0478 0.267014,0.0537 0.665929,0.3216 0.8103623,0.54425 0.03214,0.0496 0.07497,0.0944 0.09518,0.0997 0.07457,0.0195 0.0958,0.12729 0.09318,0.47308 -0.0013,0.17739 0.0031,0.33641 0.0099,0.35338 0.0068,0.017 -0.0015,0.0691 -0.01849,0.11593 -0.02125,0.0587 -0.03043,0.14804 -0.02958,0.28796 -0.022451,0.21227 0.039293,0.46245 0.087654,0.50856 -0.00161,0.0403 -0.089888,0.0904 -0.1038964,0.12439 -0.03885,0.0942 -0.032736,0.11582 0.022549,0.17435 0.034191,0.0362 -0.084455,0.074 -0.087879,0.11257 -0.00333,0.0375 0.1095569,0.0758 0.073979,0.10757 -0.069877,0.0624 -0.038471,0.19675 -0.088802,0.33599 z m -0.6855668,-3.06373 c -0.0066,-0.0106 -0.02064,-0.0193 -0.03126,-0.0193 -0.01063,0 -0.01395,0.009 -0.0074,0.0193 0.0066,0.0106 0.02064,0.0193 0.03126,0.0193 0.01063,0 0.01395,-0.009 0.0074,-0.0193 z"
         id="path4243"
         inkscape:connector-curvature="0"
         sodipodi:nodetypes="sccccccccccccccccccccccssssccscsccccccccscccssccccccccccccsssscscsccc" />
      <path
         style="fill:#a7c3f5;fill-opacity:1;stroke-width:0.19143379"
         d="m 4.3001491,288.00064 c -0.047821,-0.004 -0.2608399,-0.0194 -0.4733762,-0.035 -0.3584387,-0.0263 -0.6335303,-0.0641 -0.6814982,-0.0938 -0.011039,-0.007 -0.043627,-0.0526 -0.072415,-0.10172 l -0.052341,-0.0893 0.014,-0.45651 c 0.017081,-0.55696 0.015932,-0.68194 -0.010683,-1.16174 -0.039414,-0.71054 -0.063969,-0.87573 -0.21971,-1.47809 -0.066584,-0.25753 -0.1323857,-0.48073 -0.2363928,-0.80184 -0.025816,-0.0797 -0.068521,-0.25795 -0.094904,-0.39609 -0.026381,-0.13815 -0.061432,-0.3077 -0.077888,-0.37677 -0.058271,-0.24459 -0.063906,-0.28169 -0.064739,-0.42615 -9.984e-4,-0.17303 0.045493,-0.32759 0.1502385,-0.49949 0.07568,-0.1242 0.5064711,-0.60843 0.6147633,-0.69103 0.042595,-0.0325 0.071974,-0.0766 0.086093,-0.12927 0.034534,-0.12881 0.2016808,-0.46771 0.3066201,-0.6217 0.053336,-0.0783 0.1185507,-0.19963 0.1449208,-0.26968 0.054408,-0.14455 0.2060547,-0.43034 0.2697258,-0.50832 0.02338,-0.0286 0.065768,-0.0925 0.094194,-0.142 0.028426,-0.0495 0.1609731,-0.21024 0.294548,-0.35727 0.2469337,-0.27182 0.271447,-0.30995 0.4205499,-0.65412 0.047844,-0.11044 0.073973,-0.20974 0.091513,-0.34779 0.013504,-0.10626 0.031392,-0.20099 0.039755,-0.21049 0.017067,-0.0194 0.1745978,0.0527 0.3075369,0.14071 0.1226807,0.0812 0.4512845,0.19666 0.5856569,0.2057 0.1026313,0.007 0.3376785,0.0836 0.3930362,0.12822 0.048106,0.0388 0.2267584,0.0912 0.3882532,0.11398 0.219971,0.031 0.3455199,-8.6e-4 0.4593772,-0.11632 0.042062,-0.0427 0.090628,-0.0777 0.1079239,-0.0779 0.017295,-1.7e-4 0.04227,-0.0134 0.0555,-0.0293 0.01323,-0.0159 0.049644,-0.029 0.080922,-0.029 0.06402,0 0.1335891,-0.0313 0.1567261,-0.0704 0.02083,-0.0353 0.07149,-0.0333 0.07149,0.003 0,0.0159 -0.03051,0.0627 -0.06781,0.10398 -0.052066,0.0576 -0.1272022,0.10099 -0.3236345,0.18677 -0.1407041,0.0614 -0.2797109,0.13363 -0.3089039,0.16042 -0.082878,0.0761 -0.136114,0.2376 -0.1382811,0.41962 -0.00177,0.14893 0.00151,0.1613 0.073788,0.27858 0.095665,0.15522 0.1070211,0.20929 0.1258596,0.59928 0.00847,0.17534 0.030909,0.4042 0.049866,0.50858 0.036156,0.19909 0.036086,0.20031 -0.033261,0.57342 -0.039728,0.21375 -0.1592044,0.37009 -0.3609583,0.47233 -0.1140604,0.0578 -0.1143493,0.0582 -0.1503674,0.21024 -0.021634,0.0913 -0.026811,0.2234 -0.02209,0.56367 l 0.00616,0.44439 -0.1102896,0.2222 c -0.1273306,0.25652 -0.1644164,0.34304 -0.1987803,0.46371 -0.013618,0.0478 -0.054859,0.1652 -0.091647,0.26084 -0.068252,0.17744 -0.095007,0.28187 -0.1683116,0.65693 -0.022846,0.1169 -0.053947,0.25615 -0.069111,0.30945 -0.015164,0.0533 -0.026757,0.16633 -0.025764,0.25118 9.984e-4,0.0848 -0.00931,0.22382 -0.022889,0.30884 -0.03257,0.20385 -0.03354,0.62693 -0.00177,0.77286 0.069348,0.31853 0.1311565,0.43082 0.1090096,0.19804 l -0.01149,-0.12076 0.044342,0.0752 c 0.02439,0.0414 0.087045,0.13268 0.1392373,0.20288 0.2113656,0.28429 0.2644544,0.40102 0.3005838,0.66094 0.00828,0.0595 0.025653,0.14037 0.038619,0.17966 0.021951,0.0665 0.020231,0.0745 -0.024974,0.11642 -0.059245,0.0549 -0.094686,0.17099 -0.071126,0.23295 0.019069,0.0501 0.00889,0.068 -0.038834,0.068 -0.017889,0 -0.069074,0.0265 -0.113746,0.0588 -0.044672,0.0324 -0.1038197,0.0674 -0.1314389,0.0779 -0.1242407,0.0472 -1.1901785,0.0901 -1.5513911,0.0623 z m 0.3651934,-7.97396 c 0.02688,-0.0286 0.035754,-0.051 0.023257,-0.0587 -0.026566,-0.0164 -0.1294286,0.0374 -0.1439836,0.0753 -0.018616,0.0485 0.071159,0.0362 0.1207266,-0.0166 z m 2.8528092,-2.52095 c -0.095215,0.0774 -0.11159,0.0994 -0.2631686,0.0534 -0.1498959,-0.0455 -0.1786248,-0.078 -0.1203959,-0.13627 0.036344,-0.0364 0.1199746,-0.0498 0.2078532,-0.0333 0.02894,0.005 0.048138,-0.0144 0.081928,-0.0847 0.05141,-0.10691 0.1110106,-0.12555 0.151931,-0.0387 0.056518,0.11996 0.063391,0.14081 -0.058148,0.23957 z m -2.732886,0.43412 c -0.032774,-0.0406 -0.423141,-0.83394 -0.5238276,-1.06462 -0.2404263,-0.55084 -0.2424511,-0.58326 -0.062145,-0.99506 0.100022,-0.22844 0.1782098,-0.34138 0.3780824,-0.54614 0.1139001,-0.11668 0.1568577,-0.14723 0.244451,-0.17383 0.1921347,-0.0584 0.451873,-0.0755 1.0240383,-0.0675 0.558674,0.008 0.5505488,0.007 0.8722801,0.0928 0.237228,0.0633 0.6308637,0.34404 0.7505838,0.53533 0.02649,0.0423 0.06562,0.0846 0.08695,0.094 0.0664,0.0292 0.08739,0.13133 0.07499,0.36484 -0.0062,0.11732 -0.02218,0.22985 -0.03559,0.25118 -0.02821,0.0449 -0.1638,0.088 -0.2614596,0.0832 -0.1286656,-0.006 -0.2318577,0.0349 -0.2318577,0.0926 0,0.0144 -0.02391,0.041 -0.053134,0.059 -0.091962,0.0569 -0.1998982,0.16838 -0.2284431,0.23595 -0.023671,0.056 -0.034746,0.0637 -0.079827,0.055 -0.0445,-0.009 -0.069839,0.008 -0.1691043,0.10964 -0.064218,0.0658 -0.1312042,0.1469 -0.1488568,0.18021 -0.034765,0.0656 -0.5347423,0.44985 -0.5853385,0.44985 -0.0041,0 -0.08423,0.0445 -0.1780526,0.0989 -0.093823,0.0544 -0.2053655,0.11136 -0.2478727,0.12663 -0.097731,0.0351 -0.600362,0.0495 -0.625866,0.018 z m 2.1909054,-1.46071 c 0.019235,-0.0213 0.030624,-0.0387 0.025311,-0.0387 -0.00531,0 -0.025397,0.0174 -0.044632,0.0387 -0.019235,0.0213 -0.030624,0.0386 -0.025311,0.0386 0.00531,0 0.025396,-0.0174 0.044632,-0.0386 z m -2.0012003,-0.80012 c 0.029442,-0.0355 -0.00194,-0.0564 -0.08129,-0.0541 -0.07295,0.002 -0.1126136,0.0367 -0.071692,0.0626 0.043013,0.0272 0.127263,0.0225 0.1529825,-0.008 z m 1.9915398,-0.29015 c 0,-0.0963 -0.3459757,-0.207 -0.551036,-0.17624 -0.096715,0.0145 -0.099149,0.0392 -0.00588,0.0597 0.033508,0.007 0.1486126,0.0423 0.255788,0.0776 0.2149253,0.0709 0.3011326,0.082 0.3011326,0.0389 z"
         id="path4241"
         inkscape:connector-curvature="0"
         sodipodi:nodetypes="cccccssscccsscccccscsccccccccsscscccccsssscccccscsccssccsccccsccccccccsccccsscsscccccccccsccccsssccccssscccccccccccc" />
      <path
         style="fill:#6495ed;fill-opacity:1;stroke-width:0.19143379"
         d="m 5.7774249,275.12638 c -0.312211,0.003 -0.646043,0.0125 -0.754476,0.0279 -0.256206,0.0364 -0.329537,0.0772 -0.504362,0.2806 -0.186058,0.2165 -0.4118611,0.67161 -0.4118611,0.83044 0,0.0982 0.165893,0.52216 0.2165251,0.55346 0.0086,0.005 0.0155,0.0255 0.0155,0.045 0,0.0195 0.04646,0.12558 0.103352,0.23565 0.05689,0.11006 0.108966,0.22305 0.115755,0.25115 0.01531,0.0633 0.179255,0.30728 0.280603,0.41754 0.06421,0.0698 0.08686,0.0822 0.151412,0.0822 0.149288,0 0.546737,-0.12844 0.546737,-0.17674 0,-0.012 0.01895,-0.0158 0.04341,-0.01 0.02771,0.007 0.07539,-0.008 0.131258,-0.0414 0.04821,-0.0286 0.117057,-0.0697 0.152962,-0.0909 0.035905,-0.0212 0.09756,-0.0668 0.136943,-0.10128 0.039383,-0.0345 0.081722,-0.063 0.094051,-0.063 0.012329,0 0.027143,-0.0124 0.033073,-0.0279 0.00593,-0.0155 0.040236,-0.0458 0.076481,-0.0672 0.047912,-0.0282 0.066146,-0.0522 0.066146,-0.0884 0,-0.0352 0.016899,-0.06 0.057878,-0.0832 0.031908,-0.0181 0.063246,-0.0481 0.069246,-0.0667 0.006,-0.0186 0.058026,-0.0742 0.1157552,-0.12402 0.057728,-0.0498 0.1049031,-0.10293 0.1049031,-0.11783 0,-0.0149 0.017502,-0.0312 0.038757,-0.0372 0.021254,-0.005 0.038758,-0.0174 0.038758,-0.0264 0,-0.009 0.038384,-0.0598 0.085266,-0.11265 0.046882,-0.0528 0.090285,-0.11229 0.096635,-0.13229 0.00635,-0.02 0.057279,-0.0758 0.1131714,-0.12403 0.055892,-0.0483 0.1400858,-0.13894 0.1870687,-0.20154 0.046983,-0.0626 0.1169402,-0.1487 0.1555461,-0.1912 0.038606,-0.0425 0.084402,-0.10047 0.1018027,-0.12867 0.030474,-0.0494 0.02955,-0.0542 -0.024805,-0.12919 -0.074997,-0.10353 -0.3093709,-0.28127 -0.335897,-0.25477 -0.041831,0.0418 -0.2140053,0.021 -0.3803387,-0.046 -0.1471303,-0.0593 -0.3986192,-0.11328 -0.6557738,-0.14108 -0.04782,-0.005 -0.09436,-0.0168 -0.1038696,-0.0258 -0.023088,-0.0219 0.03881,-0.0333 0.2511473,-0.046 0.1976771,-0.0118 0.2580941,-0.0262 0.2170411,-0.0522 -0.022602,-0.0143 -0.3135908,-0.0191 -0.6258015,-0.0165 z m -0.910539,0.35192 c 0.02671,-0.005 0.05815,-0.003 0.114205,0.004 0.06651,0.007 0.194926,0.0305 0.285254,0.0517 0.09033,0.0212 0.242323,0.0565 0.337964,0.078 0.3475642,0.0783 0.4154787,0.10373 0.4154787,0.15814 0,0.0314 -0.1471247,0.0993 -0.2961057,0.13642 -0.08357,0.021 -0.127025,0.0227 -0.170016,0.008 -0.03262,-0.011 -0.101625,-0.0137 -0.15813,-0.007 l 0,-5.1e-4 c -0.05511,0.007 -0.130754,0.0172 -0.167948,0.0222 -0.03719,0.005 -0.0807,4.6e-4 -0.09664,-0.0103 -0.01594,-0.011 -0.04881,-0.02 -0.07338,-0.0202 -0.02457,-2e-4 -0.08557,-0.0128 -0.135392,-0.0284 -0.04982,-0.0156 -0.141604,-0.0426 -0.203606,-0.0599 -0.106643,-0.0298 -0.111633,-0.0343 -0.09974,-0.0817 0.01849,-0.0737 0.07489,-0.14437 0.163298,-0.20567 0.03626,-0.0254 0.05804,-0.039 0.08475,-0.0444 z m 2.0401861,0.17574 c 0.019111,0.005 0.025784,0.0182 0.037724,0.0444 0.013323,0.0292 0.031201,0.0909 0.039791,0.13694 0.014413,0.0771 0.011714,0.086 -0.03514,0.11679 -0.095161,0.0626 -0.1276811,0.0814 -0.1953369,0.11111 -0.037194,0.0163 -0.087869,0.0532 -0.1126548,0.0822 l -0.045475,0.0527 0.014986,-0.0481 c 0.025506,-0.0841 0.011479,-0.18718 -0.038757,-0.28629 l -0.048576,-0.0961 0.07183,-0.0475 c 0.048332,-0.032 0.1135126,-0.0525 0.1984375,-0.0615 0.062357,-0.007 0.09406,-0.01 0.1131716,-0.005 z m 0.5761922,1.67953 c -0.013284,0.004 -0.027059,0.0268 -0.030489,0.0501 -0.00343,0.0234 -0.029426,0.0571 -0.057878,0.0749 -0.02845,0.0178 -0.054675,0.0337 -0.058394,0.0367 -0.00372,0.003 -8.088e-4,0.014 0.0062,0.0253 0.024298,0.0393 0.067007,0.02 0.1157552,-0.0517 0.051991,-0.0765 0.065222,-0.14869 0.024805,-0.13539 z m -2.4897703,1.00046 c -0.09811,0 -0.16178,0.0642 -0.189136,0.19172 -0.0109,0.0508 -0.0714,0.20211 -0.134875,0.33641 -0.09995,0.21146 -0.150636,0.28825 -0.377238,0.57154 -0.2471101,0.30894 -0.3782721,0.492 -0.3782721,0.5271 0,0.008 0.01699,0.0155 0.03824,0.0155 0.07276,0 0.03965,0.0622 -0.12299,0.22945 -0.08911,0.0916 -0.181864,0.20541 -0.2056719,0.25321 -0.02381,0.0478 -0.07133,0.12635 -0.105937,0.17415 -0.0791,0.10931 -0.266049,0.48124 -0.3059243,0.60875 -0.01655,0.0529 -0.04427,0.13543 -0.0615,0.18294 -0.01893,0.0522 -0.03609,0.1803 -0.04289,0.32401 -0.01162,0.24601 -0.03182,0.28911 -0.07493,0.15864 -0.01187,-0.036 -0.03022,-0.0678 -0.04082,-0.0718 -0.01061,-0.004 -0.04326,0.0439 -0.07235,0.10542 -0.04442,0.0938 -0.05164,0.1305 -0.04444,0.2279 0.0054,0.0725 -0.0019,0.14878 -0.01964,0.20308 -0.02894,0.0884 -0.128275,0.21239 -0.170015,0.21239 -0.03778,0 -0.08527,0.0904 -0.08527,0.16227 0,0.0895 0.02988,0.10362 0.06718,0.0315 0.03115,-0.0603 0.05658,-0.0732 0.07752,-0.0393 0.02161,0.035 0.04927,0.0205 0.0894,-0.0476 l 0.03979,-0.0672 0.06098,0.0429 c 0.03368,0.0235 0.06798,0.0539 0.07648,0.0672 0.0085,0.0133 0.04151,0.037 0.07286,0.0532 0.03135,0.0162 0.05684,0.045 0.05684,0.0636 0,0.054 0.05725,0.12151 0.1286743,0.15141 0.03627,0.0151 0.07145,0.0422 0.07803,0.0605 0.0066,0.0183 0.02802,0.0565 0.04754,0.0847 0.01952,0.0282 0.03566,0.0729 0.03566,0.0992 0,0.0522 0.02457,0.0792 0.09147,0.0997 0.03536,0.0109 0.04392,0.006 0.04392,-0.0269 0,-0.0479 0.06138,-0.0528 0.1348749,-0.0109 0.06991,0.0396 0.13074,0.0358 0.145211,-0.01 0.0078,-0.0246 0.02911,-0.0388 0.05891,-0.0388 0.03959,0 0.04851,0.0119 0.05891,0.077 0.01883,0.1177 0.04801,0.14524 0.156063,0.14624 0.05147,8.1e-4 0.110626,0.0115 0.131774,0.0238 l 0,5.1e-4 c 0.02115,0.0123 0.05389,0.0225 0.07286,0.0227 0.04636,8e-4 0.132311,-0.057 0.11834,-0.0796 -0.0061,-0.01 -5.06e-4,-0.031 0.0124,-0.0465 0.02015,-0.0243 0.03004,-0.0212 0.06976,0.0217 0.05502,0.0593 0.08391,0.054 0.121439,-0.0222 0.05101,-0.10354 0.02621,-0.39429 -0.03359,-0.39429 -0.0077,0 -0.02516,0.026 -0.03927,0.0579 -0.02916,0.0659 -0.05279,0.0716 -0.103353,0.0258 -0.03828,-0.0347 -0.04734,-0.0837 -0.0155,-0.0837 0.01085,0 0.03026,-0.0229 0.04289,-0.0506 0.01943,-0.0426 0.01772,-0.054 -0.01085,-0.0749 -0.05343,-0.0391 -0.07716,-0.14745 -0.04031,-0.18345 0.02728,-0.0266 0.03795,-0.0201 0.111104,0.0636 0.04465,0.0511 0.09586,0.0947 0.113689,0.0977 0.01783,0.003 0.04981,0.0203 0.0708,0.0393 0.05478,0.0496 0.146818,0.0647 0.30334,0.0501 0.175422,-0.0164 0.292123,-0.069 0.307992,-0.13849 0.0065,-0.0284 0.03473,-0.0758 0.06304,-0.10594 0.02832,-0.0301 0.05347,-0.0768 0.05581,-0.10335 0.0023,-0.0265 0.0085,-0.0786 0.01395,-0.11576 0.0055,-0.0372 0.01198,-0.13011 0.01395,-0.20671 0.0031,-0.12153 0.0072,-0.13697 0.03411,-0.12247 0.06569,0.0354 0.11693,0.11192 0.157613,0.23616 0.02328,0.071 0.06234,0.14805 0.08682,0.17105 0.03922,0.0368 0.05263,0.0392 0.1105877,0.0202 0.060535,-0.02 0.1493448,-0.11106 0.1493448,-0.15296 0,-0.0312 0.052347,-0.0618 0.084233,-0.0496 0.016966,0.006 0.045771,0.0453 0.064079,0.0868 0.018307,0.0414 0.040019,0.0754 0.048059,0.0754 0.00804,0 0.017704,-0.12349 0.021704,-0.27492 0.00919,-0.34828 0.039442,-0.47328 0.1271238,-0.52658 0.2624852,-0.15948 0.3749562,-0.28589 0.4118613,-0.46199 0.064987,-0.31009 0.071637,-0.41633 0.037207,-0.6103 -0.012262,-0.0691 -0.030298,-0.25607 -0.040308,-0.41548 -0.010009,-0.1594 -0.030851,-0.34078 -0.045992,-0.40307 -0.027966,-0.11498 -0.085193,-0.20005 -0.1028362,-0.15245 -0.016179,0.0437 -0.04062,0.0255 -0.083199,-0.0625 -0.036998,-0.0764 -0.039362,-0.0952 -0.018604,-0.15813 0.029753,-0.0902 0.012384,-0.3691 -0.027905,-0.447 -0.036024,-0.0697 -0.1442569,-0.16581 -0.2392619,-0.21291 -0.039555,-0.0196 -0.1628204,-0.0643 -0.2744018,-0.0987 -0.1115817,-0.0344 -0.2182247,-0.0701 -0.2366787,-0.0801 -0.01845,-0.01 -0.04896,-0.018 -0.0677,-0.0181 -0.01874,-10e-5 -0.0601,-0.014 -0.09198,-0.031 -0.03188,-0.017 -0.139392,-0.0606 -0.239262,-0.0971 -0.09987,-0.0364 -0.207104,-0.0875 -0.238228,-0.11369 -0.03935,-0.0331 -0.07997,-0.0475 -0.133325,-0.0475 z m 0.040824,0.8108 0.09198,5.2e-4 c 0.139144,4.3e-4 0.188103,0.033 0.188103,0.12454 0,0.0645 -0.0067,0.0763 -0.04806,0.0863 -0.07114,0.0164 -0.200416,0.002 -0.217042,-0.0243 -0.0079,-0.0125 -0.01431,-0.0597 -0.01447,-0.1049 l -5.16e-4,-0.0822 z m 0.717269,0.29456 c 0.02211,0.006 0.0355,0.0211 0.05994,0.0501 0.02768,0.0329 0.064459,0.1023 0.081649,0.154 0.026531,0.0799 0.027179,0.1053 0.0062,0.1695 -0.020144,0.0616 -0.043921,0.0861 -0.128158,0.13126 -0.05683,0.0305 -0.147839,0.067 -0.202571,0.0816 -0.169361,0.0451 -0.212358,0.0375 -0.257866,-0.0455 -0.06873,-0.1254 -0.07057,-0.16951 -0.01085,-0.24081 0.08779,-0.10485 0.140044,-0.18573 0.140044,-0.21653 0,-0.0433 0.06332,-0.0695 0.199471,-0.0822 0.05913,-0.005 0.09002,-0.008 0.112137,-0.002 z m -0.871265,0.18707 0.0677,0.0517 c 0.09609,0.0733 0.103233,0.12504 0.03101,0.22324 -0.05352,0.0728 -0.319132,0.30645 -0.348299,0.30645 -0.0065,0 -0.06114,0.0469 -0.121439,0.10438 -0.105322,0.10044 -0.141955,0.11935 -0.3178101,0.16485 -0.04374,0.0116 -0.119881,0.0207 -0.169499,0.0207 -0.08002,0 -0.08807,-0.004 -0.07183,-0.0341 0.0673,-0.12429 0.5242341,-0.54433 0.8418091,-0.77359 l 0.08837,-0.0636 z m 0.52865,2.11554 c 0.01485,-0.006 0.08886,0.022 0.164331,0.0615 0.136808,0.0717 0.167095,0.11385 0.113172,0.15865 -0.06342,0.0526 -0.12025,0.0453 -0.212907,-0.0269 -0.07155,-0.0558 -0.09147,-0.0833 -0.09147,-0.12713 0,-0.0307 0.01202,-0.0601 0.02687,-0.0661 z m -2.2789303,0.51991 c 0.0083,0.007 0.01682,0.0243 0.03669,0.0615 0.03788,0.0708 0.1201533,0.16433 0.1446943,0.16433 0.03802,0 0.07422,0.0877 0.06563,0.15916 -0.0048,0.0399 -0.01484,0.0724 -0.02222,0.0724 -0.04588,0 -0.2914553,-0.34311 -0.2914553,-0.40721 0,-0.018 0.01458,-0.038 0.03204,-0.045 0.0184,-0.007 0.02629,-0.0117 0.03462,-0.005 z m 1.1746053,0.0326 c 0.04302,0 0.06157,0.0419 0.04599,0.10387 -0.01474,0.0587 -0.06013,0.0768 -0.09818,0.0388 -0.05565,-0.0556 -0.02382,-0.14263 0.05219,-0.14263 z m -1.5937013,0.0589 c -0.0037,-7.7e-4 -0.01087,0.008 -0.02429,0.0258 -0.01527,0.0201 -0.02275,0.0442 -0.01705,0.0532 l 0,5.1e-4 c 0.01723,0.0278 0.04613,-0.002 0.04547,-0.0475 -2.95e-4,-0.0207 -4.73e-4,-0.0313 -0.0041,-0.032 z m 0.8800503,0.0625 c 0.0043,-6e-4 0.0115,0.004 0.02325,0.0139 0.01594,0.0132 0.02894,0.0318 0.02894,0.0408 10e-7,0.0199 -0.02661,0.0224 -0.04496,0.004 -0.0071,-0.007 -0.01292,-0.0258 -0.01292,-0.0413 0,-0.0113 0.0014,-0.017 0.0057,-0.0176 z m -0.7064173,0.0729 c 0.0036,7.7e-4 0.0044,0.0117 0.0046,0.0315 3.76e-4,0.0445 -0.02884,0.0753 -0.04599,0.0475 -0.0057,-0.009 0.0023,-0.0335 0.01757,-0.0537 0.01343,-0.0175 0.02011,-0.0261 0.02377,-0.0253 z m 0.8397422,0.0419 c 0.01262,0.004 0.02628,0.0179 0.03049,0.0305 l 0,5.2e-4 c 0.01159,0.0344 -0.02838,0.0268 -0.04186,-0.008 -0.0072,-0.0189 -0.0027,-0.0277 0.01137,-0.0227 z m 0.126607,0.0971 c 0.008,0.004 0.04117,0.0195 0.0739,0.0336 0.03273,0.0141 0.06773,0.043 0.07752,0.0646 0.0098,0.0216 0.04357,0.0541 0.07545,0.0718 0.04435,0.0246 0.05679,0.0437 0.05271,0.0816 -0.0029,0.0273 0.0043,0.056 0.01602,0.063 0.01403,0.009 0.0069,0.0285 -0.02119,0.0584 -0.03246,0.0345 -0.05583,0.0421 -0.09818,0.0341 -0.06012,-0.012 -0.06591,-0.004 -0.03617,0.0517 0.02993,0.0559 -0.01076,0.0664 -0.07648,0.0196 -0.0475,-0.0338 -0.05668,-0.0527 -0.05323,-0.11162 0.0031,-0.0537 -0.0041,-0.073 -0.02946,-0.078 -0.02981,-0.006 -0.03289,0.0106 -0.02894,0.15245 0.0031,0.11294 -0.0026,0.16092 -0.01964,0.16692 -0.02144,0.007 -0.06253,-0.0664 -0.06253,-0.11163 0,-0.0258 -0.06819,-0.0574 -0.1235069,-0.0574 -0.02664,0 -0.05412,-0.009 -0.06098,-0.0202 -0.02733,-0.0442 0.1126359,-0.20215 0.2087729,-0.23564 0.04918,-0.0171 0.05512,-0.0267 0.04548,-0.0749 -0.0082,-0.041 -0.0035,-0.0553 0.01757,-0.0553 0.01567,0 0.02842,-0.0142 0.02842,-0.031 0,-0.0166 0.0065,-0.0262 0.01447,-0.0222 z m -0.3700029,0.1303 c 0.0042,0 0.0078,0.013 0.0078,0.0289 0,0.016 -0.0083,0.0289 -0.0186,0.0289 -0.0103,0 -0.01387,-0.013 -0.0078,-0.0289 0.0061,-0.016 0.01442,-0.0289 0.0186,-0.0289 z m 0.5772249,0.37671 c 0.0075,-0.005 0.02059,-0.004 0.04392,0.002 0.103575,0.023 0.11729,0.0292 0.128675,0.0589 0.01682,0.0439 -0.0063,0.0703 -0.05168,0.0584 l 0,-5.1e-4 c -0.02177,-0.005 -0.05491,-0.002 -0.07338,0.008 -0.03782,0.0203 -0.05684,-0.01 -0.05684,-0.0894 0,-0.0207 0.0018,-0.0317 0.0093,-0.0367 z m -0.202051,2.1425 c -0.05543,0 -0.09715,0.009 -0.09715,0.0207 0,0.0113 0.03301,0.0481 0.07286,0.0822 0.03985,0.0341 0.08056,0.0598 0.09043,0.0568 0.03409,-0.01 0.05531,-0.0647 0.04341,-0.11214 -0.01071,-0.0426 -0.02241,-0.0476 -0.109554,-0.0476 z m 1.5192871,0.0739 c -0.0128,-0.005 -0.0398,0.009 -0.04703,0.031 -0.0047,0.0142 0.0044,0.0184 0.02325,0.0114 0.01683,-0.006 0.03049,-0.0201 0.03049,-0.0305 0,-0.006 -0.0024,-0.0103 -0.0067,-0.0119 z m 0.09095,0.0357 c -0.0016,0.006 -0.0026,0.0191 -0.0026,0.0377 0,0.0368 0.0039,0.0522 0.0088,0.0336 0.0049,-0.0186 0.0049,-0.0491 0,-0.0677 -0.0024,-0.009 -0.0046,-0.01 -0.0062,-0.004 z m -0.274402,0.0377 c -0.09257,0 -0.114175,0.0194 -0.05684,0.0512 0.05441,0.0304 0.04866,0.0302 0.09353,0.006 0.05969,-0.032 0.04346,-0.0574 -0.03669,-0.0574 z m -0.255798,0.0475 c -0.0099,0.003 -0.02065,0.0134 -0.03617,0.032 -0.04522,0.0543 -0.04742,0.0677 -0.0155,0.10387 0.0311,0.0353 0.04349,0.0354 0.07286,0 0.01323,-0.016 0.01784,-0.0289 0.01085,-0.0289 -0.007,0 -0.0035,-0.0166 0.0072,-0.0367 0.01454,-0.0271 0.01234,-0.043 -0.0088,-0.0605 -0.01159,-0.01 -0.02062,-0.0131 -0.03049,-0.01 z m 0.508496,0.30541 c -0.0054,8.2e-4 -0.01161,0.0106 -0.0217,0.0295 -0.01374,0.0257 -0.04447,0.0425 -0.08423,0.0465 -0.05789,0.006 -0.0628,0.0109 -0.05995,0.0708 0.0042,0.0888 0.03921,0.12078 0.07648,0.0703 0.02439,-0.0334 0.03085,-0.0346 0.04651,-0.01 0.01005,0.0159 0.01845,0.0354 0.0186,0.0424 1.62e-4,0.007 0.0092,0.0364 0.02015,0.0651 l 0,10e-4 c 0.01093,0.0287 0.02399,0.0479 0.02894,0.0429 0.01779,-0.0178 0.01298,-0.30208 -0.0057,-0.33538 -0.0089,-0.0161 -0.01368,-0.0241 -0.01912,-0.0233 z m 0.199988,0.81494 c -0.03755,-0.0128 -0.07937,0.0111 -0.150379,0.0625 -0.1368,0.0991 -0.316572,0.20648 -0.411344,0.24598 -0.105103,0.0442 -0.613954,0.0499 -0.9177731,0.0103 -0.0797,-0.0103 -0.284207,-0.0229 -0.454236,-0.0269 -0.1700289,-0.004 -0.3718139,-0.0137 -0.4485519,-0.0217 l -0.1395263,-0.014 -0.02377,0.0558 c -0.01481,0.0351 -0.02445,0.1742 -0.02636,0.37466 -0.0017,0.17534 -0.0094,0.33652 -0.01705,0.35812 -0.02237,0.064 0.05113,0.13699 0.1736333,0.17259 0.199464,0.058 0.319661,0.0736 0.368453,0.0476 0.06235,-0.0333 0.3968379,-0.009 0.702282,0.0501 l 0,-5.2e-4 c 0.272659,0.0533 0.510786,0.053 0.859896,-10e-4 0.106268,-0.0165 0.311799,-0.0365 0.45682,-0.0445 0.161632,-0.009 0.2752532,-0.0235 0.2930054,-0.0382 0.015926,-0.0132 0.034518,-0.0565 0.041858,-0.0956 0.00928,-0.0495 0.042521,-0.0993 0.1085204,-0.16433 0.052216,-0.0514 0.095085,-0.10582 0.095085,-0.12092 0,-0.0519 -0.093007,-0.23747 -0.1943033,-0.38758 -0.05588,-0.0828 -0.1418815,-0.22074 -0.1912025,-0.30644 -0.05416,-0.0941 -0.08751,-0.14327 -0.125057,-0.15606 z"
         id="path4235"
         inkscape:connector-curvature="0"
         sodipodi:nodetypes="cccscscccssccscsscscscscscscssccccccccccccscsccccccsccccccccccccccccccccccccccccccccsscccccccccccsscccccsssccsscsccscccccccccsccsccccscccccccccccsccsccscscccsccscssccccccscccccccccccccsccccccsccsccccccccsccccscsscccccccccccccccccccscccccccccccccccsccccccccccccssccsssccssscsccccccscccsscccccccscccssccccccccccccscccccccccccccccccccccsccccccccccccccscccc" />
    </g>
  </g>
</svg>
