<?xml version="1.0" encoding="UTF-8" standalone="no"?>
<!-- Created with Inkscape (http://www.inkscape.org/) -->

<svg
   xmlns:dc="http://purl.org/dc/elements/1.1/"
   xmlns:cc="http://creativecommons.org/ns#"
   xmlns:rdf="http://www.w3.org/1999/02/22-rdf-syntax-ns#"
   xmlns:svg="http://www.w3.org/2000/svg"
   xmlns="http://www.w3.org/2000/svg"
   xmlns:sodipodi="http://sodipodi.sourceforge.net/DTD/sodipodi-0.dtd"
   xmlns:inkscape="http://www.inkscape.org/namespaces/inkscape"
   width="64"
   height="128"
   viewBox="0 0 16.933333 33.866668"
   id="svg5050"
   version="1.1"
   inkscape:version="0.91+devel+osxmenu r12911"
   sodipodi:docname="twitter.svg">
  <defs
     id="defs5052" />
  <sodipodi:namedview
     id="base"
     pagecolor="#ffffff"
     bordercolor="#666666"
     borderopacity="1.0"
     inkscape:pageopacity="0.0"
     inkscape:pageshadow="2"
     inkscape:zoom="5.125"
     inkscape:cx="-2.5365854"
     inkscape:cy="64"
     inkscape:document-units="px"
     inkscape:current-layer="layer1"
     showgrid="false"
     units="px" />
  <metadata
     id="metadata5055">
    <rdf:RDF>
      <cc:Work
         rdf:about="">
        <dc:format>image/svg+xml</dc:format>
        <dc:type
           rdf:resource="http://purl.org/dc/dcmitype/StillImage" />
        <dc:title />
      </cc:Work>
    </rdf:RDF>
  </metadata>
  <g
     inkscape:label="Laag 1"
     inkscape:groupmode="layer"
     id="layer1"
     transform="translate(0,-263.13332)">
    <path
       inkscape:connector-curvature="0"
       id="path4311"
       style="fill:#6495ed;fill-opacity:1;fill-rule:nonzero;stroke:none;stroke-width:0.03527778"
       d="m 14.110931,285.03223 c -0.415465,0.18447 -0.861936,0.30895 -1.330204,0.36468 0.478154,-0.28671 0.845983,-0.74015 1.018325,-1.28121 -0.446922,0.26536 -0.942378,0.45838 -1.47019,0.56218 -0.422654,-0.45028 -1.024842,-0.73138 -1.690841,-0.73138 -1.2791986,0 -2.3159476,1.03719 -2.3159476,2.31593 0,0.18177 0.02046,0.35816 0.05977,0.52758 -1.924749,-0.0962 -3.631096,-1.01809 -4.773678,-2.41996 -0.199079,0.34266 -0.313452,0.74015 -0.313452,1.16482 0,0.80305 0.408724,1.51241 1.03001,1.92743 -0.379512,-0.0117 -0.736555,-0.11662 -1.048882,-0.28964 l 0,0.029 c 0,1.12212 0.798571,2.0582 1.857566,2.27098 -0.193914,0.0528 -0.399062,0.0818 -0.610052,0.0818 -0.148975,0 -0.294576,-0.0151 -0.435688,-0.0422 0.29458,0.92035 1.149774,1.58949 2.163154,1.60881 -0.792055,0.62105 -1.790607,0.99157 -2.876564,0.99157 -0.186499,0 -0.370749,-0.0115 -0.551855,-0.0326 1.024842,0.65656 2.242247,1.04011 3.550656,1.04011 4.2595706,0 6.5892256,-3.52837 6.5892256,-6.58938 0,-0.0998 -0.0027,-0.19975 -0.0063,-0.29997 0.451413,-0.3258 0.843734,-0.73385 1.15494,-1.19852" />
    <path
       d="m 14.110931,268.09889 c -0.415465,0.18448 -0.861936,0.30896 -1.330204,0.36468 0.478154,-0.28671 0.845983,-0.74014 1.018325,-1.2812 -0.446922,0.26536 -0.942378,0.45837 -1.47019,0.56218 -0.422654,-0.45029 -1.024842,-0.73138 -1.690841,-0.73138 -1.2791986,0 -2.3159476,1.03719 -2.3159476,2.31592 0,0.18178 0.02046,0.35816 0.05977,0.52759 -1.924749,-0.0962 -3.631096,-1.01809 -4.773678,-2.41996 -0.199079,0.34266 -0.313452,0.74014 -0.313452,1.16481 0,0.80306 0.408724,1.51242 1.03001,1.92743 -0.379512,-0.0117 -0.736555,-0.11662 -1.048882,-0.28963 l 0,0.029 c 0,1.12213 0.798571,2.0582 1.857566,2.27099 -0.193914,0.0528 -0.399062,0.0818 -0.610052,0.0818 -0.148975,0 -0.294576,-0.0151 -0.435688,-0.0423 0.29458,0.92035 1.149774,1.58949 2.163154,1.60881 -0.792055,0.62106 -1.790607,0.99158 -2.876564,0.99158 -0.186499,0 -0.370749,-0.0115 -0.551855,-0.0326 1.024842,0.65655 2.242247,1.04011 3.550656,1.04011 4.2595706,0 6.5892256,-3.52838 6.5892256,-6.58938 0,-0.0998 -0.0027,-0.19976 -0.0063,-0.29997 0.451413,-0.32581 0.843734,-0.73385 1.15494,-1.19852"
       style="fill:#eda564;fill-opacity:1;fill-rule:nonzero;stroke:none;stroke-width:0.03527778"
       id="path5048"
       inkscape:connector-curvature="0" />
  </g>
</svg>
