<?xml version="1.0" encoding="UTF-8" standalone="no"?>
<!-- Created with Inkscape (http://www.inkscape.org/) -->

<svg
   xmlns:dc="http://purl.org/dc/elements/1.1/"
   xmlns:cc="http://creativecommons.org/ns#"
   xmlns:rdf="http://www.w3.org/1999/02/22-rdf-syntax-ns#"
   xmlns:svg="http://www.w3.org/2000/svg"
   xmlns="http://www.w3.org/2000/svg"
   xmlns:sodipodi="http://sodipodi.sourceforge.net/DTD/sodipodi-0.dtd"
   xmlns:inkscape="http://www.inkscape.org/namespaces/inkscape"
   width="64"
   height="64"
   viewBox="0 0 16.933333 16.933334"
   id="svg5050"
   version="1.1"
   inkscape:version="0.91+devel+osxmenu r12911"
   sodipodi:docname="twitter.svg">
  <defs
     id="defs5052" />
  <sodipodi:namedview
     id="base"
     pagecolor="#ffffff"
     bordercolor="#666666"
     borderopacity="1.0"
     inkscape:pageopacity="0.0"
     inkscape:pageshadow="2"
     inkscape:zoom="5.265625"
     inkscape:cx="32"
     inkscape:cy="32"
     inkscape:document-units="px"
     inkscape:current-layer="layer1"
     showgrid="false"
     units="px" />
  <metadata
     id="metadata5055">
    <rdf:RDF>
      <cc:Work
         rdf:about="">
        <dc:format>image/svg+xml</dc:format>
        <dc:type
           rdf:resource="http://purl.org/dc/dcmitype/StillImage" />
        <dc:title></dc:title>
      </cc:Work>
    </rdf:RDF>
  </metadata>
  <g
     inkscape:label="Laag 1"
     inkscape:groupmode="layer"
     id="layer1"
     transform="translate(0,-280.06665)">
    <path
       d="m 16.933333,283.28154 c -0.623217,0.27673 -1.292945,0.46346 -1.99537,0.54704 0.717254,-0.43008 1.269015,-1.11024 1.527537,-1.92186 -0.670405,0.39805 -1.413613,0.68758 -2.205356,0.8433 -0.634001,-0.67546 -1.537312,-1.09711 -2.536342,-1.09711 -1.9188605,0 -3.4740335,1.55584 -3.4740335,3.47399 0,0.27268 0.03069,0.53726 0.08966,0.79141 -2.8872155,-0.1443 -5.4468177,-1.52718 -7.1607455,-3.63005 -0.29862795,0.514 -0.47019295,1.11024 -0.47019295,1.74727 0,1.20463 0.61310555,2.2687 1.54506435,2.89123 -0.5692862,-0.0175 -1.1048678,-0.17493 -1.57337325,-0.43445 l 0,0.0435 c 0,1.68325 1.19789475,3.0874 2.78643795,3.40659 -0.2908803,0.0792 -0.5986121,0.1227 -0.9151072,0.1227 -0.2234697,0 -0.4418781,-0.0226 -0.6535529,-0.0634 0.4418841,1.38057 1.7247161,2.38431 3.2448346,2.41329 -1.1881204,0.93162 -2.6859963,1.48742 -4.31498375,1.48742 -0.2797574,0 -0.5561412,-0.0173 -0.82780890000001,-0.0489 C 1.537313,294.83837 3.3634788,295.41373 5.326155,295.41373 c 6.38956,0 9.884154,-5.29274 9.884154,-9.88439 0,-0.1497 -0.0041,-0.29965 -0.0095,-0.44997 0.677141,-0.48873 1.265642,-1.10081 1.732466,-1.79784"
       style="fill:#fff;fill-opacity:1;fill-rule:nonzero;stroke:none;stroke-width:0.03527778"
       id="path5048"
       inkscape:connector-curvature="0" />
  </g>
</svg>
