<?xml version="1.0" encoding="UTF-8" standalone="no"?>
<!-- Created with Inkscape (http://www.inkscape.org/) -->

<svg
   xmlns:dc="http://purl.org/dc/elements/1.1/"
   xmlns:cc="http://creativecommons.org/ns#"
   xmlns:rdf="http://www.w3.org/1999/02/22-rdf-syntax-ns#"
   xmlns:svg="http://www.w3.org/2000/svg"
   xmlns="http://www.w3.org/2000/svg"
   xmlns:sodipodi="http://sodipodi.sourceforge.net/DTD/sodipodi-0.dtd"
   xmlns:inkscape="http://www.inkscape.org/namespaces/inkscape"
   width="128"
   height="256"
   viewBox="0 0 33.866666 67.733335"
   id="svg2"
   version="1.1"
   inkscape:version="0.91+devel+osxmenu r12911"
   sodipodi:docname="vrouwtje.svg">
  <defs
     id="defs4" />
  <sodipodi:namedview
     id="base"
     pagecolor="#ffffff"
     bordercolor="#666666"
     borderopacity="1.0"
     inkscape:pageopacity="0.0"
     inkscape:pageshadow="2"
     inkscape:zoom="0.65820313"
     inkscape:cx="112.35989"
     inkscape:cy="29.786153"
     inkscape:document-units="px"
     inkscape:current-layer="layer1"
     showgrid="false"
     units="px" />
  <metadata
     id="metadata7">
    <rdf:RDF>
      <cc:Work
         rdf:about="">
        <dc:format>image/svg+xml</dc:format>
        <dc:type
           rdf:resource="http://purl.org/dc/dcmitype/StillImage" />
        <dc:title></dc:title>
      </cc:Work>
    </rdf:RDF>
  </metadata>
  <g
     inkscape:label="Laag 1"
     inkscape:groupmode="layer"
     id="layer1"
     transform="translate(0,-229.26665)">
    <g
       style="stroke-width:0.18662633"
       transform="matrix(5.3583005,0,0,5.3583005,-37.430674,-1247.0225)"
       id="g4248">
      <path
         sodipodi:nodetypes="ccccsccssccccccccsscccccscccccccccccccccccccsssssssscssccccsccscscccccccsscsssssccccccccccccccsccscccsccccscccc"
         inkscape:connector-curvature="0"
         id="path4250"
         d="m 7.7742286,277.3286 c 0.00473,-0.0422 0.200714,-0.16077 0.245177,-0.24913 0.03963,-0.0788 0.07136,-0.4831 0.0543,-0.6919 -0.01661,-0.20333 0.0145,-0.29427 0.139917,-0.4089 0.136779,-0.125 0.368885,-0.29526 0.458026,-0.33597 0.03985,-0.0182 0.07246,-0.0405 0.07246,-0.0496 0,-0.0343 0.100541,-0.0599 0.286074,-0.0727 0.158487,-0.0109 0.201592,-0.008 0.247565,0.0181 0.03062,0.0172 0.112181,0.0397 0.181255,0.05 0.06907,0.0103 0.227821,0.0532 0.352769,0.0954 0.124948,0.0422 0.2553684,0.0822 0.2898224,0.0889 0.09476,0.0184 0.701847,0.20066 0.849016,0.25492 0.106602,0.0393 0.150027,0.0697 0.246089,0.17241 0.06415,0.0686 0.122083,0.14636 0.12873,0.17285 0.02407,0.0959 -0.0037,0.30674 -0.05849,0.44369 -0.05848,0.14626 -0.162366,0.38651 -0.233921,0.541 -0.02461,0.0531 -0.09422,0.20529 -0.154688,0.33812 -0.06047,0.13284 -0.144728,0.31543 -0.187246,0.40575 -0.189509,0.40262 -0.207507,0.46522 -0.207816,0.72286 -2.65e-4,0.22152 0.02542,0.32576 0.145628,0.59101 0.169601,0.37423 0.298308,0.84058 0.266043,0.96396 -0.01847,0.0706 0.03513,0.31809 0.0878,0.40537 0.06578,0.109 0.323613,0.39467 0.394622,0.43722 0.01827,0.011 0.03553,0.0513 0.03982,0.0931 0.0042,0.0406 0.0174,0.0836 0.02942,0.0956 0.01201,0.012 0.02184,0.0385 0.02184,0.0587 0,0.0203 0.03833,0.0747 0.08517,0.12087 0.04684,0.0462 0.09472,0.11291 0.106394,0.14829 0.01465,0.0444 0.05533,0.0881 0.13122,0.14094 0.146025,0.10171 0.369145,0.31341 0.406564,0.38575 0.01649,0.0319 0.07678,0.10976 0.133989,0.17306 0.0572,0.0633 0.109322,0.13721 0.115816,0.16423 0.0065,0.027 0.03551,0.097 0.06447,0.15541 0.02897,0.0584 0.05924,0.12744 0.06728,0.15332 0.008,0.0259 0.05201,0.12599 0.0977,0.22248 0.07793,0.16454 0.09579,0.22164 0.145392,0.46469 0.01084,0.0531 0.02921,0.1339 0.04082,0.1795 0.04304,0.16903 -0.01436,0.46516 -0.120633,0.62234 -0.01796,0.0265 -0.05458,0.0918 -0.08137,0.14491 -0.04682,0.0928 -0.224961,0.26036 -0.585567,0.55066 -0.0594,0.0478 -0.135562,0.10924 -0.169243,0.13648 -0.03368,0.0272 -0.08976,0.0693 -0.124618,0.0935 -0.08418,0.0584 -0.205747,0.24868 -0.256688,0.40176 -0.03655,0.10984 -0.03991,0.15195 -0.03016,0.37869 0.006,0.14032 0.01943,0.31598 0.02977,0.39037 0.01034,0.0744 0.02777,0.21785 0.03873,0.3188 0.01096,0.10095 0.02846,0.22268 0.03889,0.2705 0.03473,0.15927 0.02455,0.42436 -0.02004,0.52168 -0.03193,0.0697 -0.0374,0.10883 -0.02769,0.19721 0.0094,0.0858 0.004,0.12869 -0.02452,0.19321 -0.02016,0.0456 -0.06252,0.0598 -0.262966,0.0837 -0.328218,0.0392 -0.411509,0.0925 -0.836274,0.0668 -0.6111634,-0.0368 -1.9028635,-0.28111 -2.1300223,-0.53064 l 5e-7,2e-5 c -0.2856926,-0.31384 0.069376,-0.57929 0.074531,-0.5829 0.00487,-0.003 0.014772,-0.0564 0.02297,-0.11681 0.017932,-0.13215 0.122221,-0.35027 0.245921,-0.51436 0.181034,-0.24013 0.2763,-0.41893 0.338078,-0.6345 0.03372,-0.11768 0.04648,-0.28698 0.02433,-0.32283 -0.01718,-0.0278 -0.271028,-0.15002 -0.523436,-0.25203 -0.262528,-0.10609 -0.453976,-0.22024 -0.606959,-0.36188 -0.168776,-0.15626 -0.221427,-0.24312 -0.273019,-0.45041 -0.02195,-0.0882 -0.06185,-0.20496 -0.08867,-0.2595 -0.114585,-0.233 -0.128976,-0.41018 -0.05557,-0.68417 0.124575,-0.46499 0.445125,-1.05648 0.853306,-1.57457 0.137099,-0.17401 0.161568,-0.25742 0.122857,-0.41878 -0.02447,-0.102 -0.08681,-0.20033 -0.225379,-0.35553 -0.128378,-0.14377 -0.161451,-0.27506 -0.16067,-0.63778 5.14e-4,-0.24488 0.007,-0.30995 0.03975,-0.39888 0.02152,-0.0584 0.05954,-0.16279 0.08449,-0.23186 0.02495,-0.0691 0.07716,-0.19206 0.116007,-0.27331 0.04275,-0.0894 0.07502,-0.19024 0.08175,-0.25541 0.0072,-0.0696 0.02384,-0.11919 0.04712,-0.14026 0.0198,-0.0179 0.036,-0.056 0.036,-0.0847 0,-0.1127 -0.04751,-0.18673 -0.260344,-0.40564 -0.168796,-0.17361 -0.223502,-0.24332 -0.250199,-0.3188 -0.06118,-0.17298 -0.1139532,-0.14534 -0.131646,-0.21401 -0.015705,-0.061 0.044844,-0.13919 -6.39e-4,-0.17344 -0.034424,-0.0259 0.072816,-0.0457 0.090904,-0.085 0.013895,-0.0302 -0.1030417,-0.0503 -0.074573,-0.0689 0.1069797,-0.07 0.074331,-0.29115 -0.053537,-0.47303 z m 1.6847541,4.99826 c 0,-0.0224 -0.0988,-0.10991 -0.124127,-0.10991 -0.0054,0 -0.01937,0.0179 -0.03111,0.0399 -0.01584,0.0296 -0.01541,0.047 0.0017,0.0676 0.02938,0.0354 0.153547,0.0373 0.153547,0.002 z m -0.114658,-3.1827 c 0.02056,-0.011 0.03737,-0.0327 0.03737,-0.0483 0,-0.0366 -0.05932,-0.0364 -0.107406,2.8e-4 -0.03246,0.0248 -0.03361,0.0312 -0.0085,0.048 0.03599,0.0241 0.03352,0.0241 0.07856,-10e-6 z m 0.7024213,-2.29608 c 0.0057,-0.009 0.03553,-0.0218 0.06625,-0.028 0.03434,-0.007 0.05985,-0.0265 0.06622,-0.0508 0.0064,-0.0245 0.02627,-0.0396 0.05212,-0.0396 0.03296,0 0.03917,-0.008 0.02949,-0.0386 -0.01131,-0.0357 0.0053,-0.0485 0.05313,-0.0409 0.008,0.001 0.01449,-0.006 0.01449,-0.0155 0,-0.0416 0.122143,-0.13481 0.216657,-0.16527 0.05618,-0.0181 0.136926,-0.0508 0.179433,-0.0727 0.04251,-0.0219 0.105544,-0.0533 0.140081,-0.0699 0.03454,-0.0166 0.06279,-0.0364 0.06279,-0.044 0,-0.0277 -0.145062,-0.1325 -0.269098,-0.19435 -0.125966,-0.0628 -0.129258,-0.0633 -0.407154,-0.0632 -0.2593963,6e-5 -0.2873213,0.004 -0.3767683,0.048 -0.08936,0.0444 -0.09646,0.053 -0.0946,0.11558 0.0034,0.11305 0.08061,0.41182 0.14165,0.54787 0.05297,0.11806 0.09703,0.15729 0.1252963,0.11155 z"
         style="fill:#ebf1fd;fill-opacity:1;stroke-width:0.18662633" />
      <path
         sodipodi:nodetypes="cccccccccccsccccccccsscsccccccccsccccccccccsccscccsccscccccccsccccccccsccccccccccccccscccccccscccccscsccccscccccccccsccsscsscccccccscccccccsccccccccccsccccccsscccccsccccccccscccscscsccsccsccccccscccsccsscccccccscscccccccsccccscccsccscccscscccsccccccscccccccccccccscccscccscccscccsccccscccccccccsccccccccccccsccccccsccccssccccccssccccsccccscsscscc"
         inkscape:connector-curvature="0"
         id="path4252"
         d="m 10.560307,288.09724 c -0.297052,-0.0229 -0.42654,-0.0461 -0.5635413,-0.10104 -0.166042,-0.0666 -0.216906,-0.0719 -0.298249,-0.0314 -0.05024,0.0251 -0.116786,0.0317 -0.307159,0.0304 -0.03188,-2.1e-4 -0.08308,-1.5e-4 -0.11378,1.3e-4 -0.0307,2.9e-4 -0.06982,-0.0117 -0.08695,-0.0265 -0.03349,-0.0291 -0.165487,-0.0725 -0.320953,-0.10544 -0.347313,-0.0736 -0.379513,-0.0847 -0.415231,-0.14348 -0.01915,-0.0315 -0.04548,-0.0953 -0.05852,-0.1419 -0.01587,-0.0567 -0.04517,-0.10102 -0.08869,-0.13422 -0.111236,-0.0848 -0.11819,-0.11862 -0.04115,-0.19988 0.08093,-0.0854 0.149535,-0.22568 0.149535,-0.30584 0,-0.13026 0.134799,-0.3948 0.29948,-0.58772 0.106223,-0.12445 0.265122,-0.42818 0.328544,-0.62801 0.02566,-0.0809 0.06116,-0.15761 0.07887,-0.17057 0.02681,-0.0196 0.02829,-0.0309 0.0089,-0.0671 -0.01283,-0.024 -0.01922,-0.0477 -0.0142,-0.0527 0.02283,-0.0228 0.402171,0.16667 0.470588,0.23509 0.01535,0.0154 0.05274,0.0824 0.08307,0.14898 0.03034,0.0666 0.08202,0.1466 0.114857,0.17782 0.03283,0.0312 0.0597,0.0756 0.0597,0.0986 0,0.023 0.02174,0.0827 0.0483,0.13266 0.05226,0.0983 0.05917,0.15431 0.02886,0.23402 -0.03016,0.0793 -0.06611,0.0462 -0.08138,-0.075 -0.02294,-0.18207 -0.05244,-0.19953 -0.05342,-0.0316 -4.56e-4,0.0797 -0.01845,0.22751 -0.03998,0.32846 -0.0676,0.31702 -0.06745,0.29568 -0.0024,0.3607 0.03799,0.038 0.101262,0.0704 0.180691,0.0926 0.06723,0.0188 0.1478893,0.0473 0.1792473,0.0634 0.03507,0.018 0.131742,0.0327 0.25118,0.0381 0.184058,0.008 0.299386,-0.002 0.899398,-0.0808 0.276009,-0.0362 0.280356,-0.0362 0.317424,8.5e-4 0.05041,0.0504 0.04105,0.30749 -0.0168,0.46117 -0.03793,0.10076 -0.04357,0.13774 -0.0288,0.18883 0.02417,0.0836 -0.0094,0.16962 -0.06646,0.17021 -0.02262,2.4e-4 -0.077,0.0167 -0.120847,0.0366 -0.06243,0.0283 -0.125286,0.0361 -0.289822,0.0359 -0.151549,-2e-4 -0.230125,0.008 -0.28194,0.031 -0.03951,0.0172 -0.08298,0.0297 -0.09661,0.0279 -0.01362,-0.002 -0.0639,-0.006 -0.111719,-0.0101 z m -1.5457183,-2.8653 c -0.05845,-0.008 -0.138873,-0.0279 -0.178723,-0.0448 -0.06001,-0.0254 -0.07246,-0.0261 -0.07246,-0.004 0,0.0503 -0.03352,0.0476 -0.229495,-0.0184 -0.274149,-0.0923 -0.472712,-0.2085 -0.562774,-0.32926 -0.121918,-0.16349 -0.171815,-0.26611 -0.185341,-0.38119 l -0.01288,-0.10959 0.103985,0.0305 c 0.05719,0.0168 0.121374,0.0383 0.142628,0.0477 0.02126,0.009 0.116895,0.0393 0.212536,0.0663 0.09564,0.027 0.217367,0.0625 0.270501,0.0789 0.157417,0.0485 0.367608,0.0745 0.9226,0.11389 0.09299,0.007 0.169063,0.018 0.169063,0.0254 0,0.007 -0.03695,0.0243 -0.08212,0.0376 -0.115903,0.0342 -0.147831,0.0565 -0.113108,0.0788 0.01501,0.01 0.02162,0.0313 0.01492,0.0488 -0.01452,0.0378 -0.105844,0.0232 -0.142593,-0.0229 -0.0209,-0.0262 -0.02859,-0.026 -0.07134,0.002 -0.04327,0.0284 -0.04755,0.043 -0.0442,0.15086 0.0042,0.13386 0.04034,0.1731 0.0665,0.0721 0.01685,-0.065 0.0628,-0.10075 0.0628,-0.0488 0,0.0425 0.03567,0.0582 0.06904,0.0306 0.04159,-0.0345 0.128091,0.0491 0.120225,0.11624 -0.0047,0.0402 -0.01918,0.0511 -0.083,0.0623 -0.09459,0.0167 -0.235474,0.0154 -0.376769,-0.003 z m 1.2254623,-0.11054 c -0.03731,-0.0129 -0.09554,-0.0433 -0.129399,-0.0676 -0.06985,-0.0502 -0.1182803,-0.08 -0.1879533,-0.1158 -0.02657,-0.0137 -0.06254,-0.0423 -0.07994,-0.0636 -0.0174,-0.0213 -0.05856,-0.0692 -0.09147,-0.10636 -0.03291,-0.0372 -0.05997,-0.0725 -0.06014,-0.0785 -1.74e-4,-0.006 0.02629,-0.0305 0.05881,-0.0546 0.07852,-0.0581 0.09309,-0.10524 0.06557,-0.2124 -0.03002,-0.11691 -0.02189,-1.51001 0.0097,-1.66398 0.0133,-0.0648 0.01695,-0.17788 0.0094,-0.28982 -0.01013,-0.14927 -0.0063,-0.1989 0.0206,-0.26567 0.04421,-0.10983 0.0923,-0.11524 0.1981573,-0.0223 0.06962,0.0611 0.09202,0.066 0.169033,0.0367 0.02806,-0.0107 0.13415,-0.0287 0.235746,-0.04 0.317187,-0.0354 0.576524,-0.13568 0.814331,-0.31498 0.09945,-0.075 0.210996,-0.14671 0.247882,-0.15939 0.06685,-0.023 0.06723,-0.0228 0.118666,0.0627 0.03278,0.0545 0.0974,0.11654 0.177191,0.1702 0.12832,0.0863 0.367108,0.31893 0.367108,0.35766 0,0.0118 0.05187,0.0772 0.115257,0.14537 0.06339,0.0681 0.121013,0.14835 0.128048,0.17824 0.007,0.0299 0.0328,0.0935 0.05726,0.14129 0.107051,0.20931 0.260219,0.57977 0.279828,0.6768 0.01175,0.0581 0.02996,0.13615 0.04047,0.17334 0.01051,0.0372 0.02382,0.15892 0.02958,0.2705 0.0091,0.17708 0.0054,0.21455 -0.02947,0.29465 -0.02197,0.0505 -0.04809,0.0918 -0.05803,0.0918 -0.0099,0 -0.0281,0.0418 -0.04035,0.0928 -0.03587,0.14952 -0.12727,0.29186 -0.209466,0.3262 -0.03894,0.0163 -0.115332,0.0699 -0.169756,0.11925 -0.184458,0.16715 -0.498068,0.27274 -0.811033,0.27308 -0.115648,1.1e-4 -0.146421,-0.007 -0.202875,-0.0488 -0.05962,-0.0439 -0.06776,-0.0611 -0.07819,-0.16525 -0.01277,-0.12752 -0.04066,-0.17594 -0.07917,-0.13744 -0.01275,0.0127 -0.04389,0.0232 -0.0692,0.0232 -0.02531,0 -0.08473,0.0317 -0.132054,0.0705 l -0.08604,0.0705 0.03931,0.0418 c 0.05655,0.0602 0.05089,0.13717 -0.01317,0.17899 -0.04383,0.0286 -0.09648,0.0342 -0.319425,0.0342 -0.158983,0 -0.294383,-0.009 -0.334783,-0.0234 z m -0.05034,-0.2521 c 0.007,-0.0489 -0.03097,-0.0572 -0.09787,-0.0214 -0.03993,0.0214 -0.04002,0.0225 -0.0039,0.0489 0.05022,0.0367 0.09435,0.0248 0.101807,-0.0274 z m 0.769933,-0.32493 c 0.0155,-0.0404 -0.03606,-0.0902 -0.0771,-0.0744 -0.03802,0.0146 -0.04191,0.049 -0.0092,0.0817 0.03231,0.0323 0.07243,0.0289 0.08633,-0.007 z m -0.766447,-0.0661 c 0,-0.0276 -0.01288,-0.0386 -0.04508,-0.0386 -0.05815,0 -0.07605,0.0188 -0.04899,0.0514 0.03352,0.0404 0.09407,0.0322 0.09407,-0.0127 z m -0.01932,-0.73421 c 0.04358,-0.0854 0.03311,-0.0936 -0.07285,-0.0566 -0.06749,0.0235 -0.09271,0.0684 -0.06036,0.10737 0.04087,0.0492 0.09217,0.0297 0.133218,-0.0507 z m -0.04751,-0.32976 c 0.007,-0.0113 0.0082,-0.0252 0.0026,-0.0307 -0.01517,-0.0152 -0.09034,0.0125 -0.09034,0.0333 0,0.0249 0.07208,0.0228 0.08774,-0.003 z m -2.1885063,0.89562 c -0.04562,-0.0698 -0.04401,-0.43968 0.0031,-0.71078 0.06675,-0.38415 0.272184,-1.11244 0.387078,-1.37223 0.05839,-0.13204 0.158722,-0.24474 0.211196,-0.23725 0.03186,0.005 0.04193,0.0217 0.0467,0.0796 0.0047,0.0577 -0.01909,0.12747 -0.108845,0.3188 -0.284556,0.60658 -0.475669,1.32705 -0.466852,1.75997 0.0018,0.0913 0.0025,0.17685 0.0015,0.19013 -0.0031,0.0404 -0.03767,0.0271 -0.07388,-0.0283 z m 0.915247,-0.37549 c -0.01961,-0.18764 -0.01408,-0.31637 0.0256,-0.59613 0.05821,-0.4103 0.09628,-0.62234 0.12503,-0.69629 0.01461,-0.0376 0.03265,-0.1115 0.04009,-0.16423 0.0074,-0.0527 0.03531,-0.16025 0.06194,-0.23891 0.04155,-0.1227 0.04537,-0.1532 0.02692,-0.21477 -0.0449,-0.14987 -0.0066,-0.25083 0.09508,-0.25083 0.07676,0 0.124628,0.0749 0.119735,0.18732 -0.003,0.0693 -0.01597,0.0966 -0.06988,0.14747 -0.0516,0.0487 -0.06908,0.0836 -0.07935,0.15846 -0.0072,0.0528 -0.0298,0.16847 -0.05013,0.25698 -0.02032,0.0885 -0.03745,0.20588 -0.03807,0.26084 -5.99e-4,0.055 -0.018,0.16077 -0.03863,0.23516 -0.06793,0.24486 -0.09383,0.40213 -0.113058,0.68642 -0.02011,0.29736 -0.02999,0.34728 -0.06871,0.34728 -0.01537,0 -0.02868,-0.0432 -0.03658,-0.11877 z m -1.355871,-0.12205 c -0.01042,-0.0242 -2.8e-4,-0.11519 0.02797,-0.25104 0.05837,-0.28065 0.134158,-0.48337 0.168043,-0.44949 0.01543,0.0154 5.71e-4,0.0654 -0.08746,0.29408 -0.03272,0.085 -0.06056,0.1937 -0.06185,0.24152 -0.0013,0.0478 -0.0087,0.11303 -0.01636,0.14491 -0.01252,0.0519 -0.01572,0.054 -0.03035,0.02 z m 0.222812,-0.81815 c 0,-0.0874 0.1897,-0.41392 0.270501,-0.46554 l 0.0483,-0.0309 -0.03411,0.0483 c -0.01876,0.0266 -0.04429,0.07 -0.05674,0.0966 -0.01245,0.0266 -0.05512,0.0918 -0.09481,0.14491 -0.0397,0.0531 -0.07816,0.1206 -0.08548,0.14993 -0.01287,0.0516 -0.04766,0.093 -0.047661,0.0567 z m 0.347787,-0.56176 c 0,-0.0106 0.0087,-0.0247 0.01932,-0.0313 0.01063,-0.007 0.01932,-0.003 0.01932,0.007 0,0.0106 -0.0087,0.0247 -0.01932,0.0313 -0.01063,0.007 -0.01932,0.003 -0.01932,-0.007 z m 0.250603,-0.32967 c 0.02213,-0.0414 0.0589,-0.0704 0.05793,-0.0457 -8.56e-4,0.0215 -0.04901,0.0833 -0.06499,0.0833 -0.0072,0 -0.004,-0.0169 0.0071,-0.0376 z m -0.3136918,-4.82896 c 0.03015,-0.0855 0.098668,-0.1217 0.2128325,-0.0656 0.038325,0.0361 0.06316,0.0883 0.130572,0.12514 0.130444,0.0712 0.153069,0.0697 0.136056,-0.009 -0.0074,-0.0345 -0.02134,-0.12151 -0.03087,-0.19328 -0.01876,-0.14114 -0.07074,-0.33967 -0.09784,-0.37367 -0.03449,-0.0433 -0.137061,-0.31164 -0.165465,-0.43294 -0.058,-0.24767 -0.0619,-0.22932 0.07431,-0.3494 0.198997,-0.17543 0.323965,-0.25852 0.349862,-0.23262 0.01261,0.0126 0.0256,0.10485 0.02993,0.21246 0.0072,0.17857 0.0049,0.19271 -0.03679,0.23157 -0.02698,0.0251 -0.06971,0.0414 -0.108819,0.0414 -0.116708,0 -0.134046,0.1296 -0.02209,0.16513 0.0263,0.008 0.05222,-0.003 0.08428,-0.0379 0.02546,-0.0275 0.05627,-0.0499 0.06847,-0.0499 0.03191,0 0.153562,0.1262 0.153562,0.1593 0,0.0154 0.01721,0.0435 0.03824,0.0625 0.03485,0.0315 0.03932,0.0318 0.05037,0.003 0.01515,-0.0395 0.05371,-0.0407 0.08528,-0.003 0.03965,0.0478 0.06375,0.0338 0.05105,-0.0297 -0.0091,-0.0454 -0.0041,-0.0611 0.02174,-0.069 0.07044,-0.0217 0.09103,-0.0422 0.103481,-0.10312 0.01059,-0.0518 0.0035,-0.0734 -0.04004,-0.12214 -0.06393,-0.0716 -0.116911,-0.0622 -0.116911,0.0207 0,0.0304 -0.0058,0.0612 -0.01292,0.0683 -0.02119,0.0212 -0.08368,-0.0478 -0.08368,-0.0924 0,-0.0227 -0.02147,-0.11535 -0.0477,-0.20585 -0.05546,-0.19128 -0.07776,-0.36343 -0.052,-0.40138 0.0099,-0.0146 0.05163,-0.0277 0.09269,-0.029 l 0.07464,-0.002 0.01932,0.18174 0.01932,0.18173 0.123562,0.0936 c 0.06796,0.0515 0.131187,0.0936 0.140506,0.0936 0.02815,0 0.130682,-0.17608 0.144065,-0.24742 0.0079,-0.042 0.02583,-0.0702 0.04839,-0.0761 0.02203,-0.006 0.04381,-0.0388 0.05643,-0.0857 0.01189,-0.0442 0.03027,-0.0731 0.04362,-0.0687 0.03603,0.0119 0.07078,0.0944 0.07109,0.16891 1.55e-4,0.0373 0.0097,0.0981 0.02117,0.13525 0.01149,0.0371 0.02458,0.14575 0.02909,0.24139 0.02077,0.44003 0.02019,0.43577 0.06357,0.46616 0.02257,0.0158 0.04103,0.0456 0.04103,0.0663 0,0.0207 0.01739,0.0549 0.03864,0.0762 0.05521,0.0552 0.05072,0.16648 -0.01036,0.25636 -0.02695,0.0397 -0.0566,0.0721 -0.06589,0.0721 -0.01979,0 -0.204406,-0.14343 -0.222689,-0.17301 -0.02497,-0.0404 -0.08113,-0.0185 -0.158408,0.0619 -0.04343,0.0452 -0.091,0.1082 -0.105721,0.14008 -0.01472,0.0319 -0.03969,0.058 -0.05548,0.058 -0.06599,0 -3.71e-4,-0.26159 0.100185,-0.39942 0.052,-0.0713 -0.09807,-0.21697 -0.187946,-0.18248 -0.03075,0.0118 -0.03243,0.0389 -0.01995,0.32274 l 0.01362,0.30985 -0.06636,0.0616 c -0.0903,0.0838 -0.09752,0.12083 -0.05993,0.30686 0.04966,0.24577 0.05097,0.26958 0.02031,0.36959 -0.02641,0.0861 -0.02585,0.0978 0.0074,0.15458 0.04808,0.0822 0.05212,0.13675 0.02002,0.27044 -0.02426,0.10107 -0.02372,0.11798 0.0054,0.16722 0.04046,0.0685 0.04116,0.13997 0.0021,0.21548 -0.02744,0.0531 -0.02744,0.0627 0,0.10462 0.01663,0.0254 0.03024,0.0799 0.03024,0.12124 0,0.0413 0.0098,0.10326 0.02183,0.1377 0.01854,0.0532 0.02931,0.0612 0.07148,0.0531 0.08726,-0.0167 0.133406,0.0149 0.148008,0.10135 0.01321,0.0782 0.06771,0.11406 0.06794,0.0447 2.79e-4,-0.0873 0.04317,-0.17767 0.107673,-0.22687 0.05444,-0.0415 0.09176,-0.0529 0.182443,-0.0558 0.08232,-0.003 0.12964,-0.0151 0.170274,-0.0452 0.108706,-0.0804 0.3968986,-0.0763 0.5758026,0.008 0.06588,0.0311 0.07705,0.0472 0.104651,0.15072 0.017,0.0638 0.04891,0.15506 0.07092,0.20288 0.111511,0.24226 0.235872,0.58966 0.273204,0.7632 0.01924,0.0894 0.02953,0.40708 0.01751,0.54042 -0.0041,0.0458 0.0053,0.0625 0.04704,0.0827 0.0582,0.0282 0.13134,0.1124 0.13134,0.15112 0,0.0139 0.02608,0.0537 0.05796,0.0887 0.12051,0.13194 0.04337,0.2862 -0.102708,0.2054 -0.02321,-0.0128 -0.102359,-0.0389 -0.175883,-0.0579 -0.142426,-0.0368 -0.204446,-0.0772 -0.204446,-0.13313 0,-0.0554 -0.04113,-0.0654 -0.07639,-0.0187 -0.02869,0.038 -0.05914,0.0452 -0.26302,0.0617 -0.2822026,0.0229 -0.3804446,0.0531 -0.5300236,0.16321 -0.09078,0.0668 -0.115958,0.0964 -0.115958,0.13625 0,0.028 -0.01825,0.0804 -0.04056,0.11652 -0.03261,0.0528 -0.03593,0.0712 -0.01696,0.094 0.03152,0.038 -0.006,0.0383 -0.06393,5.8e-4 -0.02354,-0.0154 -0.07044,-0.0271 -0.104241,-0.0261 -0.0338,10e-4 -0.0883,-0.009 -0.121112,-0.0229 -0.05081,-0.0211 -0.07281,-0.0197 -0.14829,0.009 -0.04874,0.0186 -0.117948,0.0596 -0.153787,0.0911 -0.06742,0.0592 -0.381109,0.22786 -0.423777,0.22786 -0.0133,0 -0.05726,0.0366 -0.09769,0.0814 -0.04043,0.0447 -0.06737,0.0654 -0.05987,0.0458 l -8.27e-5,9e-5 c 0.01818,-0.0474 0.04363,-0.16604 0.06988,-0.32581 0.03344,-0.20355 -0.01829,-0.35109 -0.188578,-0.53786 -0.183774,-0.20156 -0.223216,-0.3405 -0.213269,-0.75126 l 0.0068,-0.28016 0.08206,-0.1599 c 0.04513,-0.0879 0.116862,-0.20393 0.159402,-0.25774 0.08346,-0.10559 0.0873,-0.11696 0.05802,-0.17167 -0.0421,-0.0787 0.086,-0.24923 0.158176,-0.21061 0.04257,0.0228 0.04891,0.01 0.06486,-0.131 0.0122,-0.10778 0.0099,-0.11914 -0.0258,-0.13049 -0.02556,-0.008 -0.05684,-0.0566 -0.0901,-0.1397 -0.04311,-0.10769 -0.07781,-0.15289 -0.225592,-0.2939 -0.182839,-0.17446 -0.25995,-0.27114 -0.169413,-0.21241 0.02549,0.0165 0.08118,0.0355 0.12375,0.0422 0.04257,0.007 0.114965,0.0303 0.160881,0.0525 l 0.08348,0.0403 0.06589,-0.0503 c 0.0874,-0.0667 0.0996,-0.0935 0.114653,-0.25215 0.0091,-0.0964 0.0041,-0.16739 -0.01774,-0.24981 -0.01678,-0.0633 -0.03089,-0.15029 -0.03136,-0.19322 -4.57e-4,-0.0429 -0.01568,-0.12153 -0.03381,-0.17466 l -0.03297,-0.0966 -0.106268,0.006 c -0.08481,0.005 -0.125009,-0.004 -0.199067,-0.0435 -0.2216253,-0.0504 -0.2613189,-0.0611 -0.2118168,-0.20146 z m 2.8453811,3.57085 c 0,-0.0414 -0.0025,-0.0427 -0.04672,-0.0258 -0.03644,0.014 -0.04049,0.0588 -0.0064,0.071 0.03521,0.0126 0.05313,-0.003 0.05313,-0.0452 z m -1.1300223,-4.01906 c 0.01555,-0.0708 -0.0308,-0.13396 -0.09828,-0.13396 -0.07376,0 -0.07072,0.0705 0.0069,0.15941 0.04387,0.0503 0.07679,0.0411 0.09142,-0.0254 z m -0.290591,-0.2491 c 0.01593,-0.0258 -0.122288,-0.17468 -0.162133,-0.17468 -0.03824,0 -0.0789,0.0363 -0.0789,0.0704 0,0.0287 0.150413,0.12238 0.196905,0.12264 0.01797,10e-5 0.03783,-0.008 0.04413,-0.0183 z m 0.155334,-0.20849 c -0.0075,-0.0292 -0.02632,-0.114 -0.0419,-0.18839 -0.03013,-0.14387 -0.04366,-0.17081 -0.07478,-0.14893 -0.0468,0.0329 -0.125117,0.14546 -0.125117,0.17983 0,0.0579 0.150402,0.21062 0.207431,0.21062 0.0427,0 0.04646,-0.006 0.03437,-0.0531 z m 1.7402673,4.90972 c -0.0067,-0.0175 -0.008,-0.0359 -0.0029,-0.041 0.01797,-0.018 0.06891,0.014 0.06891,0.0432 0,0.0395 -0.05064,0.0379 -0.06601,-0.002 z m -2.0303673,-5.58298 c -0.03659,-0.028 -0.08468,-0.0277 -0.174333,0.001 -0.03487,0.0112 -0.03908,0.004 -0.03908,-0.0658 l 0,-0.0784 0.08256,0 c 0.06887,0 0.08255,0.006 0.08255,0.0376 0,0.0212 0.02519,0.0524 0.05796,0.0718 0.03188,0.0188 0.05796,0.0411 0.05796,0.0494 0,0.0229 -0.02468,0.0172 -0.06762,-0.0157 z"
         style="fill:#a7c3f5;fill-opacity:1;stroke-width:0.18662633" />
      <path
         inkscape:connector-curvature="0"
         id="path4254"
         d="m 8.8769776,275.59044 c -0.00653,-9e-4 -0.01461,0.002 -0.025322,0.006 -0.037589,0.0144 -0.032761,0.24342 0.0062,0.29042 0.048246,0.0581 0.065998,0.0126 0.053227,-0.13849 -0.010159,-0.1205 -0.01453,-0.15492 -0.034106,-0.15761 z m 0.61805,0.25532 c -0.00717,9.4e-4 -0.014789,0.004 -0.021704,0.0114 -0.014697,0.0147 -0.013441,0.0294 0.00413,0.0506 0.03377,0.0404 0.058911,0.0374 0.058911,-0.008 0,-0.0351 -0.019819,-0.0571 -0.041341,-0.0543 z m -0.5229655,0.14573 c -0.024566,-0.009 -0.022716,0.0218 0.016536,0.0651 0.017587,0.0194 0.039079,0.0357 0.048059,0.0357 0.02987,0 0.01734,-0.0316 -0.031523,-0.0775 -0.013701,-0.0129 -0.024884,-0.0203 -0.033073,-0.0233 z m 0.2733683,0.20102 c -0.023088,7.3e-4 -0.043083,0.031 -0.031006,0.0625 0.00639,0.0167 0.020746,0.03 0.032039,0.03 0.031298,0 0.046436,-0.0575 0.021704,-0.0822 -0.00732,-0.007 -0.015041,-0.0106 -0.022738,-0.0103 z m 0.2909383,0.30541 c -0.038628,0 -0.048042,0.0299 -0.027388,0.0842 0.016934,0.043 0.066146,0.0149 0.066146,-0.0382 0,-0.0333 -0.010879,-0.046 -0.038757,-0.046 z m -0.6015135,0.13539 c -0.030527,0 -0.036174,0.0147 -0.036174,0.0941 0,0.0518 0.00525,0.12131 0.011886,0.15451 0.024598,0.12297 0.098513,0.0541 0.1064533,-0.0992 0.005,-0.0967 -0.024097,-0.14934 -0.082165,-0.14934 z m 0.5203815,0.045 c -0.012842,-0.003 -0.027492,-0.003 -0.043408,10e-4 -0.043648,0.0109 -0.050978,0.0216 -0.041858,0.0579 0.00747,0.0298 -0.00504,0.0654 -0.037207,0.10903 -0.026332,0.0357 -0.047542,0.0781 -0.047542,0.0941 0,0.0192 0.021422,0.008 0.063562,-0.0326 0.039728,-0.0385 0.083198,-0.062 0.1157552,-0.062 0.044344,0 0.052193,-0.008 0.052193,-0.0543 0,-0.0628 -0.02297,-0.10357 -0.061495,-0.11317 z m -0.517281,0.3452 c -0.00725,-0.002 -0.016281,-0.002 -0.025838,0.002 -0.041509,0.0159 -0.043047,0.11141 -0.0031,0.18861 0.016677,0.0322 0.044702,0.0574 0.065112,0.0574 0.066203,0 0.08277,-0.12625 0.023254,-0.17725 -0.019966,-0.0171 -0.039862,-0.0425 -0.044442,-0.0563 -0.00244,-0.007 -0.00774,-0.0118 -0.014986,-0.0139 z m -0.839742,0.24856 c -0.031096,0.004 -0.050611,0.0293 -0.03514,0.0713 0.00488,0.0133 0.025905,0.0238 0.046509,0.0238 0.020603,0 0.077538,0.0215 0.1266072,0.0475 0.049071,0.0258 0.097566,0.0422 0.1080038,0.0362 0.010438,-0.006 -0.00773,-0.0259 -0.040308,-0.0429 -0.032577,-0.017 -0.077891,-0.055 -0.100769,-0.0842 -0.031232,-0.0399 -0.073807,-0.056 -0.104903,-0.0517 z m 0.6686931,1.72083 c -0.050553,6.2e-4 -0.061495,0.0236 -0.061495,0.0863 0,0.0369 -0.017946,0.1202 -0.039791,0.18501 -0.021846,0.0648 -0.035846,0.12795 -0.031006,0.14056 0.00586,0.0153 0.046772,0.021 0.1219564,0.016 0.1445341,-0.009 0.1801488,0.0113 0.1364258,0.078 -0.1325318,0.20227 -0.2062779,0.39839 -0.2067058,0.54983 -2.599e-4,0.0936 -0.02436,0.11277 -0.1049031,0.0822 -0.069737,-0.0265 -0.1156791,-0.0835 -0.1663981,-0.20671 -0.061657,-0.14968 -0.110234,-0.15247 -0.133842,-0.007 -0.00927,0.057 -0.020621,0.07 -0.06873,0.078 -0.091558,0.0159 -0.1089379,0.0793 -0.1121379,0.40256 -0.00252,0.25489 0.0015,0.29322 0.039791,0.37672 0.044654,0.0974 0.2793029,0.40938 0.3772379,0.50178 0.040575,0.0383 0.054119,0.066 0.046509,0.0951 -0.0059,0.0225 -0.00221,0.0575 0.00879,0.078 0.016482,0.0311 0.032711,0.0352 0.09095,0.0243 0.092015,-0.0173 0.098053,-0.0223 0.0863,-0.0672 -0.018563,-0.071 0.1444084,-0.2713 0.2206583,-0.2713 0.016526,0 0.058455,0.0305 0.093534,0.0677 0.075292,0.0798 0.085783,0.0825 0.085783,0.0222 0,-0.0691 0.039392,-0.16692 0.067179,-0.16692 0.013599,0 0.036494,0.0139 0.050643,0.031 0.038236,0.046 0.1000865,0.0643 0.260966,0.0765 0.1350248,0.0103 0.1556253,0.006 0.3033406,-0.0568 0.1352582,-0.0579 0.1914911,-0.0706 0.3844731,-0.0853 0.13158,-0.01 0.238332,-0.0274 0.255798,-0.0419 0.01719,-0.0143 0.02997,-0.0553 0.02997,-0.0961 0,-0.0455 0.01764,-0.0945 0.04858,-0.13642 0.05872,-0.0796 0.05866,-0.0871 0.0062,-0.23771 -0.03295,-0.0946 -0.04213,-0.16714 -0.04341,-0.3421 -0.0016,-0.22146 -0.0018,-0.22286 -0.08682,-0.40101 -0.08808,-0.18453 -0.09216,-0.25132 -0.0088,-0.14986 0.112824,0.1373 0.1731,0.31602 0.190686,0.56534 0.0065,0.0929 0.02425,0.204 0.03876,0.2465 0.01451,0.0425 0.02973,0.0944 0.03411,0.11575 0.01252,0.0607 0.05443,-0.0547 0.06666,-0.18397 0.01345,-0.14202 -0.10163,-0.6036 -0.206706,-0.83044 -0.04184,-0.0903 -0.08124,-0.20334 -0.08785,-0.25115 -0.0066,-0.0478 -0.01625,-0.10125 -0.02119,-0.11885 -0.01374,-0.0489 -0.13916,-0.0901 -0.321944,-0.10491 -0.1602937,-0.013 -0.166525,-0.0117 -0.214974,0.0367 -0.078312,0.0783 -0.069632,0.18007 0.026872,0.30748 0.108036,0.14264 0.19327,0.30936 0.19327,0.37776 0,0.0505 -0.0077,0.0592 -0.06253,0.0672 -0.085899,0.0127 -0.09612,0.006 -0.1607138,-0.0971 -0.031073,-0.0497 -0.099178,-0.1411 -0.1508952,-0.2036 -0.099442,-0.12019 -0.1001298,-0.12614 -0.026872,-0.23203 0.020985,-0.0303 0.016484,-0.0416 -0.03359,-0.0822 -0.03188,-0.0258 -0.074641,-0.0519 -0.095085,-0.0589 -0.051229,-0.0165 -0.093876,0.0447 -0.080098,0.11524 0.00732,0.0374 -0.00816,0.0992 -0.049093,0.19327 -0.096708,0.22239 -0.1416539,0.24933 -0.2506307,0.15193 l -0.059945,-0.0537 0.032556,-0.11214 c 0.03875,-0.13327 0.020928,-0.17204 -0.056327,-0.12144 -0.026739,0.0176 -0.052154,0.032 -0.056844,0.032 -0.00469,0 -0.014751,-0.0444 -0.022221,-0.0987 -0.00816,-0.0594 -0.036328,-0.13212 -0.07028,-0.18242 -0.048233,-0.0714 -0.068551,-0.0857 -0.1410766,-0.0966 -0.026708,-0.004 -0.048261,-0.006 -0.065112,-0.006 z m 1.4862142,1.54513 c 0.01266,0.001 0.02459,0.0127 0.04392,0.0341 0.0256,0.0283 0.02682,0.0393 0.0077,0.0543 -0.05486,0.0428 -0.09157,0.0434 -0.113688,0.002 -0.01814,-0.0339 -0.01595,-0.0456 0.01292,-0.0667 0.02289,-0.0168 0.03644,-0.0252 0.04909,-0.0238 z m 0.72347,0.35502 c -0.01809,4e-5 -0.04436,0.0182 -0.07596,0.0548 -0.03313,0.0383 -0.08395,0.0752 -0.113171,0.0822 -0.06103,0.0143 -0.06806,0.037 -0.01964,0.0641 0.0838,0.0469 0.236453,-0.0474 0.236678,-0.14625 8.2e-5,-0.0365 -0.0098,-0.0548 -0.02791,-0.0548 z m 0.104386,0.24546 c -0.01395,0.005 -0.02946,0.0201 -0.03411,0.0341 -0.0048,0.0149 0.0026,0.0215 0.01705,0.0165 0.01395,-0.005 0.02894,-0.0196 0.03359,-0.0336 0.0048,-0.0149 -0.002,-0.022 -0.01654,-0.017 z m 0.495061,0.62419 c -0.03403,-0.006 -0.109529,0.0406 -0.281637,0.1664 -0.132835,0.0971 -0.269837,0.19 -0.304374,0.2067 -0.03454,0.0167 -0.06253,0.037 -0.06253,0.046 0,0.0311 0.05799,0.0148 0.216007,-0.061 0.17425,-0.0836 0.466777,-0.29928 0.454753,-0.33538 -0.0043,-0.0128 -0.01088,-0.0207 -0.02222,-0.0227 z m -2.3579961,0.0775 c -0.045349,0 -0.073093,0.0908 -0.048059,0.15658 0.019844,0.0522 0.090335,0.0636 0.1080038,0.0176 0.00607,-0.0158 0.00326,-0.0613 -0.0062,-0.10128 -0.012379,-0.0524 -0.02744,-0.0729 -0.053743,-0.0729 z m -0.7048664,0.22221 c -0.033873,0 -0.1167576,0.14241 -0.1850016,0.31885 -0.067753,0.17518 -0.2025716,0.62608 -0.2025716,0.67747 0,0.0495 0.015664,0.0294 0.049609,-0.0641 0.08099,-0.22318 0.172534,-0.44573 0.260966,-0.63511 0.090974,-0.19483 0.1175899,-0.29714 0.076998,-0.29714 z m 1.42937,0.1354 c -0.050736,0 -0.079494,0.25272 -0.037724,0.33073 0.035343,0.066 0.069353,0.009 0.083199,-0.14005 0.012049,-0.12963 -0.00275,-0.19068 -0.045475,-0.19068 z m -0.011369,0.491 c -0.00464,0.002 -0.010726,0.007 -0.01912,0.0155 -0.039002,0.0371 -0.061532,0.22735 -0.037724,0.31885 l 0.013953,0.0537 0.018087,-0.0475 c 0.00999,-0.0262 0.023346,-0.11769 0.029456,-0.20309 0.00802,-0.11189 0.00927,-0.14261 -0.00465,-0.13746 z m 2.4902875,0.0956 c -0.0034,0.004 -3.02e-4,0.0202 0.0057,0.0527 0.0067,0.0362 0.04514,0.16616 0.08578,0.28836 0.04064,0.12221 0.0924,0.29572 0.114722,0.38602 0.02232,0.0903 0.0495,0.19288 0.06046,0.22738 0.0206,0.0649 0.06799,0.0837 0.08682,0.0346 0.0059,-0.0154 -0.0068,-0.11995 -0.02842,-0.23254 -0.03717,-0.19358 -0.06447,-0.26778 -0.197921,-0.53951 -0.03084,-0.0628 -0.05633,-0.12434 -0.05633,-0.13694 0,-0.0126 -0.01742,-0.0391 -0.03876,-0.0584 -0.01912,-0.0173 -0.02866,-0.0256 -0.03204,-0.0217 z m -3.3863569,0.0512 c -0.011252,0 -0.020671,0.009 -0.020671,0.0191 0,0.0103 0.0041,0.0191 0.00879,0.0191 0.00469,0 0.013584,-0.009 0.020154,-0.0191 0.00657,-0.0103 0.00298,-0.0191 -0.00827,-0.0191 z m 2.8535729,0.11783 c -0.01161,0.005 -0.02275,0.0163 -0.03256,0.0346 -0.01419,0.0265 -0.01173,0.0529 0.0098,0.0961 0.01634,0.0327 0.03012,0.0791 0.03049,0.10335 8.68e-4,0.0545 0.04446,0.28081 0.0956,0.49816 0.08217,0.3492 0.08798,0.35972 0.161747,0.29042 0.02459,-0.0231 0.05633,-0.0402 0.0708,-0.0382 0.05995,0.008 0.07717,-0.002 0.06563,-0.0382 -0.01698,-0.0535 0.01613,-0.0639 0.06304,-0.0202 0.04118,0.0384 0.04173,0.0486 0.01189,0.24598 -0.0094,0.0624 -0.04651,0.0891 -0.04651,0.0336 0,-0.0298 -0.02282,-0.0387 -0.04444,-0.0171 -0.02142,0.0214 0.02529,0.0848 0.06253,0.0848 0.01974,0 0.04112,0.0138 0.04754,0.0305 0.02012,0.0524 0.07632,0.021 0.106454,-0.0594 0.0159,-0.0425 0.03589,-0.0797 0.04444,-0.0837 0.04406,-0.0185 0.05044,-0.0829 0.02429,-0.24443 -0.01513,-0.0934 -0.02318,-0.177 -0.01809,-0.185 0.01443,-0.0233 -0.04157,-0.26443 -0.09612,-0.41393 -0.02712,-0.0744 -0.04961,-0.13704 -0.04961,-0.14004 0,-0.003 -0.0088,-0.005 -0.02015,-0.005 -0.01141,0 -0.0157,0.0161 -0.0093,0.0362 0.0064,0.02 -0.0063,0.0825 -0.02842,0.13849 -0.04473,0.11348 -0.03958,0.15348 0.01964,0.15348 0.02192,0 0.04508,0.0155 0.05168,0.0341 0.0066,0.0186 0.02469,0.0485 0.04031,0.0667 0.03964,0.0462 0.01823,0.09 -0.03876,0.0791 -0.02762,-0.005 -0.05615,0.003 -0.07131,0.0217 -0.06181,0.0745 -0.146819,0.0108 -0.166399,-0.12454 -0.0069,-0.0475 -0.02941,-0.11021 -0.04961,-0.13901 -0.0202,-0.0288 -0.03669,-0.0687 -0.03669,-0.0889 0,-0.0202 -0.02052,-0.0674 -0.04599,-0.10491 -0.02547,-0.0375 -0.05282,-0.0976 -0.06046,-0.13332 -0.01803,-0.0842 -0.05664,-0.12619 -0.09147,-0.1111 z m 0.373104,0.11368 c -0.01125,0 -0.02067,0.009 -0.02067,0.0196 1e-6,0.0103 0.0041,0.0191 0.0088,0.0191 0.0047,0 0.01358,-0.009 0.02015,-0.0191 0.0066,-0.0103 0.003,-0.0196 -0.0083,-0.0196 z m -0.577226,0.85008 c -0.05449,0 -0.107943,0.048 -0.09405,0.0842 0.01652,0.043 0.04291,0.0402 0.08992,-0.0103 0.04864,-0.0521 0.04962,-0.0739 0.0041,-0.0739 z m -0.07131,0.20774 c -0.01715,0.007 -0.02484,0.0306 -0.02119,0.0713 0.0031,0.0347 0.01222,0.074 0.02015,0.0868 0.0079,0.0124 0.03741,0.02 0.06563,0.017 0.07395,-0.009 0.08088,-0.0842 0.01292,-0.14262 -0.03363,-0.0289 -0.06036,-0.0393 -0.07752,-0.0326 z m 0.214974,0.24753 c -0.0087,-0.001 -0.02066,2.1e-4 -0.03617,0.004 -0.04765,0.0121 -0.07535,0.0426 -0.06046,0.0667 0.01324,0.0214 0.02137,0.0194 0.07545,-0.016 0.04191,-0.0275 0.04724,-0.0513 0.02119,-0.0548 z m -3.1119553,2.03758 c -0.061902,0 -0.2613091,0.36819 -0.2614828,0.48266 -5.7e-5,0.0372 -0.023347,0.13936 -0.05116,0.22686 -0.027812,0.0875 -0.045117,0.17253 -0.038757,0.18913 0.019605,0.0511 0.137689,0.0868 0.2893881,0.0868 0.1097001,0 0.1465292,-0.007 0.1550292,-0.0294 0.0072,-0.0187 0.036386,-0.0286 0.083716,-0.0284 0.080536,3e-4 0.1327563,0.0238 0.1152383,0.0522 -0.013942,0.0225 0.1982216,0.0636 0.3296957,0.0636 0.054295,0 0.1059804,0.0107 0.1173054,0.0243 0.011108,0.0134 0.024512,0.1107 0.029972,0.21652 0.00755,0.14624 0.017182,0.19767 0.040824,0.21497 0.03492,0.0256 0.1066151,0.0134 0.1359091,-0.0233 0.02388,-0.0299 0.1674461,-0.0394 0.2687174,-0.0181 0.041564,0.009 0.1169449,0.0415 0.1674319,0.0729 0.06869,0.0427 0.127493,0.0607 0.233578,0.0718 0.209547,0.0221 0.396462,0.0222 0.537951,0 0.06907,-0.0109 0.199577,-0.0272 0.289905,-0.0362 0.159573,-0.0159 0.274885,-0.0457 0.322978,-0.0832 0.01557,-0.0121 0.01957,-0.0474 0.01189,-0.10336 -0.0087,-0.0638 -0.0013,-0.10887 0.03101,-0.18397 0.04695,-0.10914 0.07137,-0.27548 0.05168,-0.35398 -0.0113,-0.0449 -0.02212,-0.0497 -0.104387,-0.0496 -0.05027,0 -0.174017,0.0126 -0.275435,0.0279 -0.505239,0.0762 -0.976327,0.0848 -1.104842,0.0207 -0.03386,-0.0169 -0.1106287,-0.0434 -0.1705327,-0.0589 -0.1230229,-0.0319 -0.281865,-0.0981 -0.298173,-0.12455 -0.00596,-0.01 0.012943,-0.10123 0.041858,-0.2036 0.039283,-0.13909 0.047303,-0.19429 0.032039,-0.21859 -0.017712,-0.0281 -0.073458,-0.0339 -0.4175457,-0.0419 -0.4346363,-0.0106 -0.4439135,-0.0131 -0.5095295,-0.14004 -0.015125,-0.0293 -0.039626,-0.0532 -0.05426,-0.0532 z"
         style="fill:#6495ed;fill-opacity:1;stroke-width:0.18662633"
         sodipodi:nodetypes="cccccccccsccccscccccscccscssscsccccccccscsscccccsccccccscsccccsccccccccccccccccscsscccccscsccccsccccccccsccccccccccccsccccccccccccccccccccccccccccsccccscccssccsccccsccsccccccccccccccscscccssscssccccccccccsssccccccssccssccccssccccccscccccccccccccccccccccccscscccsccccccccsccccccccccccccc" />
    </g>
  </g>
</svg>
