<?xml version="1.0" standalone="no"?>
<!DOCTYPE svg PUBLIC "-//W3C//DTD SVG 20010904//EN"
 "http://www.w3.org/TR/2001/REC-SVG-20010904/DTD/svg10.dtd">
<svg version="1.0" xmlns="http://www.w3.org/2000/svg"
 width="16.000000pt" height="16.000000pt" viewBox="0 0 16.000000 16.000000"
 preserveAspectRatio="xMidYMid meet">
<metadata>
Created by potrace 1.11, written by Peter Selinger 2001-2013
</metadata>
<g transform="translate(0.000000,16.000000) scale(0.002286,-0.002286)"
fill="#000000" stroke="none">
<path d="M69 5412 c-13 -2 -14 -249 -14 -1915 l0 -1912 65 -1 c36 0 71 2 78 4
9 3 12 203 12 953 l0 949 1257 -2 1257 -3 1 -949 0 -950 68 -1 67 -1 0 31 c1
43 1 3404 1 3620 l-1 180 -62 -1 c-35 -1 -65 -2 -69 -3 -3 -1 -5 -400 -5 -887
1 -778 -1 -887 -14 -893 -8 -4 -573 -6 -1255 -6 l-1240 1 -5 895 -5 894 -61 0
c-33 0 -67 -1 -75 -3z"/>
<path d="M3119 5395 c0 -11 -1 -42 -2 -70 l0 -50 295 -3 296 -2 3 -23 c3 -18
3 -3422 0 -3494 l-1 -23 -295 0 c-274 0 -295 -1 -296 -17 -1 -10 -1 -43 -2
-73 l-1 -55 960 1 c846 0 1127 5 1215 18 13 3 45 7 70 10 53 8 94 14 129 21
14 3 39 8 55 11 52 9 215 54 289 81 264 95 494 273 696 540 285 375 416 771
413 1253 0 102 -9 237 -17 280 -1 8 -6 38 -10 65 -22 138 -86 358 -142 485
-177 401 -436 701 -729 848 -118 59 -356 136 -485 158 -14 3 -50 9 -80 14 -84
15 -113 18 -295 36 -33 3 -511 7 -1062 8 -997 1 -1003 1 -1004 -19z m2091
-139 c25 -4 59 -8 75 -11 17 -3 50 -8 75 -11 81 -10 244 -56 301 -85 222 -111
402 -385 480 -731 11 -51 22 -104 24 -118 1 -14 6 -45 9 -70 25 -168 31 -298
31 -615 -1 -311 -11 -564 -30 -700 -2 -16 -7 -57 -10 -90 -20 -192 -80 -414
-150 -560 -160 -331 -364 -469 -750 -511 -27 -3 -61 -8 -75 -11 -14 -3 -199
-7 -412 -10 l-387 -5 0 1763 c0 969 3 1767 6 1772 6 10 730 3 813 -7z"/>
</g>
</svg>
